SplineFontDB: 3.2
FontName: Untitled1
FullName: Untitled1
FamilyName: Untitled1
Weight: Regular
Copyright: Copyright (c) 2021, Jack
UComments: "2021-7-22: Created with FontForge (http://fontforge.org)"
Version: 001.000
ItalicAngle: 0
UnderlinePosition: -100
UnderlineWidth: 50
Ascent: 800
Descent: 200
InvalidEm: 0
LayerCount: 2
Layer: 0 0 "Back" 1
Layer: 1 0 "Fore" 0
XUID: [1021 424 2030559194 29343]
StyleMap: 0x0000
FSType: 0
OS2Version: 0
OS2_WeightWidthSlopeOnly: 0
OS2_UseTypoMetrics: 1
CreationTime: 1626979397
ModificationTime: 1627489624
OS2TypoAscent: 0
OS2TypoAOffset: 1
OS2TypoDescent: 0
OS2TypoDOffset: 1
OS2TypoLinegap: 90
OS2WinAscent: 0
OS2WinAOffset: 1
OS2WinDescent: 0
OS2WinDOffset: 1
HheadAscent: 0
HheadAOffset: 1
HheadDescent: 0
HheadDOffset: 1
Lookup: 1 0 0 "ascii_input" { "ascii_input subtable"  } ['liga' ('latn' <'dflt' > 'DFLT' <'dflt' > ) ]
Lookup: 6 0 0 "cvc_3v_c1" { "cvc_3v_c1 contextual 0"  "cvc_3v_c1 contextual 1"  } ['liga' ('latn' <'dflt' > 'DFLT' <'dflt' > ) ]
Lookup: 1 0 0 "Single Substitution lookup 2" { "Single Substitution lookup 2 subtable"  } []
Lookup: 6 0 0 "cvc_3v_v" { "cvc_3v_v subtable"  } ['liga' ('latn' <'dflt' > 'DFLT' <'dflt' > ) ]
Lookup: 1 0 0 "Single Substitution lookup 4" { "Single Substitution lookup 4 subtable"  } []
Lookup: 6 0 0 "cvc_3v_c3" { "cvc_3v_c3 subtable"  } ['liga' ('latn' <'dflt' > 'DFLT' <'dflt' > ) ]
Lookup: 1 0 0 "Single Substitution lookup 6" { "Single Substitution lookup 6 subtable"  } []
Lookup: 6 0 0 "cvc_3h_c1" { "cvc_3h_c1 contextual 0"  "cvc_3h_c1 contextual 1"  } ['liga' ('latn' <'dflt' > 'DFLT' <'dflt' > ) ]
Lookup: 1 0 0 "Single Substitution lookup 8" { "Single Substitution lookup 8 subtable"  } []
Lookup: 6 0 0 "cvc_3h_v" { "cvc_3h_v subtable"  } ['liga' ('latn' <'dflt' > 'DFLT' <'dflt' > ) ]
Lookup: 1 0 0 "Single Substitution lookup 10" { "Single Substitution lookup 10 subtable"  } []
Lookup: 6 0 0 "cvc_3h_c3" { "cvc_3h_c3 subtable"  } ['liga' ('latn' <'dflt' > 'DFLT' <'dflt' > ) ]

StartChar: tv_a
Encoding: 0 -1 0
Width: 1000
Flags: H
LayerCount: 2
Fore
SplineSet
500 600 m 1
 500 0 l 1025
200 0 m 1
 800 0 l 1025
200 600 m 1
 800 600 l 1025
800 650 m 0
 600 650 400 650 200 650 c 0
 172.404296875 650 150 627.595703125 150 600 c 0
 150 572.404296875 172.404296875 550 200 550 c 2
 450 550 l 1
 450 50 l 1
 200 50 l 2
 172.404296875 50 150 27.595703125 150 -1.11022302463e-14 c 0
 150 -27.595703125 172.404296875 -50 200 -50 c 2
 800 -50 l 2
 827.595703125 -50 850 -27.595703125 850 -1.38777878078e-15 c 0
 850 27.595703125 827.595703125 50 800 50 c 2
 550 50 l 1
 550 550 l 1
 800 550 l 2
 827.595703125 550 850 572.404296875 850 600 c 0
 850 627.595703125 827.595703125 650 800 650 c 0
100 750 m 2
 900 750 l 2
 927.594726562 749.997070312 949.997070312 727.594726562 950 700 c 2
 950 -100 l 2
 949.997070312 -127.594726562 927.594726562 -149.997070312 900 -150 c 2
 100 -150 l 2
 72.4052734375 -149.997070312 50.0029296875 -127.594726562 50 -100 c 2
 50 700 l 2
 50.0029296875 727.594726562 72.4052734375 750 100 750 c 2
EndSplineSet
Substitution2: "Single Substitution lookup 38 subtable" tv_a.3
Substitution2: "Single Substitution lookup 34 subtable" tv_a.1
Substitution2: "Single Substitution lookup 30 subtable" tv_a.3
Substitution2: "Single Substitution lookup 26 subtable" tv_a.2
Substitution2: "Single Substitution lookup 24 subtable" tv_a.7
Substitution2: "Single Substitution lookup 20 subtable" tv_a.5
Substitution2: "Single Substitution lookup 18 subtable" tv_a.8
Substitution2: "Single Substitution lookup 14 subtable" tv_a.6
Substitution2: "Single Substitution lookup 12 subtable" tv_a.7
Substitution2: "Single Substitution lookup 8 subtable" tv_a.4
Substitution2: "Single Substitution lookup 6 subtable" tv_a.7
Substitution2: "Single Substitution lookup 2 subtable" tv_a.5
EndChar

StartChar: tv_a.1
Encoding: 1 -1 1
Width: 1000
Flags: H
LayerCount: 2
Fore
SplineSet
200 50 m 2
 172.404296875 50 150 27.595703125 150 0 c 0
 150 -27.595703125 172.404296875 -50 200 -50 c 2
 500 -50 l 1
 800 -50 l 2
 827.595703125 -50 850 -27.595703125 850 0 c 0
 850 27.595703125 827.595703125 50 800 50 c 2
 550 50 l 1
 550 550 l 1
 800 550 l 2
 827.595703125 550 850 572.404296875 850 600 c 0
 850 627.595703125 827.595703125 650 800 650 c 2
 500 650 l 1
 200 650 l 2
 172.404296875 650 150 627.595703125 150 600 c 0
 150 572.404296875 172.404296875 550 200 550 c 2
 450 550 l 1
 450 50 l 1
 200 50 l 2
EndSplineSet
EndChar

StartChar: tv_a.2
Encoding: 2 -1 2
Width: 1000
Flags: H
AnchorPoint: "MarkBaseSet" 0 0 basechar 0
LayerCount: 2
Fore
SplineSet
100 50 m 2
 72.404296875 50 50 27.595703125 50 0 c 0
 50 -27.595703125 72.404296875 -50 100 -50 c 2
 300 -50 l 1
 500 -50 l 2
 527.595703125 -50 550 -27.595703125 550 0 c 0
 550 27.595703125 527.595703125 50 500 50 c 2
 350 50 l 1
 350 550 l 1
 500 550 l 2
 527.595703125 550 550 572.404296875 550 600 c 0
 550 627.595703125 527.595703125 650 500 650 c 2
 300 650 l 1
 100 650 l 2
 72.404296875 650 50 627.595703125 50 600 c 0
 50 572.404296875 72.404296875 550 100 550 c 2
 250 550 l 1
 250 50 l 1
 100 50 l 2
EndSplineSet
EndChar

StartChar: tv_a.3
Encoding: 3 -1 3
Width: 1000
Flags: H
AnchorPoint: "MarkBaseSet" 0 0 basechar 0
LayerCount: 2
Fore
SplineSet
200 350 m 2
 172.404296875 350 150 327.595703125 150 300 c 0
 150 272.404296875 172.404296875 250 200 250 c 2
 500 250 l 1
 800 250 l 2
 827.595703125 250 850 272.404296875 850 300 c 0
 850 327.595703125 827.595703125 350 800 350 c 2
 550 350 l 1
 550 650 l 1
 800 650 l 2
 827.595703125 650 850 672.404296875 850 700 c 0
 850 727.595703125 827.595703125 750 800 750 c 2
 500 750 l 1
 200 750 l 2
 172.404296875 750 150 727.595703125 150 700 c 0
 150 672.404296875 172.404296875 650 200 650 c 2
 450 650 l 1
 450 350 l 1
 200 350 l 2
EndSplineSet
EndChar

StartChar: tv_a.4
Encoding: 4 -1 4
Width: 1000
Flags: H
AnchorPoint: "MarkBaseSet" 0 0 basechar 0
LayerCount: 2
Fore
SplineSet
100 350 m 2
 72.404296875 350 50 327.595703125 50 300 c 0
 50 272.404296875 72.404296875 250 100 250 c 2
 300 250 l 1
 500 250 l 2
 527.595703125 250 550 272.404296875 550 300 c 0
 550 327.595703125 527.595703125 350 500 350 c 2
 350 350 l 1
 350 650 l 1
 500 650 l 2
 527.595703125 650 550 672.404296875 550 700 c 0
 550 727.595703125 527.595703125 750 500 750 c 2
 300 750 l 1
 100 750 l 2
 72.404296875 750 50 727.595703125 50 700 c 0
 50 672.404296875 72.404296875 650 100 650 c 2
 250 650 l 1
 250 350 l 1
 100 350 l 2
EndSplineSet
EndChar

StartChar: tv_a.5
Encoding: 5 -1 5
Width: 1000
Flags: H
AnchorPoint: "MarkBaseSet" 0 0 basechar 0
LayerCount: 2
Fore
SplineSet
200 550 m 2
 172.404296875 550 150 527.595703125 150 500 c 0
 150 472.404296875 172.404296875 450 200 450 c 2
 500 450 l 1
 800 450 l 2
 827.595703125 450 850 472.404296875 850 500 c 0
 850 527.595703125 827.595703125 550 800 550 c 2
 550 550 l 1
 550 650 l 1
 800 650 l 2
 827.595703125 650 850 672.404296875 850 700 c 0
 850 727.595703125 827.595703125 750 800 750 c 2
 500 750 l 1
 200 750 l 2
 172.404296875 750 150 727.595703125 150 700 c 0
 150 672.404296875 172.404296875 650 200 650 c 2
 450 650 l 1
 450 550 l 1
 200 550 l 2
EndSplineSet
EndChar

StartChar: tv_a.6
Encoding: 6 -1 6
Width: 1000
Flags: H
AnchorPoint: "MarkBaseSet" 0 0 basechar 0
LayerCount: 2
Fore
SplineSet
200 450 m 2
 172.404296875 450 150 427.595703125 150 400 c 0
 150 372.404296875 172.404296875 350 200 350 c 2
 500 350 l 1
 800 350 l 2
 827.595703125 350 850 372.404296875 850 400 c 0
 850 427.595703125 827.595703125 450 800 450 c 2
 550 450 l 1
 550 650 l 1
 800 650 l 2
 827.595703125 650 850 672.404296875 850 700 c 0
 850 727.595703125 827.595703125 750 800 750 c 2
 500 750 l 1
 200 750 l 2
 172.404296875 750 150 727.595703125 150 700 c 0
 150 672.404296875 172.404296875 650 200 650 c 2
 450 650 l 1
 450 450 l 1
 200 450 l 2
EndSplineSet
EndChar

StartChar: tv_a.7
Encoding: 7 -1 7
Width: 0
Flags: HW
AnchorPoint: "MarkBaseSet" 0 0 mark 0
LayerCount: 2
Fore
SplineSet
200 -50 m 2
 172.404296875 -50 150 -72.404296875 150 -100 c 0
 150 -127.595703125 172.404296875 -150 200 -150 c 2
 500 -150 l 1
 800 -150 l 2
 827.595703125 -150 850 -127.595703125 850 -100 c 0
 850 -72.404296875 827.595703125 -50 800 -50 c 2
 550 -50 l 1
 550 50 l 1
 800 50 l 2
 827.595703125 50 850 72.404296875 850 100 c 0
 850 127.595703125 827.595703125 150 800 150 c 2
 500 150 l 1
 200 150 l 2
 172.404296875 150 150 127.595703125 150 100 c 0
 150 72.404296875 172.404296875 50 200 50 c 2
 450 50 l 1
 450 -50 l 1
 200 -50 l 2
EndSplineSet
EndChar

StartChar: tv_a.8
Encoding: 8 -1 8
Width: 0
Flags: HW
AnchorPoint: "MarkBaseSet" 0 0 mark 0
LayerCount: 2
Fore
SplineSet
200 -50 m 2
 172.404296875 -50 150 -72.404296875 150 -100 c 0
 150 -127.595703125 172.404296875 -150 200 -150 c 2
 500 -150 l 1
 800 -150 l 2
 827.595703125 -150 850 -127.595703125 850 -100 c 0
 850 -72.404296875 827.595703125 -50 800 -50 c 2
 550 -50 l 1
 550 150 l 1
 800 150 l 2
 827.595703125 150 850 172.404296875 850 200 c 0
 850 227.595703125 827.595703125 250 800 250 c 2
 500 250 l 1
 200 250 l 2
 172.404296875 250 150 227.595703125 150 200 c 0
 150 172.404296875 172.404296875 150 200 150 c 2
 450 150 l 1
 450 -50 l 1
 200 -50 l 2
EndSplineSet
EndChar

StartChar: tv_u
Encoding: 9 -1 9
Width: 1000
Flags: H
LayerCount: 2
Fore
SplineSet
800 650 m 2
 200 650 l 2
 172.404296875 650 150 627.595703125 150 600 c 0
 150 572.404296875 172.404296875 550 200 550 c 2
 300 550 l 1
 300 50 l 1
 200 50 l 2
 172.404296875 50 150 27.595703125 150 -1.11022302463e-14 c 0
 150 -27.595703125 172.404296875 -50 200 -50 c 2
 800 -50 l 2
 827.595703125 -50 850 -27.595703125 850 -1.38777878078e-15 c 0
 850 27.595703125 827.595703125 50 800 50 c 2
 700 50 l 1
 700 550 l 1
 800 550 l 2
 827.595703125 550 850 572.404296875 850 600 c 0
 850 627.595703125 827.595703125 650 800 650 c 2
100 750 m 2
 900 750 l 2
 927.594726562 749.997070312 949.997070312 727.594726562 950 700 c 2
 950 -100 l 2
 949.997070312 -127.594726562 927.594726562 -149.997070312 900 -150 c 2
 100 -150 l 2
 72.4052734375 -149.997070312 50.0029296875 -127.594726562 50 -100 c 2
 50 700 l 2
 50.0029296875 727.594726562 72.4052734375 750 100 750 c 2
400 50 m 1
 400 550 l 1
 600 550 l 1
 600 50 l 1
 400 50 l 1
EndSplineSet
Substitution2: "Single Substitution lookup 38 subtable" tv_u.3
Substitution2: "Single Substitution lookup 34 subtable" tv_u.1
Substitution2: "Single Substitution lookup 30 subtable" tv_u.3
Substitution2: "Single Substitution lookup 26 subtable" tv_u.2
Substitution2: "Single Substitution lookup 24 subtable" tv_u.7
Substitution2: "Single Substitution lookup 20 subtable" tv_u.5
Substitution2: "Single Substitution lookup 18 subtable" tv_u.8
Substitution2: "Single Substitution lookup 14 subtable" tv_u.6
Substitution2: "Single Substitution lookup 12 subtable" tv_u.7
Substitution2: "Single Substitution lookup 8 subtable" tv_u.4
Substitution2: "Single Substitution lookup 6 subtable" tv_u.7
Substitution2: "Single Substitution lookup 2 subtable" tv_u.5
EndChar

StartChar: tv_u.1
Encoding: 10 -1 10
Width: 1000
Flags: H
LayerCount: 2
Fore
SplineSet
400 50 m 1
 400 550 l 1
 600 550 l 1
 600 50 l 1
 400 50 l 1
200 50 m 2
 172.404296875 50 150 27.595703125 150 0 c 0
 150 -27.595703125 172.404296875 -50 200 -50 c 2
 350 -50 l 1
 650 -50 l 1
 800 -50 l 2
 827.595703125 -50 850 -27.595703125 850 0 c 0
 850 27.595703125 827.595703125 50 800 50 c 2
 700 50 l 1
 700 550 l 1
 800 550 l 2
 827.595703125 550 850 572.404296875 850 600 c 0
 850 627.595703125 827.595703125 650 800 650 c 2
 650 650 l 1
 350 650 l 1
 200 650 l 2
 172.404296875 650 150 627.595703125 150 600 c 0
 150 572.404296875 172.404296875 550 200 550 c 2
 300 550 l 1
 300 50 l 1
 200 50 l 2
EndSplineSet
EndChar

StartChar: tv_u.2
Encoding: 11 -1 11
Width: 1000
Flags: H
AnchorPoint: "MarkBaseSet" 0 0 basechar 0
LayerCount: 2
Fore
SplineSet
250 50 m 1
 250 550 l 1
 350 550 l 1
 350 50 l 1
 250 50 l 1
100 50 m 2
 72.404296875 50 50 27.595703125 50 0 c 0
 50 -27.595703125 72.404296875 -50 100 -50 c 2
 200 -50 l 1
 400 -50 l 1
 500 -50 l 2
 527.595703125 -50 550 -27.595703125 550 0 c 0
 550 27.595703125 527.595703125 50 500 50 c 2
 450 50 l 1
 450 550 l 1
 500 550 l 2
 527.595703125 550 550 572.404296875 550 600 c 0
 550 627.595703125 527.595703125 650 500 650 c 2
 400 650 l 1
 200 650 l 1
 100 650 l 2
 72.404296875 650 50 627.595703125 50 600 c 0
 50 572.404296875 72.404296875 550 100 550 c 2
 150 550 l 1
 150 50 l 1
 100 50 l 2
EndSplineSet
EndChar

StartChar: tv_u.3
Encoding: 12 -1 12
Width: 1000
Flags: H
AnchorPoint: "MarkBaseSet" 0 0 basechar 0
LayerCount: 2
Fore
SplineSet
600 350 m 1
 400 350 l 1
 400 650 l 1
 600 650 l 1
 600 350 l 1
200 350 m 2
 172.404296875 350 150 327.595703125 150 300 c 0
 150 272.404296875 172.404296875 250 200 250 c 2
 350 250 l 1
 650 250 l 1
 800 250 l 2
 827.595703125 250 850 272.404296875 850 300 c 0
 850 327.595703125 827.595703125 350 800 350 c 2
 700 350 l 1
 700 650 l 1
 800 650 l 2
 827.595703125 650 850 672.404296875 850 700 c 0
 850 727.595703125 827.595703125 750 800 750 c 2
 650 750 l 1
 350 750 l 1
 200 750 l 2
 172.404296875 750 150 727.595703125 150 700 c 0
 150 672.404296875 172.404296875 650 200 650 c 2
 300 650 l 1
 300 350 l 1
 200 350 l 2
EndSplineSet
EndChar

StartChar: tv_u.4
Encoding: 13 -1 13
Width: 1000
Flags: H
AnchorPoint: "MarkBaseSet" 0 0 basechar 0
LayerCount: 2
Fore
SplineSet
250 350 m 1
 250 650 l 1
 350 650 l 1
 350 350 l 1
 250 350 l 1
100 350 m 2
 72.404296875 350 50 327.595703125 50 300 c 0
 50 272.404296875 72.404296875 250 100 250 c 2
 200 250 l 1
 400 250 l 1
 500 250 l 2
 527.595703125 250 550 272.404296875 550 300 c 0
 550 327.595703125 527.595703125 350 500 350 c 2
 450 350 l 1
 450 650 l 1
 500 650 l 2
 527.595703125 650 550 672.404296875 550 700 c 0
 550 727.595703125 527.595703125 750 500 750 c 2
 400 750 l 1
 200 750 l 1
 100 750 l 2
 72.404296875 750 50 727.595703125 50 700 c 0
 50 672.404296875 72.404296875 650 100 650 c 2
 150 650 l 1
 150 350 l 1
 100 350 l 2
EndSplineSet
EndChar

StartChar: tv_u.5
Encoding: 14 -1 14
Width: 1000
Flags: H
AnchorPoint: "MarkBaseSet" 0 0 basechar 0
LayerCount: 2
Fore
SplineSet
400 550 m 1
 400 650 l 1
 600 650 l 1
 600 550 l 1
 400 550 l 1
200 550 m 2
 172.404296875 550 150 527.595703125 150 500 c 0
 150 472.404296875 172.404296875 450 200 450 c 2
 350 450 l 1
 650 450 l 1
 800 450 l 2
 827.595703125 450 850 472.404296875 850 500 c 0
 850 527.595703125 827.595703125 550 800 550 c 2
 700 550 l 1
 700 650 l 1
 800 650 l 2
 827.595703125 650 850 672.404296875 850 700 c 0
 850 727.595703125 827.595703125 750 800 750 c 2
 650 750 l 1
 350 750 l 1
 200 750 l 2
 172.404296875 750 150 727.595703125 150 700 c 0
 150 672.404296875 172.404296875 650 200 650 c 2
 300 650 l 1
 300 550 l 1
 200 550 l 2
EndSplineSet
EndChar

StartChar: tv_u.6
Encoding: 15 -1 15
Width: 1000
Flags: H
AnchorPoint: "MarkBaseSet" 0 0 basechar 0
LayerCount: 2
Fore
SplineSet
599.999023438 450 m 1
 399.999023438 450 l 1
 399.999023438 650 l 1
 599.999023438 650 l 1
 599.999023438 450 l 1
199.999023438 450 m 2
 172.403320312 450 149.999023438 427.595703125 149.999023438 400 c 0
 149.999023438 372.404296875 172.403320312 350 199.999023438 350 c 2
 349.999023438 350 l 1
 649.999023438 350 l 1
 799.999023438 350 l 2
 827.594726562 350 849.999023438 372.404296875 849.999023438 400 c 0
 849.999023438 427.595703125 827.594726562 450 799.999023438 450 c 2
 699.999023438 450 l 1
 699.999023438 650 l 1
 799.999023438 650 l 2
 827.594726562 650 849.999023438 672.404296875 849.999023438 700 c 0
 849.999023438 727.595703125 827.594726562 750 799.999023438 750 c 2
 649.999023438 750 l 1
 349.999023438 750 l 1
 199.999023438 750 l 2
 172.403320312 750 149.999023438 727.595703125 149.999023438 700 c 0
 149.999023438 672.404296875 172.403320312 650 199.999023438 650 c 2
 299.999023438 650 l 1
 299.999023438 450 l 1
 199.999023438 450 l 2
EndSplineSet
EndChar

StartChar: tv_u.7
Encoding: 16 -1 16
Width: 0
Flags: HW
AnchorPoint: "MarkBaseSet" 0 0 mark 0
LayerCount: 2
Fore
SplineSet
400 -50 m 1
 400 50 l 1
 600 50 l 1
 600 -50 l 1
 400 -50 l 1
200 -50 m 2
 172.404296875 -50 150 -72.404296875 150 -100 c 0
 150 -127.595703125 172.404296875 -150 200 -150 c 2
 350 -150 l 1
 650 -150 l 1
 800 -150 l 2
 827.595703125 -150 850 -127.595703125 850 -100 c 0
 850 -72.404296875 827.595703125 -50 800 -50 c 2
 700 -50 l 1
 700 50 l 1
 800 50 l 2
 827.595703125 50 850 72.404296875 850 100 c 0
 850 127.595703125 827.595703125 150 800 150 c 2
 650 150 l 1
 350 150 l 1
 200 150 l 2
 172.404296875 150 150 127.595703125 150 100 c 0
 150 72.404296875 172.404296875 50 200 50 c 2
 300 50 l 1
 300 -50 l 1
 200 -50 l 2
EndSplineSet
EndChar

StartChar: tv_u.8
Encoding: 17 -1 17
Width: 0
Flags: HW
AnchorPoint: "MarkBaseSet" 0 0 mark 0
LayerCount: 2
Fore
SplineSet
600 -50 m 1
 400 -50 l 1
 400 150 l 1
 600 150 l 1
 600 -50 l 1
200 -50 m 2
 172.404296875 -50 150 -72.404296875 150 -100 c 0
 150 -127.595703125 172.404296875 -150 200 -150 c 2
 350 -150 l 1
 650 -150 l 1
 800 -150 l 2
 827.595703125 -150 850 -127.595703125 850 -100 c 0
 850 -72.404296875 827.595703125 -50 800 -50 c 2
 700 -50 l 1
 700 150 l 1
 800 150 l 2
 827.595703125 150 850 172.404296875 850 200 c 0
 850 227.595703125 827.595703125 250 800 250 c 2
 650 250 l 1
 350 250 l 1
 200 250 l 2
 172.404296875 250 150 227.595703125 150 200 c 0
 150 172.404296875 172.404296875 150 200 150 c 2
 300 150 l 1
 300 -50 l 1
 200 -50 l 2
EndSplineSet
EndChar

StartChar: nsfu_p
Encoding: 18 -1 18
Width: 1000
Flags: H
LayerCount: 2
Fore
SplineSet
600 650 m 0
 577.92578125 650 559.172851562 635.6640625 552.552734375 615.802734375 c 2
 400 158.14453125 l 1
 247.447265625 615.802734375 l 2
 240.827148438 635.6640625 222.07421875 650 200 650 c 0
 174.331404945 650 152.006228504 629.893190977 150 604.21786513 c 2
 150 596.669369097 l 2
 150.315368513 592.592458029 151.145934356 588.417665682 152.552734375 584.197265625 c 2
 352.552734375 -15.802734375 l 2
 359.172851562 -35.6640625 377.92578125 -50 400 -50 c 0
 422.07421875 -50 440.827148438 -35.6640625 447.447265625 -15.802734375 c 2
 600 441.85546875 l 1
 752.552734375 -15.802734375 l 2
 759.172851562 -35.6640625 777.92578125 -50 800 -50 c 0
 825.668595055 -50 847.993771496 -29.8931909766 850 -4.21786512975 c 2
 850 3.33063090268 l 2
 849.684631487 7.40754197123 848.854065644 11.5823343183 847.447265625 15.802734375 c 2
 647.447265625 615.802734375 l 2
 640.827148438 635.6640625 622.07421875 650 600 650 c 0
100 750 m 2
 900 750 l 2
 927.594726562 749.997070312 949.997070312 727.594726562 950 700 c 2
 950 -100 l 2
 949.997070312 -127.594726562 927.594726562 -149.997070312 900 -150 c 2
 100 -150 l 2
 72.4052734375 -149.997070312 50.0029296875 -127.594726562 50 -100 c 2
 50 700 l 2
 50.0029296875 727.594726562 72.4052734375 750 100 750 c 2
EndSplineSet
Substitution2: "Single Substitution lookup 38 subtable" nsfu_p.3
Substitution2: "Single Substitution lookup 34 subtable" nsfu_p.1
Substitution2: "Single Substitution lookup 30 subtable" nsfu_p.3
Substitution2: "Single Substitution lookup 26 subtable" nsfu_p.2
Substitution2: "Single Substitution lookup 24 subtable" nsfu_p.7
Substitution2: "Single Substitution lookup 20 subtable" nsfu_p.5
Substitution2: "Single Substitution lookup 18 subtable" nsfu_p.8
Substitution2: "Single Substitution lookup 14 subtable" nsfu_p.6
Substitution2: "Single Substitution lookup 12 subtable" nsfu_p.7
Substitution2: "Single Substitution lookup 8 subtable" nsfu_p.4
Substitution2: "Single Substitution lookup 6 subtable" nsfu_p.7
Substitution2: "Single Substitution lookup 2 subtable" nsfu_p.5
EndChar

StartChar: nsfu_p.1
Encoding: 19 -1 19
Width: 1000
Flags: H
LayerCount: 2
Fore
SplineSet
800 -50 m 0
 832.069335938 -50 858.919921875 -18.615234375 847.447265625 15.802734375 c 2
 647.447265625 615.802734375 l 2
 640.827148438 635.6640625 622.07421875 650 600 650 c 0
 577.92578125 650 559.172851562 635.6640625 552.552734375 615.802734375 c 2
 400 158.14453125 l 1
 247.447265625 615.802734375 l 2
 240.827148438 635.6640625 222.07421875 650 200 650 c 0
 167.930664062 650 141.080078125 618.615234375 152.552734375 584.197265625 c 2
 352.552734375 -15.802734375 l 2
 359.172851562 -35.6640625 377.92578125 -50 400 -50 c 0
 422.07421875 -50 440.827148438 -35.6640625 447.447265625 -15.802734375 c 2
 600 441.85546875 l 1
 752.552734375 -15.802734375 l 2
 759.172851562 -35.6640625 777.92578125 -50 800 -50 c 0
EndSplineSet
EndChar

StartChar: nsfu_p.2
Encoding: 20 -1 20
Width: 1000
Flags: H
AnchorPoint: "MarkBaseSet" 0 0 basechar 0
LayerCount: 2
Fore
SplineSet
500 -50 m 0
 530.341796875 -50 556.188476562 -22.322265625 548.810546875 10.8779296875 c 2
 415.477539062 610.877929688 l 2
 410.505859375 633.25 390.52734375 650 366.666992188 650 c 0
 342.806640625 650 322.828125 633.250976562 317.856445312 610.877929688 c 2
 233.333007812 230.52734375 l 1
 148.810546875 610.877929688 l 2
 143.838867188 633.25 123.860351562 650 100 650 c 0
 69.658203125 650 43.8115234375 622.322265625 51.189453125 589.122070312 c 2
 184.522460938 -10.8779296875 l 2
 189.494140625 -33.25 209.47265625 -50 233.333007812 -50 c 0
 257.193359375 -50 277.171875 -33.2509765625 282.143554688 -10.8779296875 c 2
 366.666992188 369.47265625 l 1
 451.189453125 -10.8779296875 l 2
 456.161132812 -33.25 476.139648438 -50 500 -50 c 0
EndSplineSet
EndChar

StartChar: nv_p.6
Encoding: 168 -1 21
Width: 1000
Flags: H
AnchorPoint: "MarkBaseSet" 0 0 basechar 0
LayerCount: 2
Fore
SplineSet
750 450 m 1
 250 450 l 1
 250 700 l 2
 250 727.595703125 227.595703125 750 200 750 c 0
 172.404296875 750 150 727.595703125 150 700 c 2
 150 400 l 2
 150 372.404296875 172.404296875 350 200 350 c 2
 800 350 l 2
 827.595703125 350 850 372.404296875 850 400 c 2
 850 700 l 2
 850 727.595703125 827.595703125 750 800 750 c 0
 772.404296875 750 750 727.595703125 750 700 c 2
 750 450 l 1
EndSplineSet
EndChar

StartChar: nv_p.7
Encoding: 169 -1 22
Width: 0
Flags: HW
AnchorPoint: "MarkBaseSet" 0 0 mark 0
LayerCount: 2
Fore
SplineSet
750 -50 m 1
 250 -50 l 1
 250 100 l 2
 250 127.595703125 227.595703125 150 200 150 c 0
 172.404296875 150 150 127.595703125 150 100 c 2
 150 -100 l 2
 150 -127.595703125 172.404296875 -150 200 -150 c 2
 800 -150 l 2
 827.595703125 -150 850 -127.595703125 850 -100 c 2
 850 100 l 2
 850 127.595703125 827.595703125 150 800 150 c 0
 772.404296875 150 750 127.595703125 750 100 c 2
 750 -50 l 1
EndSplineSet
EndChar

StartChar: nv_p.8
Encoding: 170 -1 23
Width: 0
Flags: HW
AnchorPoint: "MarkBaseSet" 0 0 mark 0
LayerCount: 2
Fore
SplineSet
750 -50 m 1
 250 -50 l 1
 250 200 l 2
 250 227.595703125 227.595703125 250 200 250 c 0
 172.404296875 250 150 227.595703125 150 200 c 2
 150 -100 l 2
 150 -127.595703125 172.404296875 -150 200 -150 c 2
 800 -150 l 2
 827.595703125 -150 850 -127.595703125 850 -100 c 2
 850 200 l 2
 850 227.595703125 827.595703125 250 800 250 c 0
 772.404296875 250 750 227.595703125 750 200 c 2
 750 -50 l 1
EndSplineSet
EndChar

StartChar: pa_p
Encoding: 171 -1 24
Width: 1000
Flags: H
LayerCount: 2
Fore
SplineSet
500 600 m 1
 500 0 l 1025
200 600 m 1
 200 0 l 1
 800 0 l 1
 800 600 l 1025
500 650 m 0
 472.404296875 650 450 627.595703125 450 600 c 2
 450 50 l 1
 250 50 l 1
 250 600 l 2
 250 627.595703125 227.595703125 650 200 650 c 0
 172.404296875 650 150 627.595703125 150 600 c 2
 150 -1.11022302463e-14 l 2
 150 -27.595703125 172.404296875 -50 200 -50 c 2
 800 -50 l 2
 827.595703125 -50 850 -27.595703125 850 0 c 2
 850 600 l 2
 850 627.595703125 827.595703125 650 800 650 c 0
 772.404296875 650 750 627.595703125 750 600 c 2
 750 50 l 1
 550 50 l 1
 550 600 l 2
 550 627.595703125 527.595703125 650 500 650 c 0
100 750 m 2
 900 750 l 2
 927.594726562 749.997070312 949.997070312 727.594726562 950 700 c 2
 950 -100 l 2
 949.997070312 -127.594726562 927.594726562 -149.997070312 900 -150 c 2
 100 -150 l 2
 72.4052734375 -149.997070312 50.0029296875 -127.594726562 50 -100 c 2
 50 700 l 2
 50.0029296875 727.594726562 72.4052734375 750 100 750 c 2
EndSplineSet
Substitution2: "Single Substitution lookup 38 subtable" pa_p.3
Substitution2: "Single Substitution lookup 34 subtable" pa_p.1
Substitution2: "Single Substitution lookup 30 subtable" pa_p.3
Substitution2: "Single Substitution lookup 26 subtable" pa_p.2
Substitution2: "Single Substitution lookup 24 subtable" pa_p.7
Substitution2: "Single Substitution lookup 20 subtable" pa_p.5
Substitution2: "Single Substitution lookup 18 subtable" pa_p.8
Substitution2: "Single Substitution lookup 14 subtable" pa_p.6
Substitution2: "Single Substitution lookup 12 subtable" pa_p.7
Substitution2: "Single Substitution lookup 8 subtable" pa_p.4
Substitution2: "Single Substitution lookup 6 subtable" pa_p.7
Substitution2: "Single Substitution lookup 2 subtable" pa_p.5
EndChar

StartChar: pa_p.1
Encoding: 172 -1 25
Width: 1000
Flags: H
LayerCount: 2
Fore
SplineSet
550 600 m 2
 550 627.595703125 527.595703125 650 500 650 c 0
 472.404296875 650 450 627.595703125 450 600 c 2
 450 50 l 1
 250 50 l 1
 250 600 l 2
 250 627.595703125 227.595703125 650 200 650 c 0
 172.404296875 650 150 627.595703125 150 600 c 2
 150 0 l 2
 150 -27.595703125 172.404296875 -50 200 -50 c 2
 500 -50 l 1
 800 -50 l 2
 827.595703125 -50 850 -27.595703125 850 0 c 2
 850 600 l 2
 850 627.595703125 827.595703125 650 800 650 c 0
 772.404296875 650 750 627.595703125 750 600 c 2
 750 50 l 1
 550 50 l 1
 550 600 l 2
EndSplineSet
EndChar

StartChar: pa_p.2
Encoding: 173 -1 26
Width: 1000
Flags: H
AnchorPoint: "MarkBaseSet" 0 0 basechar 0
LayerCount: 2
Fore
SplineSet
350 600 m 2
 350 627.595703125 327.595703125 650 300 650 c 0
 272.404296875 650 250 627.595703125 250 600 c 2
 250 50 l 1
 150 50 l 1
 150 600 l 2
 150 627.595703125 127.595703125 650 100 650 c 0
 72.404296875 650 50 627.595703125 50 600 c 2
 50 0 l 2
 50 -27.595703125 72.404296875 -50 100 -50 c 2
 300 -50 l 1
 500 -50 l 2
 527.595703125 -50 550 -27.595703125 550 0 c 2
 550 600 l 2
 550 627.595703125 527.595703125 650 500 650 c 0
 472.404296875 650 450 627.595703125 450 600 c 2
 450 50 l 1
 350 50 l 1
 350 600 l 2
EndSplineSet
EndChar

StartChar: pa_p.3
Encoding: 174 -1 27
Width: 1000
Flags: H
AnchorPoint: "MarkBaseSet" 0 0 basechar 0
LayerCount: 2
Fore
SplineSet
550 700 m 2
 550 727.595703125 527.595703125 750 500 750 c 0
 472.404296875 750 450 727.595703125 450 700 c 2
 450 350 l 1
 250 350 l 1
 250 700 l 2
 250 727.595703125 227.595703125 750 200 750 c 0
 172.404296875 750 150 727.595703125 150 700 c 2
 150 300 l 2
 150 272.404296875 172.404296875 250 200 250 c 2
 500 250 l 1
 800 250 l 2
 827.595703125 250 850 272.404296875 850 300 c 2
 850 700 l 2
 850 727.595703125 827.595703125 750 800 750 c 0
 772.404296875 750 750 727.595703125 750 700 c 2
 750 350 l 1
 550 350 l 1
 550 700 l 2
EndSplineSet
EndChar

StartChar: pa_p.4
Encoding: 175 -1 28
Width: 1000
Flags: H
AnchorPoint: "MarkBaseSet" 0 0 basechar 0
LayerCount: 2
Fore
SplineSet
350 700 m 2
 350 727.595703125 327.595703125 750 300 750 c 0
 272.404296875 750 250 727.595703125 250 700 c 2
 250 350 l 1
 150 350 l 1
 150 700 l 2
 150 727.595703125 127.595703125 750 100 750 c 0
 72.404296875 750 50 727.595703125 50 700 c 2
 50 300 l 2
 50 272.404296875 72.404296875 250 100 250 c 2
 300 250 l 1
 500 250 l 2
 527.595703125 250 550 272.404296875 550 300 c 2
 550 700 l 2
 550 727.595703125 527.595703125 750 500 750 c 0
 472.404296875 750 450 727.595703125 450 700 c 2
 450 350 l 1
 350 350 l 1
 350 700 l 2
EndSplineSet
EndChar

StartChar: pa_p.5
Encoding: 176 -1 29
Width: 1000
Flags: H
AnchorPoint: "MarkBaseSet" 0 0 basechar 0
LayerCount: 2
Fore
SplineSet
550 700 m 2
 550 727.595703125 527.595703125 750 500 750 c 0
 472.404296875 750 450 727.595703125 450 700 c 2
 450 550 l 1
 250 550 l 1
 250 700 l 2
 250 727.595703125 227.595703125 750 200 750 c 0
 172.404296875 750 150 727.595703125 150 700 c 2
 150 500 l 2
 150 472.404296875 172.404296875 450 200 450 c 2
 500 450 l 1
 800 450 l 2
 827.595703125 450 850 472.404296875 850 500 c 2
 850 700 l 2
 850 727.595703125 827.595703125 750 800 750 c 0
 772.404296875 750 750 727.595703125 750 700 c 2
 750 550 l 1
 550 550 l 1
 550 700 l 2
EndSplineSet
EndChar

StartChar: pa_p.6
Encoding: 177 -1 30
Width: 1000
Flags: H
AnchorPoint: "MarkBaseSet" 0 0 basechar 0
LayerCount: 2
Fore
SplineSet
550 700 m 2
 550 727.595703125 527.595703125 750 500 750 c 0
 472.404296875 750 450 727.595703125 450 700 c 2
 450 450 l 1
 250 450 l 1
 250 700 l 2
 250 727.595703125 227.595703125 750 200 750 c 0
 172.404296875 750 150 727.595703125 150 700 c 2
 150 400 l 2
 150 372.404296875 172.404296875 350 200 350 c 2
 500 350 l 1
 800 350 l 2
 827.595703125 350 850 372.404296875 850 400 c 2
 850 700 l 2
 850 727.595703125 827.595703125 750 800 750 c 0
 772.404296875 750 750 727.595703125 750 700 c 2
 750 450 l 1
 550 450 l 1
 550 700 l 2
EndSplineSet
EndChar

StartChar: pa_p.7
Encoding: 178 -1 31
Width: 0
Flags: HW
AnchorPoint: "MarkBaseSet" 0 0 mark 0
LayerCount: 2
Fore
SplineSet
550 100 m 2
 550 127.595703125 527.595703125 150 500 150 c 0
 472.404296875 150 450 127.595703125 450 100 c 2
 450 -50 l 1
 250 -50 l 1
 250 100 l 2
 250 127.595703125 227.595703125 150 200 150 c 0
 172.404296875 150 150 127.595703125 150 100 c 2
 150 -100 l 2
 150 -127.595703125 172.404296875 -150 200 -150 c 2
 500 -150 l 1
 800 -150 l 2
 827.595703125 -150 850 -127.595703125 850 -100 c 2
 850 100 l 2
 850 127.595703125 827.595703125 150 800 150 c 0
 772.404296875 150 750 127.595703125 750 100 c 2
 750 -50 l 1
 550 -50 l 1
 550 100 l 2
EndSplineSet
EndChar

StartChar: pa_p.8
Encoding: 179 -1 32
Width: 0
Flags: HW
AnchorPoint: "MarkBaseSet" 0 0 mark 0
LayerCount: 2
Fore
SplineSet
550 200 m 2
 550 227.595703125 527.595703125 250 500 250 c 0
 472.404296875 250 450 227.595703125 450 200 c 2
 450 -50 l 1
 250 -50 l 1
 250 200 l 2
 250 227.595703125 227.595703125 250 200 250 c 0
 172.404296875 250 150 227.595703125 150 200 c 2
 150 -100 l 2
 150 -127.595703125 172.404296875 -150 200 -150 c 2
 500 -150 l 1
 800 -150 l 2
 827.595703125 -150 850 -127.595703125 850 -100 c 2
 850 200 l 2
 850 227.595703125 827.595703125 250 800 250 c 0
 772.404296875 250 750 227.595703125 750 200 c 2
 750 -50 l 1
 550 -50 l 1
 550 200 l 2
EndSplineSet
EndChar

StartChar: nsfu_p.3
Encoding: 21 -1 33
Width: 1000
Flags: H
AnchorPoint: "MarkBaseSet" 0 0 basechar 0
LayerCount: 2
Fore
SplineSet
800 250 m 0
 827.595703125 250 850 272.404296875 850 300 c 0
 850 308.015625 848.109375 315.59375 844.75 322.3125 c 2
 644.75 722.3125 l 2
 636.545898438 738.720703125 619.580078125 750 600 750 c 0
 580.419921875 750 563.454101562 738.720703125 555.25 722.3125 c 2
 400 411.8125 l 1
 244.75 722.3125 l 2
 236.545898438 738.720703125 219.580078125 750 200 750 c 0
 172.404296875 750 150 727.595703125 150 700 c 0
 150 691.984375 151.890625 684.40625 155.25 677.6875 c 2
 355.25 277.6875 l 2
 363.454101562 261.279296875 380.419921875 250 400 250 c 0
 419.580078125 250 436.545898438 261.279296875 444.75 277.6875 c 2
 600 588.1875 l 1
 755.25 277.6875 l 2
 763.454101562 261.279296875 780.419921875 250 800 250 c 0
EndSplineSet
EndChar

StartChar: nsfu_p.4
Encoding: 22 -1 34
Width: 1000
Flags: H
AnchorPoint: "MarkBaseSet" 0 0 basechar 0
LayerCount: 2
Fore
SplineSet
500 250 m 0
 532.069335938 250 558.919921875 281.384765625 547.447265625 315.802734375 c 2
 414.114257812 715.802734375 l 2
 407.494140625 735.6640625 388.741210938 750 366.666992188 750 c 0
 344.592773438 750 325.840820312 735.6640625 319.219726562 715.802734375 c 2
 233.333007812 458.14453125 l 1
 147.447265625 715.802734375 l 2
 140.827148438 735.6640625 122.07421875 750 100 750 c 0
 67.9306640625 750 41.080078125 718.615234375 52.552734375 684.197265625 c 2
 185.885742188 284.197265625 l 2
 192.505859375 264.3359375 211.258789062 250 233.333007812 250 c 0
 255.407226562 250 274.159179688 264.3359375 280.780273438 284.197265625 c 2
 366.666992188 541.85546875 l 1
 452.552734375 284.197265625 l 2
 459.172851562 264.3359375 477.92578125 250 500 250 c 0
EndSplineSet
EndChar

StartChar: nsfu_p.5
Encoding: 23 -1 35
Width: 1000
Flags: H
AnchorPoint: "MarkBaseSet" 0 0 basechar 0
LayerCount: 2
Fore
SplineSet
800 450 m 0
 827.595703125 450 850 472.404296875 850 500 c 0
 850 513.797851562 844.399414062 526.297851562 835.348632812 535.348632812 c 2
 635.348632812 735.348632812 l 2
 626.297851562 744.399414062 613.797851562 750 600 750 c 0
 586.202148438 750 573.702148438 744.399414062 564.651367188 735.348632812 c 2
 400 570.697265625 l 1
 235.348632812 735.348632812 l 2
 226.297851562 744.399414062 213.797851562 750 200 750 c 0
 172.404296875 750 150 727.595703125 150 700 c 0
 150 686.202148438 155.600585938 673.702148438 164.651367188 664.651367188 c 2
 364.651367188 464.651367188 l 2
 373.702148438 455.600585938 386.202148438 450 400 450 c 0
 413.797851562 450 426.297851562 455.600585938 435.348632812 464.651367188 c 2
 600 629.302734375 l 1
 764.651367188 464.651367188 l 2
 773.702148438 455.600585938 786.202148438 450 800 450 c 0
EndSplineSet
EndChar

StartChar: nsfu_p.6
Encoding: 24 -1 36
Width: 1000
Flags: H
AnchorPoint: "MarkBaseSet" 0 0 basechar 0
LayerCount: 2
Fore
SplineSet
800 350 m 0
 827.595703125 350 850 372.404296875 850 400 c 0
 850 410.235351562 846.91796875 419.755859375 841.631835938 427.684570312 c 2
 641.631835938 727.684570312 l 2
 632.666992188 741.1328125 617.360351562 750 600 750 c 0
 582.639648438 750 567.333007812 741.1328125 558.368164062 727.684570312 c 2
 400 490.1328125 l 1
 241.631835938 727.684570312 l 2
 232.666992188 741.1328125 217.360351562 750 200 750 c 0
 172.404296875 750 150 727.595703125 150 700 c 0
 150 689.764648438 153.08203125 680.244140625 158.368164062 672.315429688 c 2
 358.368164062 372.315429688 l 2
 367.333007812 358.8671875 382.639648438 350 400 350 c 0
 417.360351562 350 432.666992188 358.8671875 441.631835938 372.315429688 c 2
 600 609.8671875 l 1
 758.368164062 372.315429688 l 2
 767.333007812 358.8671875 782.639648438 350 800 350 c 0
EndSplineSet
EndChar

StartChar: nsfu_p.7
Encoding: 25 -1 37
Width: 0
Flags: HW
AnchorPoint: "MarkBaseSet" 0 0 mark 0
LayerCount: 2
Fore
SplineSet
800 -150 m 0
 827.595703125 -150 850 -127.595703125 850 -100 c 0
 850 -86.2021484375 844.399414062 -73.7021484375 835.348632812 -64.6513671875 c 2
 635.348632812 135.348632812 l 2
 626.297851562 144.399414062 613.797851562 150 600 150 c 0
 586.202148438 150 573.702148438 144.399414062 564.651367188 135.348632812 c 2
 400 -29.302734375 l 1
 235.348632812 135.348632812 l 2
 226.297851562 144.399414062 213.797851562 150 200 150 c 0
 172.404296875 150 150 127.595703125 150 100 c 0
 150 86.2021484375 155.600585938 73.7021484375 164.651367188 64.6513671875 c 2
 364.651367188 -135.348632812 l 2
 373.702148438 -144.399414062 386.202148438 -150 400 -150 c 0
 413.797851562 -150 426.297851562 -144.399414062 435.348632812 -135.348632812 c 2
 600 29.302734375 l 1
 764.651367188 -135.348632812 l 2
 773.702148438 -144.399414062 786.202148438 -150 800 -150 c 0
EndSplineSet
EndChar

StartChar: nsfu_p.8
Encoding: 26 -1 38
Width: 0
Flags: HW
AnchorPoint: "MarkBaseSet" 0 0 mark 0
LayerCount: 2
Fore
SplineSet
800 -150 m 0
 827.595703125 -150 850 -127.595703125 850 -100 c 0
 850 -89.7646484375 846.91796875 -80.244140625 841.631835938 -72.3154296875 c 2
 641.631835938 227.684570312 l 2
 632.666992188 241.1328125 617.360351562 250 600 250 c 0
 582.639648438 250 567.333007812 241.1328125 558.368164062 227.684570312 c 2
 400 -9.8671875 l 1
 241.631835938 227.684570312 l 2
 232.666992188 241.1328125 217.360351562 250 200 250 c 0
 172.404296875 250 150 227.595703125 150 200 c 0
 150 189.764648438 153.08203125 180.244140625 158.368164062 172.315429688 c 2
 358.368164062 -127.684570312 l 2
 367.333007812 -141.1328125 382.639648438 -150 400 -150 c 0
 417.360351562 -150 432.666992188 -141.1328125 441.631835938 -127.684570312 c 2
 600 109.8671875 l 1
 758.368164062 -127.684570312 l 2
 767.333007812 -141.1328125 782.639648438 -150 800 -150 c 0
EndSplineSet
EndChar

StartChar: nsfu_v
Encoding: 27 -1 39
Width: 1000
Flags: H
LayerCount: 2
Fore
SplineSet
800 650 m 0
 777.92578125 650 759.172851562 635.6640625 752.552734375 615.802734375 c 2
 600 158.14453125 l 1
 447.447265625 615.802734375 l 2
 440.827148438 635.6640625 422.07421875 650 400 650 c 0
 377.92578125 650 359.172851562 635.6640625 352.552734375 615.802734375 c 2
 152.552734375 15.802734375 l 2
 151.143765626 11.5755881209 150.313321543 7.3936844982 150 3.30973648128 c 2
 150 -4.17466797998 l 2
 151.990319705 -29.8624503659 174.320944629 -50 200 -50 c 0
 222.07421875 -50 240.827148438 -35.6640625 247.447265625 -15.802734375 c 2
 400 441.85546875 l 1
 552.552734375 -15.802734375 l 2
 559.172851562 -35.6640625 577.92578125 -50 600 -50 c 0
 622.07421875 -50 640.827148438 -35.6640625 647.447265625 -15.802734375 c 2
 847.447265625 584.197265625 l 2
 848.856234374 588.424411879 849.686678457 592.606315502 850 596.690263519 c 2
 850 604.17466798 l 2
 848.009680295 629.862450366 825.679055371 650 800 650 c 0
100 750 m 2
 900 750 l 2
 927.594726562 749.997070312 949.997070312 727.594726562 950 700 c 2
 950 -100 l 2
 949.997070312 -127.59375 927.594726562 -149.997070312 900 -150 c 2
 100 -150 l 2
 72.4052734375 -149.997070312 50.0029296875 -127.59375 50 -100 c 2
 50 700 l 2
 50.0029296875 727.594726562 72.4052734375 750 100 750 c 2
EndSplineSet
Substitution2: "Single Substitution lookup 38 subtable" nsfu_v.3
Substitution2: "Single Substitution lookup 34 subtable" nsfu_v.1
Substitution2: "Single Substitution lookup 30 subtable" nsfu_v.3
Substitution2: "Single Substitution lookup 26 subtable" nsfu_v.2
Substitution2: "Single Substitution lookup 24 subtable" nsfu_v.7
Substitution2: "Single Substitution lookup 20 subtable" nsfu_v.5
Substitution2: "Single Substitution lookup 18 subtable" nsfu_v.8
Substitution2: "Single Substitution lookup 14 subtable" nsfu_v.6
Substitution2: "Single Substitution lookup 12 subtable" nsfu_v.7
Substitution2: "Single Substitution lookup 8 subtable" nsfu_v.4
Substitution2: "Single Substitution lookup 6 subtable" nsfu_v.7
Substitution2: "Single Substitution lookup 2 subtable" nsfu_v.5
EndChar

StartChar: nsfu_v.1
Encoding: 28 -1 40
Width: 1000
Flags: H
LayerCount: 2
Fore
SplineSet
152.552734375 15.802734375 m 2
 141.086914062 -18.5966796875 167.932617188 -50 200 -50 c 0
 222.07421875 -50 240.827148438 -35.6640625 247.447265625 -15.802734375 c 2
 400 441.85546875 l 1
 552.552734375 -15.802734375 l 2
 559.172851562 -35.6640625 577.92578125 -50 600 -50 c 0
 622.07421875 -50 640.827148438 -35.6640625 647.447265625 -15.802734375 c 2
 847.447265625 584.197265625 l 2
 858.913085938 618.596679688 832.067382812 650 800 650 c 0
 777.92578125 650 759.172851562 635.6640625 752.552734375 615.802734375 c 2
 600 158.14453125 l 1
 447.447265625 615.802734375 l 2
 440.827148438 635.6640625 422.07421875 650 400 650 c 0
 377.92578125 650 359.172851562 635.6640625 352.552734375 615.802734375 c 2
 152.552734375 15.802734375 l 2
EndSplineSet
EndChar

StartChar: nsfu_v.2
Encoding: 29 -1 41
Width: 1000
Flags: H
AnchorPoint: "MarkBaseSet" 0 0 basechar 0
LayerCount: 2
Fore
SplineSet
51.189453125 10.8779296875 m 2
 43.810546875 -22.326171875 69.6640625 -50 100 -50 c 0
 123.860351562 -50 143.838867188 -33.25 148.810546875 -10.8779296875 c 2
 233.333007812 369.47265625 l 1
 317.856445312 -10.8779296875 l 2
 322.828125 -33.2509765625 342.806640625 -50 366.666992188 -50 c 0
 390.52734375 -50 410.505859375 -33.25 415.477539062 -10.8779296875 c 2
 548.810546875 589.122070312 l 2
 556.189453125 622.326171875 530.3359375 650 500 650 c 0
 476.139648438 650 456.161132812 633.25 451.189453125 610.877929688 c 2
 366.666992188 230.52734375 l 1
 282.143554688 610.877929688 l 2
 277.171875 633.250976562 257.193359375 650 233.333007812 650 c 0
 209.47265625 650 189.494140625 633.25 184.522460938 610.877929688 c 2
 51.189453125 10.8779296875 l 2
EndSplineSet
EndChar

StartChar: nsfu_v.3
Encoding: 30 -1 42
Width: 1000
Flags: H
AnchorPoint: "MarkBaseSet" 0 0 basechar 0
LayerCount: 2
Fore
SplineSet
150 300 m 0
 150 272.404296875 172.404296875 250 200 250 c 0
 219.580078125 250 236.545898438 261.279296875 244.75 277.6875 c 2
 400 588.1875 l 1
 555.25 277.6875 l 2
 563.454101562 261.279296875 580.419921875 250 600 250 c 0
 619.580078125 250 636.545898438 261.279296875 644.75 277.6875 c 2
 844.75 677.6875 l 2
 848.109375 684.40625 850 691.984375 850 700 c 0
 850 727.595703125 827.595703125 750 800 750 c 0
 780.419921875 750 763.454101562 738.720703125 755.25 722.3125 c 2
 600 411.8125 l 1
 444.75 722.3125 l 2
 436.545898438 738.720703125 419.580078125 750 400 750 c 0
 380.419921875 750 363.454101562 738.720703125 355.25 722.3125 c 2
 155.25 322.3125 l 2
 151.890625 315.59375 150 308.015625 150 300 c 0
EndSplineSet
EndChar

StartChar: nsfu_v.4
Encoding: 31 -1 43
Width: 1000
Flags: H
AnchorPoint: "MarkBaseSet" 0 0 basechar 0
LayerCount: 2
Fore
SplineSet
52.552734375 315.802734375 m 2
 41.0869140625 281.403320312 67.9326171875 250 100 250 c 0
 122.07421875 250 140.827148438 264.3359375 147.447265625 284.197265625 c 2
 233.333007812 541.85546875 l 1
 319.219726562 284.197265625 l 2
 325.840820312 264.3359375 344.592773438 250 366.666992188 250 c 0
 388.741210938 250 407.494140625 264.3359375 414.114257812 284.197265625 c 2
 547.447265625 684.197265625 l 2
 558.913085938 718.596679688 532.067382812 750 500 750 c 0
 477.92578125 750 459.172851562 735.6640625 452.552734375 715.802734375 c 2
 366.666992188 458.14453125 l 1
 280.780273438 715.802734375 l 2
 274.159179688 735.6640625 255.407226562 750 233.333007812 750 c 0
 211.258789062 750 192.505859375 735.6640625 185.885742188 715.802734375 c 2
 52.552734375 315.802734375 l 2
EndSplineSet
EndChar

StartChar: nsfu_v.5
Encoding: 32 -1 44
Width: 1000
Flags: H
AnchorPoint: "MarkBaseSet" 0 0 basechar 0
LayerCount: 2
Fore
SplineSet
150 500 m 0
 150 472.404296875 172.404296875 450 200 450 c 0
 213.797851562 450 226.297851562 455.600585938 235.348632812 464.651367188 c 2
 400 629.302734375 l 1
 564.651367188 464.651367188 l 2
 573.702148438 455.600585938 586.202148438 450 600 450 c 0
 613.797851562 450 626.297851562 455.600585938 635.348632812 464.651367188 c 2
 835.348632812 664.651367188 l 2
 844.399414062 673.702148438 850 686.202148438 850 700 c 0
 850 727.595703125 827.595703125 750 800 750 c 0
 786.202148438 750 773.702148438 744.399414062 764.651367188 735.348632812 c 2
 600 570.697265625 l 1
 435.348632812 735.348632812 l 2
 426.297851562 744.399414062 413.797851562 750 400 750 c 0
 386.202148438 750 373.702148438 744.399414062 364.651367188 735.348632812 c 2
 164.651367188 535.348632812 l 2
 155.600585938 526.297851562 150 513.797851562 150 500 c 0
EndSplineSet
EndChar

StartChar: nsfu_v.6
Encoding: 33 -1 45
Width: 1000
Flags: H
AnchorPoint: "MarkBaseSet" 0 0 basechar 0
LayerCount: 2
Fore
SplineSet
150 400 m 0
 150 372.404296875 172.404296875 350 200 350 c 0
 217.360351562 350 232.666992188 358.8671875 241.631835938 372.315429688 c 2
 400 609.8671875 l 1
 558.368164062 372.315429688 l 2
 567.333007812 358.8671875 582.639648438 350 600 350 c 0
 617.360351562 350 632.666992188 358.8671875 641.631835938 372.315429688 c 2
 841.631835938 672.315429688 l 2
 846.91796875 680.244140625 850 689.764648438 850 700 c 0
 850 727.595703125 827.595703125 750 800 750 c 0
 782.639648438 750 767.333007812 741.1328125 758.368164062 727.684570312 c 2
 600 490.1328125 l 1
 441.631835938 727.684570312 l 2
 432.666992188 741.1328125 417.360351562 750 400 750 c 0
 382.639648438 750 367.333007812 741.1328125 358.368164062 727.684570312 c 2
 158.368164062 427.684570312 l 2
 153.08203125 419.755859375 150 410.235351562 150 400 c 0
EndSplineSet
EndChar

StartChar: nsfu_v.7
Encoding: 34 -1 46
Width: 0
Flags: HW
AnchorPoint: "MarkBaseSet" 0 0 mark 0
LayerCount: 2
Fore
SplineSet
150 -100 m 0
 150 -127.595703125 172.404296875 -150 200 -150 c 0
 213.797851562 -150 226.297851562 -144.399414062 235.348632812 -135.348632812 c 2
 400 29.302734375 l 1
 564.651367188 -135.348632812 l 2
 573.702148438 -144.399414062 586.202148438 -150 600 -150 c 0
 613.797851562 -150 626.297851562 -144.399414062 635.348632812 -135.348632812 c 2
 835.348632812 64.6513671875 l 2
 844.399414062 73.7021484375 850 86.2021484375 850 100 c 0
 850 127.595703125 827.595703125 150 800 150 c 0
 786.202148438 150 773.702148438 144.399414062 764.651367188 135.348632812 c 2
 600 -29.302734375 l 1
 435.348632812 135.348632812 l 2
 426.297851562 144.399414062 413.797851562 150 400 150 c 0
 386.202148438 150 373.702148438 144.399414062 364.651367188 135.348632812 c 2
 164.651367188 -64.6513671875 l 2
 155.600585938 -73.7021484375 150 -86.2021484375 150 -100 c 0
EndSplineSet
EndChar

StartChar: nsfu_v.8
Encoding: 35 -1 47
Width: 0
Flags: HW
AnchorPoint: "MarkBaseSet" 0 0 mark 0
LayerCount: 2
Fore
SplineSet
150 -100 m 0
 150 -127.595703125 172.404296875 -150 200 -150 c 0
 217.360351562 -150 232.666992188 -141.1328125 241.631835938 -127.684570312 c 2
 400 109.8671875 l 1
 558.368164062 -127.684570312 l 2
 567.333007812 -141.1328125 582.639648438 -150 600 -150 c 0
 617.360351562 -150 632.666992188 -141.1328125 641.631835938 -127.684570312 c 2
 841.631835938 172.315429688 l 2
 846.91796875 180.244140625 850 189.764648438 850 200 c 0
 850 227.595703125 827.595703125 250 800 250 c 0
 782.639648438 250 767.333007812 241.1328125 758.368164062 227.684570312 c 2
 600 -9.8671875 l 1
 441.631835938 227.684570312 l 2
 432.666992188 241.1328125 417.360351562 250 400 250 c 0
 382.639648438 250 367.333007812 241.1328125 358.368164062 227.684570312 c 2
 158.368164062 -72.3154296875 l 2
 153.08203125 -80.244140625 150 -89.7646484375 150 -100 c 0
EndSplineSet
EndChar

StartChar: sfu_p
Encoding: 36 -1 48
Width: 1000
Flags: H
LayerCount: 2
Fore
SplineSet
800 650 m 0
 780.419921875 650 763.454101562 638.721679688 755.249023438 622.3125 c 2
 500 111.813476562 l 1
 244.750976562 622.3125 l 2
 236.545898438 638.721679688 219.580078125 650 200 650 c 0
 172.404296875 650 150 627.595703125 150 600 c 0
 150 591.984375 151.890625 584.40625 155.249023438 577.6875 c 2
 419.09375 50 l 1
 200 50 l 2
 172.404296875 50 150 27.595703125 150 -1.11022302463e-14 c 0
 150 -27.595703125 172.404296875 -50 200 -50 c 2
 800 -50 l 2
 827.595703125 -50 850 -27.595703125 850 -1.38777878078e-15 c 0
 850 27.595703125 827.595703125 50 800 50 c 2
 580.90625 50 l 1
 844.750976562 577.6875 l 2
 848.109375 584.40625 850 591.984375 850 600 c 0
 850 627.595703125 827.595703125 650 800 650 c 0
100 750 m 2
 900 750 l 2
 927.594726562 749.997070312 949.997070312 727.594726562 950 700 c 2
 950 -100 l 2
 949.997070312 -127.594726562 927.594726562 -149.997070312 900 -150 c 2
 100 -150 l 2
 72.4052734375 -149.997070312 50.0029296875 -127.594726562 50 -100 c 2
 50 700 l 2
 50.0029296875 727.594726562 72.4052734375 750 100 750 c 2
EndSplineSet
Substitution2: "Single Substitution lookup 38 subtable" sfu_p.3
Substitution2: "Single Substitution lookup 34 subtable" sfu_p.1
Substitution2: "Single Substitution lookup 30 subtable" sfu_p.3
Substitution2: "Single Substitution lookup 26 subtable" sfu_p.2
Substitution2: "Single Substitution lookup 24 subtable" sfu_p.7
Substitution2: "Single Substitution lookup 20 subtable" sfu_p.5
Substitution2: "Single Substitution lookup 18 subtable" sfu_p.8
Substitution2: "Single Substitution lookup 14 subtable" sfu_p.6
Substitution2: "Single Substitution lookup 12 subtable" sfu_p.7
Substitution2: "Single Substitution lookup 8 subtable" sfu_p.4
Substitution2: "Single Substitution lookup 6 subtable" sfu_p.7
Substitution2: "Single Substitution lookup 2 subtable" sfu_p.5
EndChar

StartChar: sfu_p.1
Encoding: 37 -1 49
Width: 1000
Flags: H
LayerCount: 2
Fore
SplineSet
200 650 m 0
 172.404296875 650 150 627.595703125 150 600 c 0
 150 591.984375 151.890625 584.40625 155.249023438 577.6875 c 2
 419.092773438 50 l 1
 200 50 l 2
 172.404296875 50 150 27.595703125 150 0 c 0
 150 -27.595703125 172.404296875 -50 200 -50 c 2
 500 -50 l 1
 800 -50 l 2
 827.595703125 -50 850 -27.595703125 850 0 c 0
 850 27.595703125 827.595703125 50 800 50 c 2
 580.907226562 50 l 1
 844.750976562 577.6875 l 2
 848.109375 584.40625 850 591.984375 850 600 c 0
 850 627.595703125 827.595703125 650 800 650 c 0
 780.419921875 650 763.454101562 638.721679688 755.249023438 622.3125 c 2
 500 111.813476562 l 1
 244.750976562 622.3125 l 2
 236.545898438 638.721679688 219.580078125 650 200 650 c 0
EndSplineSet
EndChar

StartChar: sfu_p.2
Encoding: 38 -1 50
Width: 1000
Flags: H
AnchorPoint: "MarkBaseSet" 0 0 basechar 0
LayerCount: 2
Fore
SplineSet
100 650 m 0
 67.931640625 650 41.080078125 618.615234375 52.552734375 584.197265625 c 2
 230.618489583 50 l 1
 100 50 l 2
 72.404296875 50 50 27.595703125 50 0 c 0
 50 -27.595703125 72.404296875 -50 100 -50 c 2
 300 -50 l 1
 500 -50 l 2
 527.595703125 -50 550 -27.595703125 550 0 c 0
 550 27.595703125 527.595703125 50 500 50 c 2
 369.381510417 50 l 1
 547.447265625 584.197265625 l 2
 558.913085938 618.596679688 532.067382812 650 500 650 c 0
 477.92578125 650 459.173828125 635.6640625 452.552734375 615.802734375 c 2
 300 158.143554688 l 1
 147.447265625 615.802734375 l 2
 140.826171875 635.6640625 122.07421875 650 100 650 c 0
EndSplineSet
EndChar

StartChar: sfu_p.3
Encoding: 39 -1 51
Width: 1000
Flags: H
AnchorPoint: "MarkBaseSet" 0 0 basechar 0
LayerCount: 2
Fore
SplineSet
200 750 m 0
 172.404296875 750 150 727.595703125 150 700 c 0
 150 688.766601562 153.712890625 678.393554688 159.9765625 670.041992188 c 2
 400.008056641 350 l 1
 200 350 l 2
 172.404296875 350 150 327.595703125 150 300 c 0
 150 272.404296875 172.404296875 250 200 250 c 2
 500 250 l 1
 800 250 l 2
 827.595703125 250 850 272.404296875 850 300 c 0
 850 327.595703125 827.595703125 350 800 350 c 2
 599.991943359 350 l 1
 840.0234375 670.041992188 l 2
 846.287109375 678.393554688 850 688.766601562 850 700 c 0
 850 727.595703125 827.595703125 750 800 750 c 0
 783.637695312 750 769.100585938 742.123046875 759.9765625 729.958007812 c 2
 500 383.322265625 l 1
 240.0234375 729.958007812 l 2
 230.899414062 742.123046875 216.362304688 750 200 750 c 0
EndSplineSet
EndChar

StartChar: sfu_p.4
Encoding: 40 -1 52
Width: 1000
Flags: H
AnchorPoint: "MarkBaseSet" 0 0 basechar 0
LayerCount: 2
Fore
SplineSet
100 750 m 0
 72.404296875 750 50 727.595703125 50 700 c 0
 50 691.984375 51.890625 684.40625 55.25 677.6875 c 2
 219.09375 350 l 1
 100 350 l 2
 72.404296875 350 50 327.595703125 50 300 c 0
 50 272.404296875 72.404296875 250 100 250 c 2
 300 250 l 1
 500 250 l 2
 527.595703125 250 550 272.404296875 550 300 c 0
 550 327.595703125 527.595703125 350 500 350 c 2
 380.90625 350 l 1
 544.75 677.6875 l 2
 548.109375 684.40625 550 691.984375 550 700 c 0
 550 727.595703125 527.595703125 750 500 750 c 0
 480.419921875 750 463.454101562 738.720703125 455.25 722.3125 c 2
 300 411.8125 l 1
 144.75 722.3125 l 2
 136.545898438 738.720703125 119.580078125 750 100 750 c 0
EndSplineSet
EndChar

StartChar: sfu_p.5
Encoding: 41 -1 53
Width: 1000
Flags: H
AnchorPoint: "MarkBaseSet" 0 0 basechar 0
LayerCount: 2
Fore
SplineSet
200 750 m 0
 172.404296875 750 150 727.595703125 150 700 c 0
 150 682.639648438 158.8671875 667.333007812 172.315429688 658.3671875 c 2
 334.866210938 550 l 1
 200 550 l 2
 172.404296875 550 150 527.595703125 150 500 c 0
 150 472.404296875 172.404296875 450 200 450 c 2
 800 450 l 2
 827.595703125 450 850 472.404296875 850 500 c 0
 850 527.595703125 827.595703125 550 800 550 c 2
 665.133789062 550 l 1
 827.684570312 658.3671875 l 2
 841.1328125 667.333007812 850 682.639648438 850 700 c 0
 850 727.595703125 827.595703125 750 800 750 c 0
 789.764648438 750 780.244140625 746.91796875 772.315429688 741.6328125 c 2
 500 560.088867188 l 1
 227.684570312 741.6328125 l 2
 219.755859375 746.91796875 210.235351562 750 200 750 c 0
EndSplineSet
EndChar

StartChar: sfu_p.6
Encoding: 42 -1 54
Width: 1000
Flags: H
AnchorPoint: "MarkBaseSet" 0 0 basechar 0
LayerCount: 2
Fore
SplineSet
200 750 m 0
 172.404296875 750 150 727.595703125 150 700 c 0
 150 686.202148438 155.6015625 673.702148438 164.651367188 664.651367188 c 2
 379.302734376 450 l 1
 200 450 l 2
 172.404296875 450 150 427.595703125 150 400 c 0
 150 372.404296875 172.404296875 350 200 350 c 2
 500 350 l 1
 800 350 l 2
 827.595703125 350 850 372.404296875 850 400 c 0
 850 427.595703125 827.595703125 450 800 450 c 2
 620.697265624 450 l 1
 835.348632812 664.651367188 l 2
 844.3984375 673.702148438 850 686.202148438 850 700 c 0
 850 727.595703125 827.595703125 750 800 750 c 0
 786.202148438 750 773.702148438 744.3984375 764.651367188 735.348632812 c 2
 500 470.696289062 l 1
 235.348632812 735.348632812 l 2
 226.297851562 744.3984375 213.797851562 750 200 750 c 0
EndSplineSet
EndChar

StartChar: sfu_p.7
Encoding: 43 -1 55
Width: 0
Flags: HW
AnchorPoint: "MarkBaseSet" 0 0 mark 0
LayerCount: 2
Fore
SplineSet
200 150 m 0
 172.404296875 150 150 127.595703125 150 100 c 0
 150 82.6396484375 158.8671875 67.3330078125 172.315429688 58.3671875 c 2
 334.866210938 -50 l 1
 200 -50 l 2
 172.404296875 -50 150 -72.404296875 150 -100 c 0
 150 -127.595703125 172.404296875 -150 200 -150 c 2
 800 -150 l 2
 827.595703125 -150 850 -127.595703125 850 -100 c 0
 850 -72.404296875 827.595703125 -50 800 -50 c 2
 665.133789062 -50 l 1
 827.684570312 58.3671875 l 2
 841.1328125 67.3330078125 850 82.6396484375 850 100 c 0
 850 127.595703125 827.595703125 150 800 150 c 0
 789.764648438 150 780.244140625 146.91796875 772.315429688 141.6328125 c 2
 500 -39.9111328125 l 1
 227.684570312 141.6328125 l 2
 219.755859375 146.91796875 210.235351562 150 200 150 c 0
EndSplineSet
EndChar

StartChar: sfu_p.8
Encoding: 44 -1 56
Width: 0
Flags: HW
AnchorPoint: "MarkBaseSet" 0 0 mark 0
LayerCount: 2
Fore
SplineSet
200 250 m 0
 172.404296875 250 150 227.595703125 150 200 c 0
 150 186.202148438 155.6015625 173.702148438 164.651367188 164.651367188 c 2
 379.302734376 -50 l 1
 200 -50 l 2
 172.404296875 -50 150 -72.404296875 150 -100 c 0
 150 -127.595703125 172.404296875 -150 200 -150 c 2
 500 -150 l 1
 800 -150 l 2
 827.595703125 -150 850 -127.595703125 850 -100 c 0
 850 -72.404296875 827.595703125 -50 800 -50 c 2
 620.697265624 -50 l 1
 835.348632812 164.651367188 l 2
 844.3984375 173.702148438 850 186.202148438 850 200 c 0
 850 227.595703125 827.595703125 250 800 250 c 0
 786.202148438 250 773.702148438 244.3984375 764.651367188 235.348632812 c 2
 500 -29.3037109375 l 1
 235.348632812 235.348632812 l 2
 226.297851562 244.3984375 213.797851562 250 200 250 c 0
EndSplineSet
EndChar

StartChar: sfv_p
Encoding: 45 -1 57
Width: 1000
Flags: H
LayerCount: 2
Fore
SplineSet
800 650 m 0
 776.59375 650 756.921875 633.881835938 751.489257812 612.1484375 c 2
 650 206.193359375 l 1
 548.510742188 612.1484375 l 2
 543.078125 633.881835938 523.40625 650 500 650 c 0
 476.59375 650 456.921875 633.881835938 451.489257812 612.1484375 c 2
 350 206.193359375 l 1
 248.510742188 612.1484375 l 2
 243.078125 633.881835938 223.40625 650 200 650 c 0
 174.227103489 650 151.680831338 629.944032813 150 603.673306398 c 2
 150 597.353439226 l 2
 150.196436668 594.24628288 150.684056749 591.0720859 151.489257812 587.8515625 c 2
 285.951171875 50 l 1
 200 50 l 2
 172.404296875 50 150 27.595703125 150 -1.11022302463e-14 c 0
 150 -27.595703125 172.404296875 -50 200 -50 c 2
 800 -50 l 2
 827.595703125 -50 850 -27.595703125 850 -1.38777878078e-15 c 0
 850 27.595703125 827.595703125 50 800 50 c 2
 714.048828125 50 l 1
 848.510742188 587.8515625 l 2
 849.316330333 591.073821408 849.803931197 594.249734501 850 597.358545269 c 2
 850 603.662394168 l 2
 848.323020241 629.937445575 825.772154302 650 800 650 c 0
100 750 m 2
 900 750 l 2
 927.594726562 749.997070312 949.997070312 727.594726562 950 700 c 2
 950 -100 l 2
 949.997070312 -127.59375 927.594726562 -149.997070312 900 -150 c 2
 100 -150 l 2
 72.4052734375 -149.997070312 50.0029296875 -127.59375 50 -100 c 2
 50 700 l 2
 50.0029296875 727.594726562 72.4052734375 750 100 750 c 2
414.048828125 50 m 1
 500 393.806640625 l 1
 585.951171875 50 l 1
 414.048828125 50 l 1
EndSplineSet
Substitution2: "Single Substitution lookup 38 subtable" sfv_p.3
Substitution2: "Single Substitution lookup 34 subtable" sfv_p.1
Substitution2: "Single Substitution lookup 30 subtable" sfv_p.3
Substitution2: "Single Substitution lookup 26 subtable" sfv_p.2
Substitution2: "Single Substitution lookup 24 subtable" sfv_p.7
Substitution2: "Single Substitution lookup 20 subtable" sfv_p.5
Substitution2: "Single Substitution lookup 18 subtable" sfv_p.8
Substitution2: "Single Substitution lookup 14 subtable" sfv_p.6
Substitution2: "Single Substitution lookup 12 subtable" sfv_p.7
Substitution2: "Single Substitution lookup 8 subtable" sfv_p.4
Substitution2: "Single Substitution lookup 6 subtable" sfv_p.7
Substitution2: "Single Substitution lookup 2 subtable" sfv_p.5
EndChar

StartChar: sfv_p.1
Encoding: 46 -1 58
Width: 1000
Flags: H
LayerCount: 2
Fore
SplineSet
414.047926315 50 m 1
 500 393.806640625 l 1
 585.952073685 50 l 1
 414.047926315 50 l 1
200 50 m 2
 172.404296875 50 150 27.595703125 150 0 c 0
 150 -27.595703125 172.404296875 -50 200 -50 c 2
 350 -50 l 1
 650 -50 l 1
 800 -50 l 2
 827.595703125 -50 850 -27.595703125 850 0 c 0
 850 27.595703125 827.595703125 50 800 50 c 2
 714.047851563 50 l 1
 848.510742188 587.8515625 l 2
 856.909179688 621.444335938 830.747070312 650 800 650 c 0
 776.59375 650 756.921875 633.881835938 751.489257812 612.1484375 c 2
 650 206.193359375 l 1
 548.510742188 612.1484375 l 2
 543.078125 633.881835938 523.40625 650 500 650 c 0
 476.59375 650 456.921875 633.881835938 451.489257812 612.1484375 c 2
 350 206.193359375 l 1
 248.510742188 612.1484375 l 2
 243.078125 633.881835938 223.40625 650 200 650 c 0
 169.248046875 650 143.08984375 621.446289062 151.489257812 587.8515625 c 2
 285.952148437 50 l 1
 200 50 l 2
EndSplineSet
EndChar

StartChar: sfv_p.2
Encoding: 47 -1 59
Width: 1000
Flags: H
AnchorPoint: "MarkBaseSet" 0 0 basechar 0
LayerCount: 2
Fore
SplineSet
259.029296875 50 m 1
 300 295.82421875 l 1
 340.970703125 50 l 1
 259.029296875 50 l 1
100 50 m 2
 72.404296875 50 50 27.595703125 50 0 c 0
 50 -27.595703125 72.404296875 -50 100 -50 c 2
 500 -50 l 2
 527.595703125 -50 550 -27.595703125 550 0 c 0
 550 27.595703125 527.595703125 50 500 50 c 2
 459.029296875 50 l 1
 549.318359375 591.734375 l 2
 554.690429688 623.96875 529.560546875 650.000976562 500 650.000976562 c 0
 475.219726562 650.000976562 454.625976562 631.935546875 450.681640625 608.267578125 c 2
 400 304.177734375 l 1
 349.318359375 608.267578125 l 2
 345.374023438 631.935546875 324.780273438 650.000976562 300 650.000976562 c 0
 275.219726562 650.000976562 254.625976562 631.935546875 250.681640625 608.267578125 c 2
 200 304.177734375 l 1
 149.318359375 608.267578125 l 2
 145.374023438 631.935546875 124.780273438 650.000976562 100 650.000976562 c 0
 70.4326171875 650.000976562 45.310546875 623.958984375 50.681640625 591.734375 c 2
 140.970703125 50 l 1
 100 50 l 2
EndSplineSet
EndChar

StartChar: sfv_p.3
Encoding: 48 -1 60
Width: 1000
Flags: H
AnchorPoint: "MarkBaseSet" 0 0 basechar 0
LayerCount: 2
Fore
SplineSet
422.159025444 350 m 1
 500 557.575195312 l 1
 577.840974556 350 l 1
 422.159025444 350 l 1
200 350 m 2
 172.404296875 350 150 327.595703125 150 300 c 0
 150 272.404296875 172.404296875 250 200 250 c 2
 800 250 l 2
 827.595703125 250 850 272.404296875 850 300 c 0
 850 327.595703125 827.595703125 350 800 350 c 2
 722.158997376 350 l 1
 846.833984375 682.465820312 l 2
 859.821289062 717.09765625 832.770507812 750 800 750 c 0
 778.572265625 750 760.275390625 736.4921875 753.166015625 717.534179688 c 2
 650 442.42578125 l 1
 546.833984375 717.534179688 l 2
 539.724609375 736.4921875 521.427734375 750 500 750 c 0
 478.572265625 750 460.275390625 736.4921875 453.166015625 717.534179688 c 2
 350 442.42578125 l 1
 246.833984375 717.534179688 l 2
 239.724609375 736.4921875 221.427734375 750 200 750 c 0
 167.231445312 750 140.16796875 717.125976562 153.166015625 682.465820312 c 2
 277.841002624 350 l 1
 200 350 l 2
EndSplineSet
EndChar

StartChar: sfv_p.4
Encoding: 49 -1 61
Width: 1000
Flags: H
AnchorPoint: "MarkBaseSet" 0 0 basechar 0
LayerCount: 2
Fore
SplineSet
264.047828433 350 m 1
 300 493.806640625 l 1
 335.952171567 350 l 1
 264.047828433 350 l 1
100 350 m 2
 72.404296875 350 50 327.595703125 50 300 c 0
 50 272.404296875 72.404296875 250 100 250 c 2
 500 250 l 2
 527.595703125 250 550 272.404296875 550 300 c 0
 550 327.595703125 527.595703125 350 500 350 c 2
 464.047645354 350 l 1
 548.510742188 687.8515625 l 2
 556.909179688 721.444335938 530.747070312 750 500 750 c 0
 476.59375 750 456.921875 733.881835938 451.489257812 712.1484375 c 2
 400 506.194335938 l 1
 348.510742188 712.1484375 l 2
 343.078125 733.881835938 323.40625 750 300 750 c 0
 276.59375 750 256.921875 733.881835938 251.489257812 712.1484375 c 2
 200 506.194335938 l 1
 148.510742188 712.1484375 l 2
 143.078125 733.881835938 123.40625 750 100 750 c 0
 69.248046875 750 43.08984375 721.446289062 51.4892578125 687.8515625 c 2
 135.952354646 350 l 1
 100 350 l 2
EndSplineSet
EndChar

StartChar: sfv_p.5
Encoding: 50 -1 62
Width: 1000
Flags: H
AnchorPoint: "MarkBaseSet" 0 0 basechar 0
LayerCount: 2
Fore
SplineSet
449.991477188 550 m 1
 500 616.677734375 l 1
 550.008522812 550 l 1
 449.991477188 550 l 1
200 550 m 2
 172.404296875 550 150 527.595703125 150 500 c 0
 150 472.404296875 172.404296875 450 200 450 c 2
 800 450 l 2
 827.595703125 450 850 472.404296875 850 500 c 0
 850 527.595703125 827.595703125 550 800 550 c 2
 749.99150375 550 l 1
 840.0234375 670.041992188 l 2
 846.287109375 678.393554688 850 688.766601562 850 700 c 0
 850 727.595703125 827.595703125 750 800 750 c 0
 783.637695312 750 769.100585938 742.123046875 759.9765625 729.958007812 c 2
 650 583.323242188 l 1
 540.0234375 729.958007812 l 2
 530.899414062 742.123046875 516.362304688 750 500 750 c 0
 483.637695312 750 469.100585938 742.123046875 459.9765625 729.958007812 c 2
 350 583.323242188 l 1
 240.0234375 729.958007812 l 2
 230.899414062 742.123046875 216.362304688 750 200 750 c 0
 172.404296875 750 150 727.595703125 150 700 c 0
 150 688.766601562 153.712890625 678.393554688 159.9765625 670.041992188 c 2
 250.00849625 550 l 1
 200 550 l 2
EndSplineSet
EndChar

StartChar: sfv_p.6
Encoding: 51 -1 63
Width: 1000
Flags: H
AnchorPoint: "MarkBaseSet" 0 0 basechar 0
LayerCount: 2
Fore
SplineSet
430.905929455 450 m 1
 500 588.1875 l 1
 569.094070545 450 l 1
 430.905929455 450 l 1
200 450 m 2
 172.404296875 450 150 427.595703125 150 400 c 0
 150 372.404296875 172.404296875 350 200 350 c 2
 800 350 l 2
 827.595703125 350 850 372.404296875 850 400 c 0
 850 427.595703125 827.595703125 450 800 450 c 2
 730.905879414 450 l 1
 844.75 677.6875 l 2
 848.109375 684.40625 850 691.984375 850 700 c 0
 850 727.595703125 827.595703125 750 800 750 c 0
 780.419921875 750 763.454101562 738.721679688 755.25 722.3125 c 2
 650 511.813476562 l 1
 544.75 722.3125 l 2
 536.545898438 738.721679688 519.580078125 750 500 750 c 0
 480.419921875 750 463.454101562 738.721679688 455.25 722.3125 c 2
 350 511.813476562 l 1
 244.75 722.3125 l 2
 236.545898438 738.721679688 219.580078125 750 200 750 c 0
 172.404296875 750 150 727.595703125 150 700 c 0
 150 691.984375 151.890625 684.40625 155.25 677.6875 c 2
 269.094120586 450 l 1
 200 450 l 2
EndSplineSet
EndChar

StartChar: sfv_p.7
Encoding: 52 -1 64
Width: 0
Flags: HW
AnchorPoint: "MarkBaseSet" 0 0 mark 0
LayerCount: 2
Fore
SplineSet
449.991477188 -50 m 1
 500 16.677734375 l 1
 550.008522812 -50 l 1
 449.991477188 -50 l 1
200 -50 m 2
 172.404296875 -50 150 -72.404296875 150 -100 c 0
 150 -127.595703125 172.404296875 -150 200 -150 c 2
 800 -150 l 2
 827.595703125 -150 850 -127.595703125 850 -100 c 0
 850 -72.404296875 827.595703125 -50 800 -50 c 2
 749.99150375 -50 l 1
 840.0234375 70.0419921875 l 2
 846.287109375 78.3935546875 850 88.7666015625 850 100 c 0
 850 127.595703125 827.595703125 150 800 150 c 0
 783.637695312 150 769.100585938 142.123046875 759.9765625 129.958007812 c 2
 650 -16.6767578125 l 1
 540.0234375 129.958007812 l 2
 530.899414062 142.123046875 516.362304688 150 500 150 c 0
 483.637695312 150 469.100585938 142.123046875 459.9765625 129.958007812 c 2
 350 -16.6767578125 l 1
 240.0234375 129.958007812 l 2
 230.899414062 142.123046875 216.362304688 150 200 150 c 0
 172.404296875 150 150 127.595703125 150 100 c 0
 150 88.7666015625 153.712890625 78.3935546875 159.9765625 70.0419921875 c 2
 250.00849625 -50 l 1
 200 -50 l 2
EndSplineSet
EndChar

StartChar: sfv_p.8
Encoding: 53 -1 65
Width: 0
Flags: HW
AnchorPoint: "MarkBaseSet" 0 0 mark 0
LayerCount: 2
Fore
SplineSet
430.90625 -50 m 1
 500 88.1875 l 1
 569.09375 -50 l 1
 430.90625 -50 l 1
200 -50 m 2
 172.404296875 -50 150 -72.404296875 150 -100 c 0
 150 -127.595703125 172.404296875 -150 200 -150 c 2
 350 -150 l 1
 649.999999444 -150 l 1
 800 -150 l 2
 827.595703125 -150 850 -127.595703125 850 -100 c 0
 850 -72.404296875 827.595703125 -50 800 -50 c 2
 730.90625 -50 l 1
 844.75 177.6875 l 2
 848.109375 184.40625 850 191.984375 850 200 c 0
 850 227.595703125 827.595703125 250 800 250 c 0
 780.419921875 250 763.454101562 238.721679688 755.25 222.3125 c 2
 650 11.8125 l 1
 544.75 222.3125 l 2
 536.545898438 238.721679688 519.580078125 250 500 250 c 0
 480.419921875 250 463.454101562 238.721679688 455.25 222.3125 c 2
 350 11.8125 l 1
 244.75 222.3125 l 2
 236.545898438 238.721679688 219.580078125 250 200 250 c 0
 172.404296875 250 150 227.595703125 150 200 c 0
 150 191.984375 151.890625 184.40625 155.25 177.6875 c 2
 269.09375 -50 l 1
 200 -50 l 2
EndSplineSet
EndChar

StartChar: sfu_r
Encoding: 54 -1 66
Width: 1000
Flags: H
LayerCount: 2
Fore
SplineSet
800 650 m 2
 200 650 l 2
 172.404296875 650 150 627.595703125 150 600 c 0
 150 591.984375 151.890625 584.40625 155.249023438 577.6875 c 2
 455.249023438 -22.3125 l 2
 463.454101562 -38.7216796875 480.419921875 -50 500 -50 c 0
 519.580078125 -50 536.545898438 -38.7216796875 544.750976562 -22.3125 c 2
 844.750976562 577.6875 l 2
 848.109375 584.40625 850 591.984375 850 600 c 0
 850 627.595703125 827.595703125 650 800 650 c 2
100 750 m 2
 900 750 l 2
 927.594726562 749.997070312 949.997070312 727.594726562 950 700 c 2
 950 -100 l 2
 949.997070312 -127.594726562 927.594726562 -149.997070312 900 -150 c 2
 100 -150 l 2
 72.4052734375 -149.997070312 50.0029296875 -127.594726562 50 -100 c 2
 50 700 l 2
 50.0029296875 727.594726562 72.4052734375 750 100 750 c 2
500 111.813476562 m 1
 280.90625 550 l 1
 719.09375 550 l 1
 500 111.813476562 l 1
EndSplineSet
Substitution2: "Single Substitution lookup 38 subtable" sfu_r.3
Substitution2: "Single Substitution lookup 34 subtable" sfu_r.1
Substitution2: "Single Substitution lookup 30 subtable" sfu_r.3
Substitution2: "Single Substitution lookup 26 subtable" sfu_r.2
Substitution2: "Single Substitution lookup 24 subtable" sfu_r.7
Substitution2: "Single Substitution lookup 20 subtable" sfu_r.5
Substitution2: "Single Substitution lookup 18 subtable" sfu_r.8
Substitution2: "Single Substitution lookup 14 subtable" sfu_r.6
Substitution2: "Single Substitution lookup 12 subtable" sfu_r.7
Substitution2: "Single Substitution lookup 8 subtable" sfu_r.4
Substitution2: "Single Substitution lookup 6 subtable" sfu_r.7
Substitution2: "Single Substitution lookup 2 subtable" sfu_r.5
EndChar

StartChar: sfu_r.1
Encoding: 55 -1 67
Width: 1000
Flags: H
LayerCount: 2
Fore
SplineSet
500 111.813476562 m 1
 280.90625 550 l 1
 719.09375 550 l 1
 500 111.813476562 l 1
500 -50 m 0
 519.580078125 -50 536.545898438 -38.7216796875 544.750976562 -22.3125 c 2
 844.750976562 577.6875 l 2
 848.109375 584.40625 850 591.984375 850 600 c 0
 850 627.595703125 827.595703125 650 800 650 c 2
 200 650 l 2
 172.404296875 650 150 627.595703125 150 600 c 0
 150 591.984375 151.890625 584.40625 155.249023438 577.6875 c 2
 455.249023438 -22.3125 l 2
 463.454101562 -38.7216796875 480.419921875 -50 500 -50 c 0
EndSplineSet
EndChar

StartChar: sfu_r.2
Encoding: 56 -1 68
Width: 1000
Flags: H
AnchorPoint: "MarkBaseSet" 0 0 basechar 0
LayerCount: 2
Fore
SplineSet
300 158.143554688 m 1
 169.380859375 550 l 1
 430.619140625 550 l 1
 300 158.143554688 l 1
300 -50 m 0
 322.07421875 -50 340.826171875 -35.6640625 347.447265625 -15.802734375 c 2
 547.447265625 584.197265625 l 2
 558.913085938 618.596679688 532.067382812 650 500 650 c 2
 100 650 l 2
 67.931640625 650 41.080078125 618.615234375 52.552734375 584.197265625 c 2
 252.552734375 -15.802734375 l 2
 259.173828125 -35.6640625 277.92578125 -50 300 -50 c 0
EndSplineSet
EndChar

StartChar: sfu_r.3
Encoding: 57 -1 69
Width: 1000
Flags: H
AnchorPoint: "MarkBaseSet" 0 0 basechar 0
LayerCount: 2
Fore
SplineSet
500 383.322265625 m 1
 299.9921875 650 l 1
 700.0078125 650 l 1
 500 383.322265625 l 1
850 700 m 0
 850 727.595703125 827.595703125 750 800 750 c 2
 200 750 l 2
 172.404296875 750 150 727.595703125 150 700 c 0
 150 688.766601562 153.712890625 678.393554688 159.9765625 670.041992188 c 2
 459.9765625 270.041992188 l 2
 469.100585938 257.876953125 483.637695312 250 500 250 c 0
 516.362304688 250 530.899414062 257.876953125 540.0234375 270.041992188 c 2
 840.0234375 670.041992188 l 2
 846.287109375 678.393554688 850 688.766601562 850 700 c 0
EndSplineSet
EndChar

StartChar: sfu_r.4
Encoding: 58 -1 70
Width: 1000
Flags: H
AnchorPoint: "MarkBaseSet" 0 0 basechar 0
LayerCount: 2
Fore
SplineSet
300 411.813476562 m 1
 180.90625 650 l 1
 419.09375 650 l 1
 300 411.813476562 l 1
300 250 m 0
 319.580078125 250 336.545898438 261.278320312 344.750976562 277.6875 c 2
 544.750976562 677.6875 l 2
 548.109375 684.40625 550 691.984375 550 700 c 0
 550 727.595703125 527.595703125 750 500 750 c 2
 100 750 l 2
 72.404296875 750 50 727.595703125 50 700 c 0
 50 691.984375 51.890625 684.40625 55.2490234375 677.6875 c 2
 255.249023438 277.6875 l 2
 263.454101562 261.278320312 280.419921875 250 300 250 c 0
EndSplineSet
EndChar

StartChar: sfu_r.5
Encoding: 59 -1 71
Width: 1000
Flags: H
AnchorPoint: "MarkBaseSet" 0 0 basechar 0
LayerCount: 2
Fore
SplineSet
500 560.088867188 m 1
 365.1328125 650 l 1
 634.8671875 650 l 1
 500 560.088867188 l 1
472.315429688 458.3671875 m 2
 488.60546875 447.5078125 511.390625 447.504882812 527.684570312 458.3671875 c 2
 827.684570312 658.3671875 l 2
 841.1328125 667.333007812 850 682.639648438 850 700 c 0
 850 727.595703125 827.595703125 750 800 750 c 2
 200 750 l 2
 172.404296875 750 150 727.595703125 150 700 c 0
 150 682.639648438 158.8671875 667.333007812 172.315429688 658.3671875 c 2
 472.315429688 458.3671875 l 2
EndSplineSet
EndChar

StartChar: sfu_r.6
Encoding: 60 -1 72
Width: 1000
Flags: H
AnchorPoint: "MarkBaseSet" 0 0 basechar 0
LayerCount: 2
Fore
SplineSet
500 470.696289062 m 1
 320.696289062 650 l 1
 679.303710938 650 l 1
 500 470.696289062 l 1
500 350 m 0
 513.797851562 350 526.297851562 355.6015625 535.348632812 364.651367188 c 2
 835.348632812 664.651367188 l 2
 844.3984375 673.702148438 850 686.202148438 850 700 c 0
 850 727.595703125 827.595703125 750 800 750 c 2
 200 750 l 2
 172.404296875 750 150 727.595703125 150 700 c 0
 150 686.202148438 155.6015625 673.702148438 164.651367188 664.651367188 c 2
 464.651367188 364.651367188 l 2
 473.702148438 355.6015625 486.202148438 350 500 350 c 0
EndSplineSet
EndChar

StartChar: sfu_r.7
Encoding: 61 -1 73
Width: 0
Flags: HW
AnchorPoint: "MarkBaseSet" 0 0 mark 0
LayerCount: 2
Fore
SplineSet
500 -39.9111328125 m 1
 365.1328125 50 l 1
 634.8671875 50 l 1
 500 -39.9111328125 l 1
472.315429688 -141.6328125 m 2
 488.60546875 -152.4921875 511.390625 -152.495117188 527.684570312 -141.6328125 c 2
 827.684570312 58.3671875 l 2
 841.1328125 67.3330078125 850 82.6396484375 850 100 c 0
 850 127.595703125 827.595703125 150 800 150 c 2
 200 150 l 2
 172.404296875 150 150 127.595703125 150 100 c 0
 150 82.6396484375 158.8671875 67.3330078125 172.315429688 58.3671875 c 2
 472.315429688 -141.6328125 l 2
EndSplineSet
EndChar

StartChar: sfu_r.8
Encoding: 62 -1 74
Width: 0
Flags: HW
AnchorPoint: "MarkBaseSet" 0 0 mark 0
LayerCount: 2
Fore
SplineSet
500 -29.3037109375 m 1
 320.696289062 150 l 1
 679.303710938 150 l 1
 500 -29.3037109375 l 1
500 -150 m 0
 513.797851562 -150 526.297851562 -144.3984375 535.348632812 -135.348632812 c 2
 835.348632812 164.651367188 l 2
 844.3984375 173.702148438 850 186.202148438 850 200 c 0
 850 227.595703125 827.595703125 250 800 250 c 2
 200 250 l 2
 172.404296875 250 150 227.595703125 150 200 c 0
 150 186.202148438 155.6015625 173.702148438 164.651367188 164.651367188 c 2
 464.651367188 -135.348632812 l 2
 473.702148438 -144.3984375 486.202148438 -150 500 -150 c 0
EndSplineSet
EndChar

StartChar: sfv_r
Encoding: 63 -1 75
Width: 1000
Flags: H
LayerCount: 2
Fore
SplineSet
800 650 m 2
 200 650 l 2
 174.227103489 650 151.680831338 629.944032813 150 603.673306398 c 2
 150 597.353439226 l 2
 150.196436668 594.24628288 150.684056749 591.0720859 151.489257812 587.8515625 c 2
 301.489257812 -12.1484375 l 2
 306.921875 -33.8818359375 326.59375 -50 350 -50 c 0
 373.40625 -50 393.078125 -33.8818359375 398.510742188 -12.1484375 c 2
 500 393.806640625 l 1
 601.489257812 -12.1484375 l 2
 606.921875 -33.8818359375 626.59375 -50 650 -50 c 0
 673.40625 -50 693.078125 -33.8818359375 698.510742188 -12.1484375 c 2
 848.510742188 587.8515625 l 2
 849.316330333 591.073821408 849.803931197 594.249734501 850 597.358545269 c 2
 850 603.662394168 l 2
 848.323020241 629.937445575 825.772154302 650 800 650 c 2
100 750 m 2
 900 750 l 2
 927.594726562 749.997070312 949.997070312 727.594726562 950 700 c 2
 950 -100 l 2
 949.997070312 -127.59375 927.594726562 -149.997070312 900 -150 c 2
 100 -150 l 2
 72.4052734375 -149.997070312 50.0029296875 -127.59375 50 -100 c 2
 50 700 l 2
 50.0029296875 727.594726562 72.4052734375 750 100 750 c 2
650 206.193359375 m 1
 564.048828125 550 l 1
 735.951171875 550 l 1
 650 206.193359375 l 1
350 206.193359375 m 1
 264.048828125 550 l 1
 435.951171875 550 l 1
 350 206.193359375 l 1
EndSplineSet
Substitution2: "Single Substitution lookup 38 subtable" sfv_r.3
Substitution2: "Single Substitution lookup 34 subtable" sfv_r.1
Substitution2: "Single Substitution lookup 30 subtable" sfv_r.3
Substitution2: "Single Substitution lookup 26 subtable" sfv_r.2
Substitution2: "Single Substitution lookup 24 subtable" sfv_r.7
Substitution2: "Single Substitution lookup 20 subtable" sfv_r.5
Substitution2: "Single Substitution lookup 18 subtable" sfv_r.8
Substitution2: "Single Substitution lookup 14 subtable" sfv_r.6
Substitution2: "Single Substitution lookup 12 subtable" sfv_r.7
Substitution2: "Single Substitution lookup 8 subtable" sfv_r.4
Substitution2: "Single Substitution lookup 6 subtable" sfv_r.7
Substitution2: "Single Substitution lookup 2 subtable" sfv_r.5
EndChar

StartChar: sfv_r.1
Encoding: 64 -1 76
Width: 1000
Flags: H
LayerCount: 2
Fore
SplineSet
650 206.193359375 m 1
 564.048828125 550 l 1
 735.951171875 550 l 1
 650 206.193359375 l 1
350 206.193359375 m 1
 264.048828125 550 l 1
 435.951171875 550 l 1
 350 206.193359375 l 1
350 -50 m 0
 373.40625 -50 393.078125 -33.8818359375 398.510742188 -12.1484375 c 2
 500 393.806640625 l 1
 601.489257812 -12.1484375 l 2
 606.921875 -33.8818359375 626.59375 -50 650 -50 c 0
 673.40625 -50 693.078125 -33.8818359375 698.510742188 -12.1484375 c 2
 848.510742188 587.8515625 l 2
 856.909179688 621.444335938 830.747070312 650 800 650 c 2
 200 650 l 2
 169.248046875 650 143.08984375 621.446289062 151.489257812 587.8515625 c 2
 301.489257812 -12.1484375 l 2
 306.921875 -33.8818359375 326.59375 -50 350 -50 c 0
EndSplineSet
EndChar

StartChar: sfv_r.2
Encoding: 65 -1 77
Width: 1000
Flags: H
AnchorPoint: "MarkBaseSet" 0 0 basechar 0
LayerCount: 2
Fore
SplineSet
400 304.176757812 m 1
 359.029296875 550 l 1
 440.970703125 550 l 1
 400 304.176757812 l 1
200 304.176757812 m 1
 159.029296875 550 l 1
 240.970703125 550 l 1
 200 304.176757812 l 1
200 -50 m 0
 224.780273438 -50 245.374023438 -31.9345703125 249.318359375 -8.2666015625 c 2
 300 295.823242188 l 1
 350.681640625 -8.2666015625 l 2
 354.625976562 -31.9345703125 375.219726562 -50 400 -50 c 0
 424.780273438 -50 445.374023438 -31.9345703125 449.318359375 -8.2666015625 c 2
 549.318359375 591.733398438 l 2
 554.690429688 623.967773438 529.560546875 650 500 650 c 2
 100 650 l 2
 70.4326171875 650 45.310546875 623.958007812 50.681640625 591.733398438 c 2
 150.681640625 -8.2666015625 l 2
 154.625976562 -31.9345703125 175.219726562 -50 200 -50 c 0
EndSplineSet
EndChar

StartChar: sfv_r.3
Encoding: 66 -1 78
Width: 1000
Flags: HW
AnchorPoint: "MarkBaseSet" 0 0 basechar 0
LayerCount: 2
Fore
SplineSet
650 442.424804688 m 1
 572.159179688 650 l 1
 727.840820312 650 l 1
 650 442.424804688 l 1
350 442.424804688 m 1
 272.159179688 650 l 1
 427.840820312 650 l 1
 350 442.424804688 l 1
350 250 m 0
 371.427734375 250 389.724609375 263.5078125 396.833984375 282.465820312 c 2
 500 557.575195312 l 1
 603.166015625 282.465820312 l 2
 610.275390625 263.5078125 628.572265625 250 650 250 c 0
 671.427734375 250 689.724609375 263.5078125 696.833984375 282.465820312 c 2
 846.833984375 682.465820312 l 2
 859.8203125 717.09765625 832.770507812 750 800 750 c 2
 200 750 l 2
 167.231445312 750 140.168945312 717.125976562 153.166015625 682.465820312 c 2
 303.166015625 282.465820312 l 2
 310.275390625 263.5078125 328.572265625 250 350 250 c 0
EndSplineSet
EndChar

StartChar: sfv_r.4
Encoding: 67 -1 79
Width: 1000
Flags: H
AnchorPoint: "MarkBaseSet" 0 0 basechar 0
LayerCount: 2
Fore
SplineSet
400 506.193359375 m 1
 364.048828125 650 l 1
 435.951171875 650 l 1
 400 506.193359375 l 1
200 506.193359375 m 1
 164.048828125 650 l 1
 235.951171875 650 l 1
 200 506.193359375 l 1
200 250 m 0
 223.40625 250 243.078125 266.118164062 248.510742188 287.8515625 c 2
 300 493.806640625 l 1
 351.489257812 287.8515625 l 2
 356.921875 266.118164062 376.59375 250 400 250 c 0
 423.40625 250 443.078125 266.118164062 448.510742188 287.8515625 c 2
 548.510742188 687.8515625 l 2
 556.909179688 721.444335938 530.747070312 750 500 750 c 2
 100 750 l 2
 69.248046875 750 43.08984375 721.446289062 51.4892578125 687.8515625 c 2
 151.489257812 287.8515625 l 2
 156.921875 266.118164062 176.59375 250 200 250 c 0
EndSplineSet
EndChar

StartChar: sfv_r.5
Encoding: 68 -1 80
Width: 1000
Flags: H
AnchorPoint: "MarkBaseSet" 0 0 basechar 0
LayerCount: 2
Fore
SplineSet
650 583.323242188 m 1
 599.9921875 650 l 1
 700.0078125 650 l 1
 650 583.323242188 l 1
350 583.323242188 m 1
 299.9921875 650 l 1
 400.0078125 650 l 1
 350 583.323242188 l 1
350 450 m 0
 366.362304688 450 380.899414062 457.876953125 390.0234375 470.041992188 c 2
 500 616.676757812 l 1
 609.9765625 470.041992188 l 2
 619.100585938 457.876953125 633.637695312 450 650 450 c 0
 666.362304688 450 680.899414062 457.876953125 690.0234375 470.041992188 c 2
 840.0234375 670.041992188 l 2
 846.287109375 678.393554688 850 688.766601562 850 700 c 0
 850 727.595703125 827.595703125 750 800 750 c 2
 200 750 l 2
 172.404296875 750 150 727.595703125 150 700 c 0
 150 688.766601562 153.712890625 678.393554688 159.9765625 670.041992188 c 2
 309.9765625 470.041992188 l 2
 319.100585938 457.876953125 333.637695312 450 350 450 c 0
EndSplineSet
EndChar

StartChar: sfv_r.6
Encoding: 69 -1 81
Width: 1000
Flags: H
AnchorPoint: "MarkBaseSet" 0 0 basechar 0
LayerCount: 2
Fore
SplineSet
650 511.8125 m 1
 580.90625 650 l 1
 719.09375 650 l 1
 650 511.8125 l 1
350 511.8125 m 1
 280.90625 650 l 1
 419.09375 650 l 1
 350 511.8125 l 1
350 350 m 0
 369.580078125 350 386.545898438 361.278320312 394.75 377.6875 c 2
 500 588.1875 l 1
 605.25 377.6875 l 2
 613.454101562 361.278320312 630.419921875 350 650 350 c 0
 669.580078125 350 686.545898438 361.278320312 694.75 377.6875 c 2
 844.75 677.6875 l 2
 848.109375 684.40625 850 691.984375 850 700 c 0
 850 727.595703125 827.595703125 750 800 750 c 2
 200 750 l 2
 172.404296875 750 150 727.595703125 150 700 c 0
 150 691.984375 151.890625 684.40625 155.25 677.6875 c 2
 305.25 377.6875 l 2
 313.454101562 361.278320312 330.419921875 350 350 350 c 0
EndSplineSet
EndChar

StartChar: sfv_r.7
Encoding: 70 -1 82
Width: 0
Flags: HW
AnchorPoint: "MarkBaseSet" 0 0 mark 0
LayerCount: 2
Fore
SplineSet
650 -16.6767578125 m 1
 599.9921875 50 l 1
 700.0078125 50 l 1
 650 -16.6767578125 l 1
350 -16.6767578125 m 1
 299.9921875 50 l 1
 400.0078125 50 l 1
 350 -16.6767578125 l 1
350 -150 m 0
 366.362304688 -150 380.899414062 -142.123046875 390.0234375 -129.958007812 c 2
 500 16.6767578125 l 1
 609.9765625 -129.958007812 l 2
 619.100585938 -142.123046875 633.637695312 -150 650 -150 c 0
 666.362304688 -150 680.899414062 -142.123046875 690.0234375 -129.958007812 c 2
 840.0234375 70.0419921875 l 2
 846.287109375 78.3935546875 850 88.7666015625 850 100 c 0
 850 127.595703125 827.595703125 150 800 150 c 2
 200 150 l 2
 172.404296875 150 150 127.595703125 150 100 c 0
 150 88.7666015625 153.712890625 78.3935546875 159.9765625 70.0419921875 c 2
 309.9765625 -129.958007812 l 2
 319.100585938 -142.123046875 333.637695312 -150 350 -150 c 0
EndSplineSet
EndChar

StartChar: sfv_r.8
Encoding: 71 -1 83
Width: 0
Flags: HW
AnchorPoint: "MarkBaseSet" 0 0 mark 0
LayerCount: 2
Fore
SplineSet
650 11.8125 m 1
 580.90625 150 l 1
 719.09375 150 l 1
 650 11.8125 l 1
350 11.8125 m 1
 280.90625 150 l 1
 419.09375 150 l 1
 350 11.8125 l 1
350 -150 m 0
 369.580078125 -150 386.545898438 -138.721679688 394.75 -122.3125 c 2
 500 88.1875 l 1
 605.25 -122.3125 l 2
 613.454101562 -138.721679688 630.419921875 -150 650 -150 c 0
 669.580078125 -150 686.545898438 -138.721679688 694.75 -122.3125 c 2
 844.75 177.6875 l 2
 848.109375 184.40625 850 191.984375 850 200 c 0
 850 227.595703125 827.595703125 250 800 250 c 2
 200 250 l 2
 172.404296875 250 150 227.595703125 150 200 c 0
 150 191.984375 151.890625 184.40625 155.25 177.6875 c 2
 305.25 -122.3125 l 2
 313.454101562 -138.721679688 330.419921875 -150 350 -150 c 0
EndSplineSet
EndChar

StartChar: sfu_a
Encoding: 72 -1 84
Width: 1000
Flags: H
LayerCount: 2
Fore
SplineSet
800 650 m 0
 780.419921875 650 763.454101562 638.721679688 755.249023438 622.3125 c 2
 500 111.813476562 l 1
 244.750976562 622.3125 l 2
 236.545898438 638.721679688 219.580078125 650 200 650 c 0
 172.404296875 650 150 627.595703125 150 600 c 0
 150 591.984375 151.890625 584.40625 155.249023438 577.6875 c 2
 455.249023438 -22.3125 l 2
 463.454101562 -38.7216796875 480.419921875 -50 500 -50 c 0
 519.580078125 -50 536.545898438 -38.7216796875 544.750976562 -22.3125 c 2
 844.750976562 577.6875 l 2
 848.109375 584.40625 850 591.984375 850 600 c 0
 850 627.595703125 827.595703125 650 800 650 c 0
100 750 m 2
 900 750 l 2
 927.594726562 749.997070312 949.997070312 727.594726562 950 700 c 2
 950 -100 l 2
 949.997070312 -127.594726562 927.594726562 -149.997070312 900 -150 c 2
 100 -150 l 2
 72.4052734375 -149.997070312 50.0029296875 -127.594726562 50 -100 c 2
 50 700 l 2
 50.0029296875 727.594726562 72.4052734375 750 100 750 c 2
EndSplineSet
Substitution2: "Single Substitution lookup 38 subtable" sfu_a.3
Substitution2: "Single Substitution lookup 34 subtable" sfu_a.1
Substitution2: "Single Substitution lookup 30 subtable" sfu_a.3
Substitution2: "Single Substitution lookup 26 subtable" sfu_a.2
Substitution2: "Single Substitution lookup 24 subtable" sfu_a.7
Substitution2: "Single Substitution lookup 20 subtable" sfu_a.5
Substitution2: "Single Substitution lookup 18 subtable" sfu_a.8
Substitution2: "Single Substitution lookup 14 subtable" sfu_a.6
Substitution2: "Single Substitution lookup 12 subtable" sfu_a.7
Substitution2: "Single Substitution lookup 8 subtable" sfu_a.4
Substitution2: "Single Substitution lookup 6 subtable" sfu_a.7
Substitution2: "Single Substitution lookup 2 subtable" sfu_a.5
EndChar

StartChar: sfu_a.1
Encoding: 73 -1 85
Width: 1000
Flags: H
LayerCount: 2
Fore
SplineSet
200 650 m 0
 172.404296875 650 150 627.595703125 150 600 c 0
 150 591.984375 151.890625 584.40625 155.249023438 577.6875 c 2
 455.249023438 -22.3125 l 2
 463.454101562 -38.7216796875 480.419921875 -50 500 -50 c 0
 519.580078125 -50 536.545898438 -38.7216796875 544.750976562 -22.3125 c 2
 844.750976562 577.6875 l 2
 848.109375 584.40625 850 591.984375 850 600 c 0
 850 627.595703125 827.595703125 650 800 650 c 0
 780.419921875 650 763.454101562 638.721679688 755.249023438 622.3125 c 2
 500 111.813476562 l 1
 244.750976562 622.3125 l 2
 236.545898438 638.721679688 219.580078125 650 200 650 c 0
EndSplineSet
EndChar

StartChar: sfu_a.2
Encoding: 74 -1 86
Width: 1000
Flags: H
AnchorPoint: "MarkBaseSet" 0 0 basechar 0
LayerCount: 2
Fore
SplineSet
100 650 m 0
 67.931640625 650 41.080078125 618.615234375 52.552734375 584.197265625 c 2
 252.552734375 -15.802734375 l 2
 259.173828125 -35.6640625 277.92578125 -50 300 -50 c 0
 322.07421875 -50 340.826171875 -35.6640625 347.447265625 -15.802734375 c 2
 547.447265625 584.197265625 l 2
 558.913085938 618.596679688 532.067382812 650 500 650 c 0
 477.92578125 650 459.173828125 635.6640625 452.552734375 615.802734375 c 2
 300 158.143554688 l 1
 147.447265625 615.802734375 l 2
 140.826171875 635.6640625 122.07421875 650 100 650 c 0
EndSplineSet
EndChar

StartChar: sfu_a.3
Encoding: 75 -1 87
Width: 1000
Flags: H
AnchorPoint: "MarkBaseSet" 0 0 basechar 0
LayerCount: 2
Fore
SplineSet
200 750 m 0
 172.404296875 750 150 727.595703125 150 700 c 0
 150 688.766601562 153.712890625 678.393554688 159.9765625 670.041992188 c 2
 459.9765625 270.041992188 l 2
 469.100585938 257.876953125 483.637695312 250 500 250 c 0
 516.362304688 250 530.899414062 257.876953125 540.0234375 270.041992188 c 2
 840.0234375 670.041992188 l 2
 846.287109375 678.393554688 850 688.766601562 850 700 c 0
 850 727.595703125 827.595703125 750 800 750 c 0
 783.637695312 750 769.100585938 742.123046875 759.9765625 729.958007812 c 2
 500 383.322265625 l 1
 240.0234375 729.958007812 l 2
 230.899414062 742.123046875 216.362304688 750 200 750 c 0
EndSplineSet
EndChar

StartChar: sfu_a.4
Encoding: 76 -1 88
Width: 1000
Flags: H
AnchorPoint: "MarkBaseSet" 0 0 basechar 0
LayerCount: 2
Fore
SplineSet
100 750 m 0
 72.404296875 750 50 727.595703125 50 700 c 0
 50 691.984375 51.890625 684.40625 55.2490234375 677.6875 c 2
 255.249023438 277.6875 l 2
 263.454101562 261.278320312 280.419921875 250 300 250 c 0
 319.580078125 250 336.545898438 261.278320312 344.750976562 277.6875 c 2
 544.750976562 677.6875 l 2
 548.109375 684.40625 550 691.984375 550 700 c 0
 550 727.595703125 527.595703125 750 500 750 c 0
 480.419921875 750 463.454101562 738.721679688 455.249023438 722.3125 c 2
 300 411.813476562 l 1
 144.750976562 722.3125 l 2
 136.545898438 738.721679688 119.580078125 750 100 750 c 0
EndSplineSet
EndChar

StartChar: sfu_a.5
Encoding: 77 -1 89
Width: 1000
Flags: H
AnchorPoint: "MarkBaseSet" 0 0 basechar 0
LayerCount: 2
Fore
SplineSet
200 750 m 0
 172.404296875 750 150 727.595703125 150 700 c 0
 150 682.639648438 158.8671875 667.333007812 172.315429688 658.3671875 c 2
 472.315429688 458.3671875 l 2
 488.60546875 447.5078125 511.390625 447.504882812 527.684570312 458.3671875 c 2
 827.684570312 658.3671875 l 2
 841.1328125 667.333007812 850 682.639648438 850 700 c 0
 850 727.595703125 827.595703125 750 800 750 c 0
 789.764648438 750 780.244140625 746.91796875 772.315429688 741.6328125 c 2
 500 560.088867188 l 1
 227.684570312 741.6328125 l 2
 219.755859375 746.91796875 210.235351562 750 200 750 c 0
EndSplineSet
EndChar

StartChar: sfu_a.6
Encoding: 78 -1 90
Width: 1000
Flags: H
AnchorPoint: "MarkBaseSet" 0 0 basechar 0
LayerCount: 2
Fore
SplineSet
200 750 m 0
 172.404296875 750 150 727.595703125 150 700 c 0
 150 686.202148438 155.6015625 673.702148438 164.651367188 664.651367188 c 2
 464.651367188 364.651367188 l 2
 473.702148438 355.6015625 486.202148438 350 500 350 c 0
 513.797851562 350 526.297851562 355.6015625 535.348632812 364.651367188 c 2
 835.348632812 664.651367188 l 2
 844.3984375 673.702148438 850 686.202148438 850 700 c 0
 850 727.595703125 827.595703125 750 800 750 c 0
 786.202148438 750 773.702148438 744.3984375 764.651367188 735.348632812 c 2
 500 470.696289062 l 1
 235.348632812 735.348632812 l 2
 226.297851562 744.3984375 213.797851562 750 200 750 c 0
EndSplineSet
EndChar

StartChar: sfu_a.7
Encoding: 79 -1 91
Width: 0
Flags: HW
AnchorPoint: "MarkBaseSet" 0 0 mark 0
LayerCount: 2
Fore
SplineSet
200 150 m 0
 172.404296875 150 150 127.595703125 150 100 c 0
 150 82.6396484375 158.8671875 67.3330078125 172.315429688 58.3671875 c 2
 472.315429688 -141.6328125 l 2
 488.60546875 -152.4921875 511.390625 -152.495117188 527.684570312 -141.6328125 c 2
 827.684570312 58.3671875 l 2
 841.1328125 67.3330078125 850 82.6396484375 850 100 c 0
 850 127.595703125 827.595703125 150 800 150 c 0
 789.764648438 150 780.244140625 146.91796875 772.315429688 141.6328125 c 2
 500 -39.9111328125 l 1
 227.684570312 141.6328125 l 2
 219.755859375 146.91796875 210.235351562 150 200 150 c 0
EndSplineSet
EndChar

StartChar: sfu_a.8
Encoding: 80 -1 92
Width: 0
Flags: HW
AnchorPoint: "MarkBaseSet" 0 0 mark 0
LayerCount: 2
Fore
SplineSet
200 250 m 0
 172.404296875 250 150 227.595703125 150 200 c 0
 150 186.202148438 155.6015625 173.702148438 164.651367188 164.651367188 c 2
 464.651367188 -135.348632812 l 2
 473.702148438 -144.3984375 486.202148438 -150 500 -150 c 0
 513.797851562 -150 526.297851562 -144.3984375 535.348632812 -135.348632812 c 2
 835.348632812 164.651367188 l 2
 844.3984375 173.702148438 850 186.202148438 850 200 c 0
 850 227.595703125 827.595703125 250 800 250 c 0
 786.202148438 250 773.702148438 244.3984375 764.651367188 235.348632812 c 2
 500 -29.3037109375 l 1
 235.348632812 235.348632812 l 2
 226.297851562 244.3984375 213.797851562 250 200 250 c 0
EndSplineSet
EndChar

StartChar: sfv_a
Encoding: 81 -1 93
Width: 1000
Flags: H
LayerCount: 2
Fore
SplineSet
800 650 m 0
 776.59375 650 756.921875 633.881835938 751.489257812 612.1484375 c 2
 650 206.193359375 l 1
 548.510742188 612.1484375 l 2
 543.078125 633.881835938 523.40625 650 500 650 c 0
 476.59375 650 456.921875 633.881835938 451.489257812 612.1484375 c 2
 350 206.193359375 l 1
 248.510742188 612.1484375 l 2
 243.078125 633.881835938 223.40625 650 200 650 c 0
 174.227103489 650 151.680831338 629.944032813 150 603.673306398 c 2
 150 597.353439226 l 2
 150.196436668 594.24628288 150.684056749 591.0720859 151.489257812 587.8515625 c 2
 301.489257812 -12.1484375 l 2
 306.921875 -33.8818359375 326.59375 -50 350 -50 c 0
 373.40625 -50 393.078125 -33.8818359375 398.510742188 -12.1484375 c 2
 500 393.806640625 l 1
 601.489257812 -12.1484375 l 2
 606.921875 -33.8818359375 626.59375 -50 650 -50 c 0
 673.40625 -50 693.078125 -33.8818359375 698.510742188 -12.1484375 c 2
 848.510742188 587.8515625 l 2
 849.316330333 591.073821408 849.803931197 594.249734501 850 597.358545269 c 2
 850 603.662394168 l 2
 848.323020241 629.937445575 825.772154302 650 800 650 c 0
100 750 m 2
 900 750 l 2
 927.594726562 749.997070312 949.997070312 727.594726562 950 700 c 2
 950 -100 l 2
 949.997070312 -127.59375 927.594726562 -149.997070312 900 -150 c 2
 100 -150 l 2
 72.4052734375 -149.997070312 50.0029296875 -127.59375 50 -100 c 2
 50 700 l 2
 50.0029296875 727.594726562 72.4052734375 750 100 750 c 2
EndSplineSet
Substitution2: "Single Substitution lookup 38 subtable" sfv_a.3
Substitution2: "Single Substitution lookup 34 subtable" sfv_a.1
Substitution2: "Single Substitution lookup 30 subtable" sfv_a.3
Substitution2: "Single Substitution lookup 26 subtable" sfv_a.2
Substitution2: "Single Substitution lookup 24 subtable" sfv_a.7
Substitution2: "Single Substitution lookup 20 subtable" sfv_a.5
Substitution2: "Single Substitution lookup 18 subtable" sfv_a.8
Substitution2: "Single Substitution lookup 14 subtable" sfv_a.6
Substitution2: "Single Substitution lookup 12 subtable" sfv_a.7
Substitution2: "Single Substitution lookup 8 subtable" sfv_a.4
Substitution2: "Single Substitution lookup 6 subtable" sfv_a.7
Substitution2: "Single Substitution lookup 2 subtable" sfv_a.5
EndChar

StartChar: sfv_a.1
Encoding: 82 -1 94
Width: 1000
Flags: H
LayerCount: 2
Fore
SplineSet
650 -50 m 0
 673.40625 -50 693.078125 -33.8818359375 698.510742188 -12.1484375 c 2
 848.510742188 587.8515625 l 2
 856.909179688 621.444335938 830.747070312 650 800 650 c 0
 776.59375 650 756.921875 633.881835938 751.489257812 612.1484375 c 2
 650 206.193359375 l 1
 548.510742188 612.1484375 l 2
 543.078125 633.881835938 523.40625 650 500 650 c 0
 476.59375 650 456.921875 633.881835938 451.489257812 612.1484375 c 2
 350 206.193359375 l 1
 248.510742188 612.1484375 l 2
 243.078125 633.881835938 223.40625 650 200 650 c 0
 169.248046875 650 143.08984375 621.446289062 151.489257812 587.8515625 c 2
 301.489257812 -12.1484375 l 2
 306.921875 -33.8818359375 326.59375 -50 350 -50 c 0
 373.40625 -50 393.078125 -33.8818359375 398.510742188 -12.1484375 c 2
 500 393.806640625 l 1
 601.489257812 -12.1484375 l 2
 606.921875 -33.8818359375 626.59375 -50 650 -50 c 0
EndSplineSet
EndChar

StartChar: sfv_a.2
Encoding: 83 -1 95
Width: 1000
Flags: H
AnchorPoint: "MarkBaseSet" 0 0 basechar 0
LayerCount: 2
Fore
SplineSet
400 -50 m 0
 424.780273438 -50 445.374023438 -31.9345703125 449.318359375 -8.2666015625 c 2
 549.318359375 591.733398438 l 2
 554.690429688 623.967773438 529.560546875 650 500 650 c 0
 475.219726562 650 454.625976562 631.934570312 450.681640625 608.266601562 c 2
 400 304.176757812 l 1
 349.318359375 608.266601562 l 2
 345.374023438 631.934570312 324.780273438 650 300 650 c 0
 275.219726562 650 254.625976562 631.934570312 250.681640625 608.266601562 c 2
 200 304.176757812 l 1
 149.318359375 608.266601562 l 2
 145.374023438 631.934570312 124.780273438 650 100 650 c 0
 70.4326171875 650 45.310546875 623.958007812 50.681640625 591.733398438 c 2
 150.681640625 -8.2666015625 l 2
 154.625976562 -31.9345703125 175.219726562 -50 200 -50 c 0
 224.780273438 -50 245.374023438 -31.9345703125 249.318359375 -8.2666015625 c 2
 300 295.823242188 l 1
 350.681640625 -8.2666015625 l 2
 354.625976562 -31.9345703125 375.219726562 -50 400 -50 c 0
EndSplineSet
EndChar

StartChar: sfv_a.3
Encoding: 84 -1 96
Width: 1000
Flags: H
AnchorPoint: "MarkBaseSet" 0 0 basechar 0
LayerCount: 2
Fore
SplineSet
650 250 m 0
 671.427734375 250 689.724609375 263.5078125 696.833984375 282.465820312 c 2
 846.833984375 682.465820312 l 2
 859.8203125 717.09765625 832.770507812 750 800 750 c 0
 778.572265625 750 760.275390625 736.4921875 753.166015625 717.534179688 c 2
 650 442.424804688 l 1
 546.833984375 717.534179688 l 2
 539.724609375 736.4921875 521.427734375 750 500 750 c 0
 478.572265625 750 460.275390625 736.4921875 453.166015625 717.534179688 c 2
 350 442.424804688 l 1
 246.833984375 717.534179688 l 2
 239.724609375 736.4921875 221.427734375 750 200 750 c 0
 167.231445312 750 140.168945312 717.125976562 153.166015625 682.465820312 c 2
 303.166015625 282.465820312 l 2
 310.275390625 263.5078125 328.572265625 250 350 250 c 0
 371.427734375 250 389.724609375 263.5078125 396.833984375 282.465820312 c 2
 500 557.575195312 l 1
 603.166015625 282.465820312 l 2
 610.275390625 263.5078125 628.572265625 250 650 250 c 0
EndSplineSet
EndChar

StartChar: sfv_a.4
Encoding: 85 -1 97
Width: 1000
Flags: H
AnchorPoint: "MarkBaseSet" 0 0 basechar 0
LayerCount: 2
Fore
SplineSet
400 250 m 0
 423.40625 250 443.078125 266.118164062 448.510742188 287.8515625 c 2
 548.510742188 687.8515625 l 2
 556.909179688 721.444335938 530.747070312 750 500 750 c 0
 476.59375 750 456.921875 733.881835938 451.489257812 712.1484375 c 2
 400 506.193359375 l 1
 348.510742188 712.1484375 l 2
 343.078125 733.881835938 323.40625 750 300 750 c 0
 276.59375 750 256.921875 733.881835938 251.489257812 712.1484375 c 2
 200 506.193359375 l 1
 148.510742188 712.1484375 l 2
 143.078125 733.881835938 123.40625 750 100 750 c 0
 69.248046875 750 43.08984375 721.446289062 51.4892578125 687.8515625 c 2
 151.489257812 287.8515625 l 2
 156.921875 266.118164062 176.59375 250 200 250 c 0
 223.40625 250 243.078125 266.118164062 248.510742188 287.8515625 c 2
 300 493.806640625 l 1
 351.489257812 287.8515625 l 2
 356.921875 266.118164062 376.59375 250 400 250 c 0
EndSplineSet
EndChar

StartChar: sfv_a.5
Encoding: 86 -1 98
Width: 1000
Flags: H
AnchorPoint: "MarkBaseSet" 0 0 basechar 0
LayerCount: 2
Fore
SplineSet
650 450 m 0
 666.362304688 450 680.899414062 457.876953125 690.0234375 470.041992188 c 2
 840.0234375 670.041992188 l 2
 846.287109375 678.393554688 850 688.766601562 850 700 c 0
 850 727.595703125 827.595703125 750 800 750 c 0
 783.637695312 750 769.100585938 742.123046875 759.9765625 729.958007812 c 2
 650 583.323242188 l 1
 540.0234375 729.958007812 l 2
 530.899414062 742.123046875 516.362304688 750 500 750 c 0
 483.637695312 750 469.100585938 742.123046875 459.9765625 729.958007812 c 2
 350 583.323242188 l 1
 240.0234375 729.958007812 l 2
 230.899414062 742.123046875 216.362304688 750 200 750 c 0
 172.404296875 750 150 727.595703125 150 700 c 0
 150 688.766601562 153.712890625 678.393554688 159.9765625 670.041992188 c 2
 309.9765625 470.041992188 l 2
 319.100585938 457.876953125 333.637695312 450 350 450 c 0
 366.362304688 450 380.899414062 457.876953125 390.0234375 470.041992188 c 2
 500 616.676757812 l 1
 609.9765625 470.041992188 l 2
 619.100585938 457.876953125 633.637695312 450 650 450 c 0
EndSplineSet
EndChar

StartChar: sfv_a.6
Encoding: 87 -1 99
Width: 1000
Flags: H
AnchorPoint: "MarkBaseSet" 0 0 basechar 0
LayerCount: 2
Fore
SplineSet
650 350 m 0
 669.580078125 350 686.545898438 361.278320312 694.75 377.6875 c 2
 844.75 677.6875 l 2
 848.109375 684.40625 850 691.984375 850 700 c 0
 850 727.595703125 827.595703125 750 800 750 c 0
 780.419921875 750 763.454101562 738.721679688 755.25 722.3125 c 2
 650 511.8125 l 1
 544.75 722.3125 l 2
 536.545898438 738.721679688 519.580078125 750 500 750 c 0
 480.419921875 750 463.454101562 738.721679688 455.25 722.3125 c 2
 350 511.8125 l 1
 244.75 722.3125 l 2
 236.545898438 738.721679688 219.580078125 750 200 750 c 0
 172.404296875 750 150 727.595703125 150 700 c 0
 150 691.984375 151.890625 684.40625 155.25 677.6875 c 2
 305.25 377.6875 l 2
 313.454101562 361.278320312 330.419921875 350 350 350 c 0
 369.580078125 350 386.545898438 361.278320312 394.75 377.6875 c 2
 500 588.1875 l 1
 605.25 377.6875 l 2
 613.454101562 361.278320312 630.419921875 350 650 350 c 0
EndSplineSet
EndChar

StartChar: sfv_a.7
Encoding: 88 -1 100
Width: 0
Flags: HW
AnchorPoint: "MarkBaseSet" 0 0 mark 0
LayerCount: 2
Fore
SplineSet
650 -150 m 0
 666.362304688 -150 680.899414062 -142.123046875 690.0234375 -129.958007812 c 2
 840.0234375 70.0419921875 l 2
 846.287109375 78.3935546875 850 88.7666015625 850 100 c 0
 850 127.595703125 827.595703125 150 800 150 c 0
 783.637695312 150 769.100585938 142.123046875 759.9765625 129.958007812 c 2
 650 -16.6767578125 l 1
 540.0234375 129.958007812 l 2
 530.899414062 142.123046875 516.362304688 150 500 150 c 0
 483.637695312 150 469.100585938 142.123046875 459.9765625 129.958007812 c 2
 350 -16.6767578125 l 1
 240.0234375 129.958007812 l 2
 230.899414062 142.123046875 216.362304688 150 200 150 c 0
 172.404296875 150 150 127.595703125 150 100 c 0
 150 88.7666015625 153.712890625 78.3935546875 159.9765625 70.0419921875 c 2
 309.9765625 -129.958007812 l 2
 319.100585938 -142.123046875 333.637695312 -150 350 -150 c 0
 366.362304688 -150 380.899414062 -142.123046875 390.0234375 -129.958007812 c 2
 500 16.6767578125 l 1
 609.9765625 -129.958007812 l 2
 619.100585938 -142.123046875 633.637695312 -150 650 -150 c 0
EndSplineSet
EndChar

StartChar: sfv_a.8
Encoding: 89 -1 101
Width: 0
Flags: HW
AnchorPoint: "MarkBaseSet" 0 0 mark 0
LayerCount: 2
Fore
SplineSet
650 -150 m 0
 669.580078125 -150 686.545898438 -138.721679688 694.75 -122.3125 c 2
 844.75 177.6875 l 2
 848.109375 184.40625 850 191.984375 850 200 c 0
 850 227.595703125 827.595703125 250 800 250 c 0
 780.419921875 250 763.454101562 238.721679688 755.25 222.3125 c 2
 650 11.8125 l 1
 544.75 222.3125 l 2
 536.545898438 238.721679688 519.580078125 250 500 250 c 0
 480.419921875 250 463.454101562 238.721679688 455.25 222.3125 c 2
 350 11.8125 l 1
 244.75 222.3125 l 2
 236.545898438 238.721679688 219.580078125 250 200 250 c 0
 172.404296875 250 150 227.595703125 150 200 c 0
 150 191.984375 151.890625 184.40625 155.25 177.6875 c 2
 305.25 -122.3125 l 2
 313.454101562 -138.721679688 330.419921875 -150 350 -150 c 0
 369.580078125 -150 386.545898438 -138.721679688 394.75 -122.3125 c 2
 500 88.1875 l 1
 605.25 -122.3125 l 2
 613.454101562 -138.721679688 630.419921875 -150 650 -150 c 0
EndSplineSet
EndChar

StartChar: nsfu_b
Encoding: 90 -1 102
Width: 1000
Flags: H
LayerCount: 2
Fore
SplineSet
800 650 m 2
 200 650 l 2
 172.404296875 650 150 627.595703125 150 600 c 0
 150 572.404296875 172.404296875 550 200 550 c 2
 750 550 l 1
 750 50 l 1
 200 50 l 2
 172.404296875 50 150 27.595703125 150 -1.11022302463e-14 c 0
 150 -27.595703125 172.404296875 -50 200 -50 c 2
 800 -50 l 2
 827.595703125 -50 850 -27.595703125 850 0 c 2
 850 600 l 2
 850 627.595703125 827.595703125 650 800 650 c 2
100 750 m 2
 900 750 l 2
 927.594726562 749.997070312 949.997070312 727.594726562 950 700 c 2
 950 -100 l 2
 949.997070312 -127.594726562 927.594726562 -149.997070312 900 -150 c 2
 100 -150 l 2
 72.4052734375 -149.997070312 50.0029296875 -127.594726562 50 -100 c 2
 50 700 l 2
 50.0029296875 727.594726562 72.4052734375 750 100 750 c 2
EndSplineSet
Substitution2: "Single Substitution lookup 38 subtable" nsfu_b.3
Substitution2: "Single Substitution lookup 34 subtable" nsfu_b.1
Substitution2: "Single Substitution lookup 30 subtable" nsfu_b.3
Substitution2: "Single Substitution lookup 26 subtable" nsfu_b.2
Substitution2: "Single Substitution lookup 24 subtable" nsfu_b.7
Substitution2: "Single Substitution lookup 20 subtable" nsfu_b.5
Substitution2: "Single Substitution lookup 18 subtable" nsfu_b.8
Substitution2: "Single Substitution lookup 14 subtable" nsfu_b.6
Substitution2: "Single Substitution lookup 12 subtable" nsfu_b.7
Substitution2: "Single Substitution lookup 8 subtable" nsfu_b.4
Substitution2: "Single Substitution lookup 6 subtable" nsfu_b.7
Substitution2: "Single Substitution lookup 2 subtable" nsfu_b.5
EndChar

StartChar: nsfu_b.1
Encoding: 91 -1 103
Width: 1000
Flags: H
LayerCount: 2
Fore
SplineSet
200 650 m 2
 172.404296875 650 150 627.595703125 150 600 c 0
 150 572.404296875 172.404296875 550 200 550 c 2
 750 550 l 1
 750 50 l 1
 200 50 l 2
 172.404296875 50 150 27.595703125 150 0 c 0
 150 -27.595703125 172.404296875 -50 200 -50 c 2
 800 -50 l 2
 827.595703125 -50 850 -27.595703125 850 0 c 2
 850 600 l 2
 850 627.595703125 827.595703125 650 800 650 c 2
 200 650 l 2
EndSplineSet
EndChar

StartChar: nsfu_b.2
Encoding: 92 -1 104
Width: 1000
Flags: H
AnchorPoint: "MarkBaseSet" 0 0 basechar 0
LayerCount: 2
Fore
SplineSet
100 650 m 2
 72.404296875 650 50 627.595703125 50 600 c 0
 50 572.404296875 72.404296875 550 100 550 c 2
 450 550 l 1
 450 50 l 1
 100 50 l 2
 72.404296875 50 50 27.595703125 50 0 c 0
 50 -27.595703125 72.404296875 -50 100 -50 c 2
 500 -50 l 2
 527.595703125 -50 550 -27.595703125 550 0 c 2
 550 600 l 2
 550 627.595703125 527.595703125 650 500 650 c 2
 100 650 l 2
EndSplineSet
EndChar

StartChar: nsfu_b.3
Encoding: 93 -1 105
Width: 1000
Flags: H
AnchorPoint: "MarkBaseSet" 0 0 basechar 0
LayerCount: 2
Fore
SplineSet
200 750 m 2
 172.404296875 750 150 727.595703125 150 700 c 0
 150 672.404296875 172.404296875 650 200 650 c 2
 750 650 l 1
 750 350 l 1
 200 350 l 2
 172.404296875 350 150 327.595703125 150 300 c 0
 150 272.404296875 172.404296875 250 200 250 c 2
 800 250 l 2
 827.595703125 250 850 272.404296875 850 300 c 2
 850 700 l 2
 850 727.595703125 827.595703125 750 800 750 c 2
 200 750 l 2
EndSplineSet
EndChar

StartChar: nsfu_b.4
Encoding: 94 -1 106
Width: 1000
Flags: H
AnchorPoint: "MarkBaseSet" 0 0 basechar 0
LayerCount: 2
Fore
SplineSet
100 750 m 2
 72.404296875 750 50 727.595703125 50 700 c 0
 50 672.404296875 72.404296875 650 100 650 c 2
 450 650 l 1
 450 350 l 1
 100 350 l 2
 72.404296875 350 50 327.595703125 50 300 c 0
 50 272.404296875 72.404296875 250 100 250 c 2
 500 250 l 2
 527.595703125 250 550 272.404296875 550 300 c 2
 550 700 l 2
 550 727.595703125 527.595703125 750 500 750 c 2
 100 750 l 2
EndSplineSet
EndChar

StartChar: nsfu_b.5
Encoding: 95 -1 107
Width: 1000
Flags: HW
AnchorPoint: "MarkBaseSet" 0 0 basechar 0
LayerCount: 2
Fore
SplineSet
200 750 m 2
 172.404296875 750 150 727.595703125 150 700 c 0
 150 672.404296875 172.404296875 650 200 650 c 2
 750 650 l 1
 750 550 l 1
 200 550 l 2
 172.404296875 550 150 527.595703125 150 500 c 0
 150 472.404296875 172.404296875 450 200 450 c 2
 800 450 l 2
 827.595703125 450 850 472.404296875 850 500 c 2
 850 700 l 2
 850 727.595703125 827.595703125 750 800 750 c 2
 200 750 l 2
EndSplineSet
EndChar

StartChar: nsfu_b.6
Encoding: 96 -1 108
Width: 1000
Flags: H
AnchorPoint: "MarkBaseSet" 0 0 basechar 0
LayerCount: 2
Fore
SplineSet
200 750 m 2
 172.404296875 750 150 727.595703125 150 700 c 0
 150 672.404296875 172.404296875 650 200 650 c 2
 750 650 l 1
 750 450 l 1
 200 450 l 2
 172.404296875 450 150 427.595703125 150 400 c 0
 150 372.404296875 172.404296875 350 200 350 c 2
 800 350 l 2
 827.595703125 350 850 372.404296875 850 400 c 2
 850 700 l 2
 850 727.595703125 827.595703125 750 800 750 c 2
 200 750 l 2
EndSplineSet
EndChar

StartChar: nsfu_b.7
Encoding: 97 -1 109
Width: 0
Flags: HW
AnchorPoint: "MarkBaseSet" 0 0 mark 0
LayerCount: 2
Fore
SplineSet
200 150 m 2
 172.404296875 150 150 127.595703125 150 100 c 0
 150 72.404296875 172.404296875 50 200 50 c 2
 750 50 l 1
 750 -50 l 1
 200 -50 l 2
 172.404296875 -50 150 -72.404296875 150 -100 c 0
 150 -127.595703125 172.404296875 -150 200 -150 c 2
 800 -150 l 2
 827.595703125 -150 850 -127.595703125 850 -100 c 2
 850 100 l 2
 850 127.595703125 827.595703125 150 800 150 c 2
 200 150 l 2
EndSplineSet
EndChar

StartChar: nsfu_b.8
Encoding: 98 -1 110
Width: 0
Flags: HW
AnchorPoint: "MarkBaseSet" 0 0 mark 0
LayerCount: 2
Fore
SplineSet
200 250 m 2
 172.404296875 250 150 227.595703125 150 200 c 0
 150 172.404296875 172.404296875 150 200 150 c 2
 750 150 l 1
 750 -50 l 1
 200 -50 l 2
 172.404296875 -50 150 -72.404296875 150 -100 c 0
 150 -127.595703125 172.404296875 -150 200 -150 c 2
 800 -150 l 2
 827.595703125 -150 850 -127.595703125 850 -100 c 2
 850 200 l 2
 850 227.595703125 827.595703125 250 800 250 c 2
 200 250 l 2
EndSplineSet
EndChar

StartChar: nsfv_b
Encoding: 99 -1 111
Width: 1000
Flags: H
LayerCount: 2
Fore
SplineSet
800 650 m 2
 600 650 l 2
 572.404296875 650 550 627.595703125 550 600 c 0
 550 572.404296875 572.404296875 550 600 550 c 2
 750 550 l 1
 750 50 l 1
 600 50 l 2
 572.404296875 50 550 27.595703125 550 0 c 0
 550 -27.595703125 572.404296875 -50 600 -50 c 2
 800 -50 l 2
 827.595703125 -50 850 -27.595703125 850 0 c 2
 850 600 l 2
 850 627.595703125 827.595703125 650 800 650 c 2
400 650 m 2
 200 650 l 2
 172.404296875 650 150 627.595703125 150 600 c 0
 150 572.404296875 172.404296875 550 200 550 c 2
 350 550 l 1
 350 50 l 1
 200 50 l 2
 172.404296875 50 150 27.595703125 150 -1.11022302463e-14 c 0
 150 -27.595703125 172.404296875 -50 200 -50 c 2
 400 -50 l 2
 427.595703125 -50 450 -27.595703125 450 0 c 2
 450 600 l 2
 450 627.595703125 427.595703125 650 400 650 c 2
100 750 m 2
 900 750 l 2
 927.594726562 749.997070312 949.997070312 727.594726562 950 700 c 2
 950 -100 l 2
 949.997070312 -127.59375 927.594726562 -149.997070312 900 -150 c 2
 100 -150 l 2
 72.4052734375 -149.997070312 50.0029296875 -127.59375 50 -100 c 2
 50 700 l 2
 50.0029296875 727.594726562 72.4052734375 750 100 750 c 2
EndSplineSet
Substitution2: "Single Substitution lookup 38 subtable" nsfv_b.3
Substitution2: "Single Substitution lookup 34 subtable" nsfv_b.1
Substitution2: "Single Substitution lookup 30 subtable" nsfv_b.3
Substitution2: "Single Substitution lookup 26 subtable" nsfv_b.2
Substitution2: "Single Substitution lookup 24 subtable" nsfv_b.7
Substitution2: "Single Substitution lookup 20 subtable" nsfv_b.5
Substitution2: "Single Substitution lookup 18 subtable" nsfv_b.8
Substitution2: "Single Substitution lookup 14 subtable" nsfv_b.6
Substitution2: "Single Substitution lookup 12 subtable" nsfv_b.7
Substitution2: "Single Substitution lookup 8 subtable" nsfv_b.4
Substitution2: "Single Substitution lookup 6 subtable" nsfv_b.7
Substitution2: "Single Substitution lookup 2 subtable" nsfv_b.5
EndChar

StartChar: nsfv_b.1
Encoding: 100 -1 112
Width: 1000
Flags: H
LayerCount: 2
Fore
SplineSet
200 650 m 2
 172.404296875 650 150 627.595703125 150 600 c 0
 150 572.404296875 172.404296875 550 200 550 c 2
 350 550 l 1
 350 50 l 1
 200 50 l 2
 172.404296875 50 150 27.595703125 150 0 c 0
 150 -27.595703125 172.404296875 -50 200 -50 c 2
 400 -50 l 2
 427.595703125 -50 450 -27.595703125 450 0 c 2
 450 600 l 2
 450 627.595703125 427.595703125 650 400 650 c 2
 200 650 l 2
600 650 m 2
 572.404296875 650 550 627.595703125 550 600 c 0
 550 572.404296875 572.404296875 550 600 550 c 2
 750 550 l 1
 750 50 l 1
 600 50 l 2
 572.404296875 50 550 27.595703125 550 0 c 0
 550 -27.595703125 572.404296875 -50 600 -50 c 2
 800 -50 l 2
 827.595703125 -50 850 -27.595703125 850 0 c 2
 850 600 l 2
 850 627.595703125 827.595703125 650 800 650 c 2
 600 650 l 2
EndSplineSet
EndChar

StartChar: nsfv_b.2
Encoding: 101 -1 113
Width: 1000
Flags: H
AnchorPoint: "MarkBaseSet" 0 0 basechar 0
LayerCount: 2
Fore
SplineSet
100 650 m 2
 72.404296875 650 50 627.595703125 50 600 c 0
 50 572.404296875 72.404296875 550 100 550 c 2
 150 550 l 1
 150 50 l 1
 100 50 l 2
 72.404296875 50 50 27.595703125 50 0 c 0
 50 -27.595703125 72.404296875 -50 100 -50 c 2
 200 -50 l 2
 227.595703125 -50 250 -27.595703125 250 0 c 2
 250 600 l 2
 250 627.595703125 227.595703125 650 200 650 c 2
 100 650 l 2
400 650 m 2
 372.404296875 650 350 627.595703125 350 600 c 0
 350 572.404296875 372.404296875 550 400 550 c 2
 450 550 l 1
 450 50 l 1
 400 50 l 2
 372.404296875 50 350 27.595703125 350 0 c 0
 350 -27.595703125 372.404296875 -50 400 -50 c 2
 500 -50 l 2
 527.595703125 -50 550 -27.595703125 550 0 c 2
 550 600 l 2
 550 627.595703125 527.595703125 650 500 650 c 2
 400 650 l 2
EndSplineSet
EndChar

StartChar: nsfv_b.3
Encoding: 102 -1 114
Width: 1000
Flags: H
AnchorPoint: "MarkBaseSet" 0 0 basechar 0
LayerCount: 2
Fore
SplineSet
200 750 m 2
 172.404296875 750 150 727.595703125 150 700 c 0
 150 672.404296875 172.404296875 650 200 650 c 2
 350 650 l 1
 350 350 l 1
 200 350 l 2
 172.404296875 350 150 327.595703125 150 300 c 0
 150 272.404296875 172.404296875 250 200 250 c 2
 400 250 l 2
 427.595703125 250 450 272.404296875 450 300 c 2
 450 700 l 2
 450 727.595703125 427.595703125 750 400 750 c 2
 200 750 l 2
600 750 m 2
 572.404296875 750 550 727.595703125 550 700 c 0
 550 672.404296875 572.404296875 650 600 650 c 2
 750 650 l 1
 750 350 l 1
 600 350 l 2
 572.404296875 350 550 327.595703125 550 300 c 0
 550 272.404296875 572.404296875 250 600 250 c 2
 800 250 l 2
 827.595703125 250 850 272.404296875 850 300 c 2
 850 700 l 2
 850 727.595703125 827.595703125 750 800 750 c 2
 600 750 l 2
EndSplineSet
EndChar

StartChar: nsfv_b.4
Encoding: 103 -1 115
Width: 1000
Flags: H
AnchorPoint: "MarkBaseSet" 0 0 basechar 0
LayerCount: 2
Fore
SplineSet
100 750 m 2
 72.404296875 750 50 727.595703125 50 700 c 0
 50 672.404296875 72.404296875 650 100 650 c 2
 150 650 l 1
 150 350 l 1
 100 350 l 2
 72.404296875 350 50 327.595703125 50 300 c 0
 50 272.404296875 72.404296875 250 100 250 c 2
 200 250 l 2
 227.595703125 250 250 272.404296875 250 300 c 2
 250 700 l 2
 250 727.595703125 227.595703125 750 200 750 c 2
 100 750 l 2
400 750 m 2
 372.404296875 750 350 727.595703125 350 700 c 0
 350 672.404296875 372.404296875 650 400 650 c 2
 450 650 l 1
 450 350 l 1
 400 350 l 2
 372.404296875 350 350 327.595703125 350 300 c 0
 350 272.404296875 372.404296875 250 400 250 c 2
 500 250 l 2
 527.595703125 250 550 272.404296875 550 300 c 2
 550 700 l 2
 550 727.595703125 527.595703125 750 500 750 c 2
 400 750 l 2
EndSplineSet
EndChar

StartChar: nsfv_b.5
Encoding: 104 -1 116
Width: 1000
Flags: H
AnchorPoint: "MarkBaseSet" 0 0 basechar 0
LayerCount: 2
Fore
SplineSet
200 750 m 2
 172.404296875 750 150 727.595703125 150 700 c 0
 150 672.404296875 172.404296875 650 200 650 c 2
 350 650 l 1
 350 550 l 1
 200 550 l 2
 172.404296875 550 150 527.595703125 150 500 c 0
 150 472.404296875 172.404296875 450 200 450 c 2
 400 450 l 2
 427.595703125 450 450 472.404296875 450 500 c 2
 450 700 l 2
 450 727.595703125 427.595703125 750 400 750 c 2
 200 750 l 2
600 750 m 2
 572.404296875 750 550 727.595703125 550 700 c 0
 550 672.404296875 572.404296875 650 600 650 c 2
 750 650 l 1
 750 550 l 1
 600 550 l 2
 572.404296875 550 550 527.595703125 550 500 c 0
 550 472.404296875 572.404296875 450 600 450 c 2
 800 450 l 2
 827.595703125 450 850 472.404296875 850 500 c 2
 850 700 l 2
 850 727.595703125 827.595703125 750 800 750 c 2
 600 750 l 2
EndSplineSet
EndChar

StartChar: nsfv_b.6
Encoding: 105 -1 117
Width: 1000
Flags: H
AnchorPoint: "MarkBaseSet" 0 0 basechar 0
LayerCount: 2
Fore
SplineSet
200 750 m 2
 172.404296875 750 150 727.595703125 150 700 c 0
 150 672.404296875 172.404296875 650 200 650 c 2
 350 650 l 1
 350 450 l 1
 200 450 l 2
 172.404296875 450 150 427.595703125 150 400 c 0
 150 372.404296875 172.404296875 350 200 350 c 2
 400 350 l 2
 427.595703125 350 450 372.404296875 450 400 c 2
 450 700 l 2
 450 727.595703125 427.595703125 750 400 750 c 2
 200 750 l 2
600 750 m 2
 572.404296875 750 550 727.595703125 550 700 c 0
 550 672.404296875 572.404296875 650 600 650 c 2
 750 650 l 1
 750 450 l 1
 600 450 l 2
 572.404296875 450 550 427.595703125 550 400 c 0
 550 372.404296875 572.404296875 350 600 350 c 2
 800 350 l 2
 827.595703125 350 850 372.404296875 850 400 c 2
 850 700 l 2
 850 727.595703125 827.595703125 750 800 750 c 2
 600 750 l 2
EndSplineSet
EndChar

StartChar: nsfv_b.7
Encoding: 106 -1 118
Width: 0
Flags: HW
AnchorPoint: "MarkBaseSet" 0 0 mark 0
LayerCount: 2
Fore
SplineSet
200 150 m 2
 172.404296875 150 150 127.595703125 150 100 c 0
 150 72.404296875 172.404296875 50 200 50 c 2
 350 50 l 1
 350 -50 l 1
 200 -50 l 2
 172.404296875 -50 150 -72.404296875 150 -100 c 0
 150 -127.595703125 172.404296875 -150 200 -150 c 2
 400 -150 l 2
 427.595703125 -150 450 -127.595703125 450 -100 c 2
 450 100 l 2
 450 127.595703125 427.595703125 150 400 150 c 2
 200 150 l 2
600 150 m 2
 572.404296875 150 550 127.595703125 550 100 c 0
 550 72.404296875 572.404296875 50 600 50 c 2
 750 50 l 1
 750 -50 l 1
 600 -50 l 2
 572.404296875 -50 550 -72.404296875 550 -100 c 0
 550 -127.595703125 572.404296875 -150 600 -150 c 2
 800 -150 l 2
 827.595703125 -150 850 -127.595703125 850 -100 c 2
 850 100 l 2
 850 127.595703125 827.595703125 150 800 150 c 2
 600 150 l 2
EndSplineSet
EndChar

StartChar: nsfv_b.8
Encoding: 107 -1 119
Width: 0
Flags: HW
AnchorPoint: "MarkBaseSet" 0 0 mark 0
LayerCount: 2
Fore
SplineSet
200 250 m 2
 172.404296875 250 150 227.595703125 150 200 c 0
 150 172.404296875 172.404296875 150 200 150 c 2
 350 150 l 1
 350 -50 l 1
 200 -50 l 2
 172.404296875 -50 150 -72.404296875 150 -100 c 0
 150 -127.595703125 172.404296875 -150 200 -150 c 2
 400 -150 l 2
 427.595703125 -150 450 -127.595703125 450 -100 c 2
 450 200 l 2
 450 227.595703125 427.595703125 250 400 250 c 2
 200 250 l 2
600 250 m 2
 572.404296875 250 550 227.595703125 550 200 c 0
 550 172.404296875 572.404296875 150 600 150 c 2
 750 150 l 1
 750 -50 l 1
 600 -50 l 2
 572.404296875 -50 550 -72.404296875 550 -100 c 0
 550 -127.595703125 572.404296875 -150 600 -150 c 2
 800 -150 l 2
 827.595703125 -150 850 -127.595703125 850 -100 c 2
 850 200 l 2
 850 227.595703125 827.595703125 250 800 250 c 2
 600 250 l 2
EndSplineSet
EndChar

StartChar: nsfu_a
Encoding: 108 -1 120
Width: 1000
Flags: H
LayerCount: 2
Fore
SplineSet
800 650 m 2
 200 650 l 2
 172.404296875 650 150 627.595703125 150 600 c 0
 150 572.404296875 172.404296875 550 200 550 c 2
 750 550 l 1
 750 0 l 2
 750 -27.595703125 772.404296875 -50 800 -50 c 0
 827.595703125 -50 850 -27.595703125 850 0 c 2
 850 600 l 2
 850 627.595703125 827.595703125 650 800 650 c 2
100 750 m 2
 900 750 l 2
 927.594726562 749.997070312 949.997070312 727.594726562 950 700 c 2
 950 -100 l 2
 949.997070312 -127.594726562 927.594726562 -149.997070312 900 -150 c 2
 100 -150 l 2
 72.4052734375 -149.997070312 50.0029296875 -127.594726562 50 -100 c 2
 50 700 l 2
 50.0029296875 727.594726562 72.4052734375 750 100 750 c 2
EndSplineSet
Substitution2: "Single Substitution lookup 38 subtable" nsfu_a.3
Substitution2: "Single Substitution lookup 34 subtable" nsfu_a.1
Substitution2: "Single Substitution lookup 30 subtable" nsfu_a.3
Substitution2: "Single Substitution lookup 26 subtable" nsfu_a.2
Substitution2: "Single Substitution lookup 24 subtable" nsfu_a.7
Substitution2: "Single Substitution lookup 20 subtable" nsfu_a.5
Substitution2: "Single Substitution lookup 18 subtable" nsfu_a.8
Substitution2: "Single Substitution lookup 14 subtable" nsfu_a.6
Substitution2: "Single Substitution lookup 12 subtable" nsfu_a.7
Substitution2: "Single Substitution lookup 8 subtable" nsfu_a.4
Substitution2: "Single Substitution lookup 6 subtable" nsfu_a.7
Substitution2: "Single Substitution lookup 2 subtable" nsfu_a.5
EndChar

StartChar: nsfu_a.1
Encoding: 109 -1 121
Width: 1000
Flags: H
LayerCount: 2
Fore
SplineSet
200 650 m 2
 172.404296875 650 150 627.595703125 150 600 c 0
 150 572.404296875 172.404296875 550 200 550 c 2
 750 550 l 1
 750 0 l 2
 750 -27.595703125 772.404296875 -50 800 -50 c 0
 827.595703125 -50 850 -27.595703125 850 0 c 2
 850 600 l 2
 850 627.595703125 827.595703125 650 800 650 c 2
 200 650 l 2
EndSplineSet
EndChar

StartChar: nsfu_a.2
Encoding: 110 -1 122
Width: 1000
Flags: H
AnchorPoint: "MarkBaseSet" 0 0 basechar 0
LayerCount: 2
Fore
SplineSet
100 650 m 2
 72.404296875 650 50 627.595703125 50 600 c 0
 50 572.404296875 72.404296875 550 100 550 c 2
 450 550 l 1
 450 0 l 2
 450 -27.595703125 472.404296875 -50 500 -50 c 0
 527.595703125 -50 550 -27.595703125 550 0 c 2
 550 600 l 2
 550 627.595703125 527.595703125 650 500 650 c 2
 100 650 l 2
EndSplineSet
EndChar

StartChar: nsfu_a.3
Encoding: 111 -1 123
Width: 1000
Flags: H
AnchorPoint: "MarkBaseSet" 0 0 basechar 0
LayerCount: 2
Fore
SplineSet
200 750 m 2
 172.404296875 750 150 727.595703125 150 700 c 0
 150 672.404296875 172.404296875 650 200 650 c 2
 750 650 l 1
 750 300 l 2
 750 272.404296875 772.404296875 250 800 250 c 0
 827.595703125 250 850 272.404296875 850 300 c 2
 850 700 l 2
 850 727.595703125 827.595703125 750 800 750 c 2
 200 750 l 2
EndSplineSet
EndChar

StartChar: nsfu_a.4
Encoding: 112 -1 124
Width: 1000
Flags: H
AnchorPoint: "MarkBaseSet" 0 0 basechar 0
LayerCount: 2
Fore
SplineSet
100 750 m 2
 72.404296875 750 50 727.595703125 50 700 c 0
 50 672.404296875 72.404296875 650 100 650 c 2
 450 650 l 1
 450 300 l 2
 450 272.404296875 472.404296875 250 500 250 c 0
 527.595703125 250 550 272.404296875 550 300 c 2
 550 700 l 2
 550 727.595703125 527.595703125 750 500 750 c 2
 100 750 l 2
EndSplineSet
EndChar

StartChar: nsfu_a.5
Encoding: 113 -1 125
Width: 1000
Flags: H
AnchorPoint: "MarkBaseSet" 0 0 basechar 0
LayerCount: 2
Fore
SplineSet
200 750 m 2
 172.404296875 750 150 727.595703125 150 700 c 0
 150 672.404296875 172.404296875 650 200 650 c 2
 750 650 l 1
 750 500 l 2
 750 472.404296875 772.404296875 450 800 450 c 0
 827.595703125 450 850 472.404296875 850 500 c 2
 850 700 l 2
 850 727.595703125 827.595703125 750 800 750 c 2
 200 750 l 2
EndSplineSet
EndChar

StartChar: nsfu_a.6
Encoding: 114 -1 126
Width: 1000
Flags: H
AnchorPoint: "MarkBaseSet" 0 0 basechar 0
LayerCount: 2
Fore
SplineSet
200 750 m 2
 172.404296875 750 150 727.595703125 150 700 c 0
 150 672.404296875 172.404296875 650 200 650 c 2
 750 650 l 1
 750 400 l 2
 750 372.404296875 772.404296875 350 800 350 c 0
 827.595703125 350 850 372.404296875 850 400 c 2
 850 700 l 2
 850 727.595703125 827.595703125 750 800 750 c 2
 200 750 l 2
EndSplineSet
EndChar

StartChar: nsfu_a.7
Encoding: 115 -1 127
Width: 0
Flags: HW
AnchorPoint: "MarkBaseSet" 0 0 mark 0
LayerCount: 2
Fore
SplineSet
200 150 m 2
 172.404296875 150 150 127.595703125 150 100 c 0
 150 72.404296875 172.404296875 50 200 50 c 2
 750 50 l 1
 750 -100 l 2
 750 -127.595703125 772.404296875 -150 800 -150 c 0
 827.595703125 -150 850 -127.595703125 850 -100 c 2
 850 100 l 2
 850 127.595703125 827.595703125 150 800 150 c 2
 200 150 l 2
EndSplineSet
EndChar

StartChar: nsfu_a.8
Encoding: 116 -1 128
Width: 0
Flags: HW
AnchorPoint: "MarkBaseSet" 0 0 mark 0
LayerCount: 2
Fore
SplineSet
200 250 m 2
 172.404296875 250 150 227.595703125 150 200 c 0
 150 172.404296875 172.404296875 150 200 150 c 2
 750 150 l 1
 750 -100 l 2
 750 -127.595703125 772.404296875 -150 800 -150 c 0
 827.595703125 -150 850 -127.595703125 850 -100 c 2
 850 200 l 2
 850 227.595703125 827.595703125 250 800 250 c 2
 200 250 l 2
EndSplineSet
EndChar

StartChar: av_a
Encoding: 117 -1 129
Width: 1000
Flags: H
LayerCount: 2
Fore
SplineSet
800 650 m 2
 600 650 l 2
 572.404296875 650 550 627.595703125 550 600 c 0
 550 572.404296875 572.404296875 550 600 550 c 2
 750 550 l 1
 750 0 l 2
 750 -27.595703125 772.404296875 -50 800 -50 c 0
 827.595703125 -50 850 -27.595703125 850 0 c 2
 850 600 l 2
 850 627.595703125 827.595703125 650 800 650 c 2
400 650 m 2
 200 650 l 2
 172.404296875 650 150 627.595703125 150 600 c 0
 150 572.404296875 172.404296875 550 200 550 c 2
 350 550 l 1
 350 0 l 2
 350 -27.595703125 372.404296875 -50 400 -50 c 0
 427.595703125 -50 450 -27.595703125 450 0 c 2
 450 600 l 2
 450 627.595703125 427.595703125 650 400 650 c 2
100 750 m 2
 900 750 l 2
 927.594726562 749.997070312 949.997070312 727.594726562 950 700 c 2
 950 -100 l 2
 949.997070312 -127.59375 927.594726562 -149.997070312 900 -150 c 2
 100 -150 l 2
 72.4052734375 -149.997070312 50.0029296875 -127.59375 50 -100 c 2
 50 700 l 2
 50.0029296875 727.594726562 72.4052734375 750 100 750 c 2
EndSplineSet
Substitution2: "Single Substitution lookup 38 subtable" av_a.3
Substitution2: "Single Substitution lookup 34 subtable" av_a.1
Substitution2: "Single Substitution lookup 30 subtable" av_a.3
Substitution2: "Single Substitution lookup 26 subtable" av_a.2
Substitution2: "Single Substitution lookup 24 subtable" av_a.7
Substitution2: "Single Substitution lookup 20 subtable" av_a.5
Substitution2: "Single Substitution lookup 18 subtable" av_a.8
Substitution2: "Single Substitution lookup 14 subtable" av_a.6
Substitution2: "Single Substitution lookup 12 subtable" av_a.7
Substitution2: "Single Substitution lookup 8 subtable" av_a.4
Substitution2: "Single Substitution lookup 6 subtable" av_a.7
Substitution2: "Single Substitution lookup 2 subtable" av_a.5
EndChar

StartChar: av_a.1
Encoding: 118 -1 130
Width: 1000
Flags: H
LayerCount: 2
Fore
SplineSet
200 650 m 2
 172.404296875 650 150 627.595703125 150 600 c 0
 150 572.404296875 172.404296875 550 200 550 c 2
 350 550 l 1
 350 0 l 2
 350 -27.595703125 372.404296875 -50 400 -50 c 0
 427.595703125 -50 450 -27.595703125 450 0 c 2
 450 600 l 2
 450 627.595703125 427.595703125 650 400 650 c 2
 200 650 l 2
600 650 m 2
 572.404296875 650 550 627.595703125 550 600 c 0
 550 572.404296875 572.404296875 550 600 550 c 2
 750 550 l 1
 750 0 l 2
 750 -27.595703125 772.404296875 -50 800 -50 c 0
 827.595703125 -50 850 -27.595703125 850 0 c 2
 850 600 l 2
 850 627.595703125 827.595703125 650 800 650 c 2
 600 650 l 2
EndSplineSet
EndChar

StartChar: av_a.2
Encoding: 119 -1 131
Width: 1000
Flags: H
AnchorPoint: "MarkBaseSet" 0 0 basechar 0
LayerCount: 2
Fore
SplineSet
100 650 m 2
 72.404296875 650 50 627.595703125 50 600 c 0
 50 572.404296875 72.404296875 550 100 550 c 2
 150 550 l 1
 150 0 l 2
 150 -27.595703125 172.404296875 -50 200 -50 c 0
 227.595703125 -50 250 -27.595703125 250 0 c 2
 250 600 l 2
 250 627.595703125 227.595703125 650 200 650 c 2
 100 650 l 2
400 650 m 2
 372.404296875 650 350 627.595703125 350 600 c 0
 350 572.404296875 372.404296875 550 400 550 c 2
 450 550 l 1
 450 0 l 2
 450 -27.595703125 472.404296875 -50 500 -50 c 0
 527.595703125 -50 550 -27.595703125 550 0 c 2
 550 600 l 2
 550 627.595703125 527.595703125 650 500 650 c 2
 400 650 l 2
EndSplineSet
EndChar

StartChar: av_a.3
Encoding: 120 -1 132
Width: 1000
Flags: H
AnchorPoint: "MarkBaseSet" 0 0 basechar 0
LayerCount: 2
Fore
SplineSet
200 750 m 2
 172.404296875 750 150 727.595703125 150 700 c 0
 150 672.404296875 172.404296875 650 200 650 c 2
 350 650 l 1
 350 300 l 2
 350 272.404296875 372.404296875 250 400 250 c 0
 427.595703125 250 450 272.404296875 450 300 c 2
 450 700 l 2
 450 727.595703125 427.595703125 750 400 750 c 2
 200 750 l 2
600 750 m 2
 572.404296875 750 550 727.595703125 550 700 c 0
 550 672.404296875 572.404296875 650 600 650 c 2
 750 650 l 1
 750 300 l 2
 750 272.404296875 772.404296875 250 800 250 c 0
 827.595703125 250 850 272.404296875 850 300 c 2
 850 700 l 2
 850 727.595703125 827.595703125 750 800 750 c 2
 600 750 l 2
EndSplineSet
EndChar

StartChar: av_a.4
Encoding: 121 -1 133
Width: 1000
Flags: H
AnchorPoint: "MarkBaseSet" 0 0 basechar 0
LayerCount: 2
Fore
SplineSet
100 750 m 2
 72.404296875 750 50 727.595703125 50 700 c 0
 50 672.404296875 72.404296875 650 100 650 c 2
 150 650 l 1
 150 300 l 2
 150 272.404296875 172.404296875 250 200 250 c 0
 227.595703125 250 250 272.404296875 250 300 c 2
 250 700 l 2
 250 727.595703125 227.595703125 750 200 750 c 2
 100 750 l 2
400 750 m 2
 372.404296875 750 350 727.595703125 350 700 c 0
 350 672.404296875 372.404296875 650 400 650 c 2
 450 650 l 1
 450 300 l 2
 450 272.404296875 472.404296875 250 500 250 c 0
 527.595703125 250 550 272.404296875 550 300 c 2
 550 700 l 2
 550 727.595703125 527.595703125 750 500 750 c 2
 400 750 l 2
EndSplineSet
EndChar

StartChar: av_a.5
Encoding: 122 -1 134
Width: 1000
Flags: H
AnchorPoint: "MarkBaseSet" 0 0 basechar 0
LayerCount: 2
Fore
SplineSet
200 750 m 2
 172.404296875 750 150 727.595703125 150 700 c 0
 150 672.404296875 172.404296875 650 200 650 c 2
 350 650 l 1
 350 500 l 2
 350 472.404296875 372.404296875 450 400 450 c 0
 427.595703125 450 450 472.404296875 450 500 c 2
 450 700 l 2
 450 727.595703125 427.595703125 750 400 750 c 2
 200 750 l 2
600 750 m 2
 572.404296875 750 550 727.595703125 550 700 c 0
 550 672.404296875 572.404296875 650 600 650 c 2
 750 650 l 1
 750 500 l 2
 750 472.404296875 772.404296875 450 800 450 c 0
 827.595703125 450 850 472.404296875 850 500 c 2
 850 700 l 2
 850 727.595703125 827.595703125 750 800 750 c 2
 600 750 l 2
EndSplineSet
EndChar

StartChar: av_a.6
Encoding: 123 -1 135
Width: 1000
Flags: H
AnchorPoint: "MarkBaseSet" 0 0 basechar 0
LayerCount: 2
Fore
SplineSet
200 750 m 2
 172.404296875 750 150 727.595703125 150 700 c 0
 150 672.404296875 172.404296875 650 200 650 c 2
 350 650 l 1
 350 400 l 2
 350 372.404296875 372.404296875 350 400 350 c 0
 427.595703125 350 450 372.404296875 450 400 c 2
 450 700 l 2
 450 727.595703125 427.595703125 750 400 750 c 2
 200 750 l 2
600 750 m 2
 572.404296875 750 550 727.595703125 550 700 c 0
 550 672.404296875 572.404296875 650 600 650 c 2
 750 650 l 1
 750 400 l 2
 750 372.404296875 772.404296875 350 800 350 c 0
 827.595703125 350 850 372.404296875 850 400 c 2
 850 700 l 2
 850 727.595703125 827.595703125 750 800 750 c 2
 600 750 l 2
EndSplineSet
EndChar

StartChar: av_a.7
Encoding: 124 -1 136
Width: 0
Flags: HW
AnchorPoint: "MarkBaseSet" 0 0 mark 0
LayerCount: 2
Fore
SplineSet
200 150 m 2
 172.404296875 150 150 127.595703125 150 100 c 0
 150 72.404296875 172.404296875 50 200 50 c 2
 350 50 l 1
 350 -100 l 2
 350 -127.595703125 372.404296875 -150 400 -150 c 0
 427.595703125 -150 450 -127.595703125 450 -100 c 2
 450 100 l 2
 450 127.595703125 427.595703125 150 400 150 c 2
 200 150 l 2
600 150 m 2
 572.404296875 150 550 127.595703125 550 100 c 0
 550 72.404296875 572.404296875 50 600 50 c 2
 750 50 l 1
 750 -100 l 2
 750 -127.595703125 772.404296875 -150 800 -150 c 0
 827.595703125 -150 850 -127.595703125 850 -100 c 2
 850 100 l 2
 850 127.595703125 827.595703125 150 800 150 c 2
 600 150 l 2
EndSplineSet
EndChar

StartChar: av_a.8
Encoding: 125 -1 137
Width: 0
Flags: HW
AnchorPoint: "MarkBaseSet" 0 0 mark 0
LayerCount: 2
Fore
SplineSet
200 250 m 2
 172.404296875 250 150 227.595703125 150 200 c 0
 150 172.404296875 172.404296875 150 200 150 c 2
 350 150 l 1
 350 -100 l 2
 350 -127.595703125 372.404296875 -150 400 -150 c 0
 427.595703125 -150 450 -127.595703125 450 -100 c 2
 450 200 l 2
 450 227.595703125 427.595703125 250 400 250 c 2
 200 250 l 2
600 250 m 2
 572.404296875 250 550 227.595703125 550 200 c 0
 550 172.404296875 572.404296875 150 600 150 c 2
 750 150 l 1
 750 -100 l 2
 750 -127.595703125 772.404296875 -150 800 -150 c 0
 827.595703125 -150 850 -127.595703125 850 -100 c 2
 850 200 l 2
 850 227.595703125 827.595703125 250 800 250 c 2
 600 250 l 2
EndSplineSet
EndChar

StartChar: pu_g_m
Encoding: 126 -1 138
Width: 1000
Flags: H
LayerCount: 2
Fore
SplineSet
500 650 m 0
 306.731447129 650 150.000002948 493.268557636 150 300.000005452 c 0
 150 106.731445312 306.731445312 -50 500 -50 c 0
 693.268554688 -50 850 106.731445312 850 300 c 0
 850 493.268554688 693.268554688 650 500 650 c 0
100 750 m 2
 900 750 l 2
 927.594726562 749.997070312 949.997070312 727.594726562 950 700 c 2
 950 -100 l 2
 949.997070312 -127.594726562 927.594726562 -149.997070312 900 -150 c 2
 100 -150 l 2
 72.4052734375 -149.997070312 50.0029296875 -127.594726562 50 -100 c 2
 50 700 l 2
 50.0029296875 727.594726562 72.4052734375 750 100 750 c 2
250 300 m 0
 250 438.102539062 361.897460938 550 500 550 c 0
 638.102539062 550 750 438.102539062 750 300 c 0
 750 161.897460938 638.102539062 50 500 50 c 0
 361.897460938 50 250 161.897460938 250 300 c 0
EndSplineSet
Substitution2: "Single Substitution lookup 38 subtable" pu_g_m.3
Substitution2: "Single Substitution lookup 34 subtable" pu_g_m.1
Substitution2: "Single Substitution lookup 30 subtable" pu_g_m.3
Substitution2: "Single Substitution lookup 26 subtable" pu_g_m.2
Substitution2: "Single Substitution lookup 24 subtable" pu_g_m.7
Substitution2: "Single Substitution lookup 20 subtable" pu_g_m.5
Substitution2: "Single Substitution lookup 18 subtable" pu_g_m.8
Substitution2: "Single Substitution lookup 14 subtable" pu_g_m.6
Substitution2: "Single Substitution lookup 12 subtable" pu_g_m.7
Substitution2: "Single Substitution lookup 8 subtable" pu_g_m.4
Substitution2: "Single Substitution lookup 6 subtable" pu_g_m.7
Substitution2: "Single Substitution lookup 2 subtable" pu_g_m.5
EndChar

StartChar: pu_g_m.1
Encoding: 127 -1 139
Width: 1000
Flags: H
LayerCount: 2
Fore
SplineSet
250 300 m 0
 250 438.102539062 361.897460938 550 500 550 c 0
 638.102539062 550 750 438.102539062 750 300 c 0
 750 161.897460938 638.102539062 50 500 50 c 0
 361.897460938 50 250 161.897460938 250 300 c 0
150 300 m 0
 150 106.731445312 306.731445312 -50 500 -50 c 0
 693.268554688 -50 850 106.731445312 850 300 c 0
 850 493.268554688 693.268554688 650 500 650 c 0
 306.731445312 650 150 493.268554688 150 300 c 0
EndSplineSet
EndChar

StartChar: pu_g_m.2
Encoding: 128 -1 140
Width: 1000
Flags: HW
AnchorPoint: "MarkBaseSet" 0 0 basechar 0
LayerCount: 2
Fore
SplineSet
150 300 m 0
 150 393.540039062 182.913085938 478.309570312 232.03515625 521.471679688 c 0
 254.31640625 541.049804688 277.229492188 550 300 550 c 0
 322.770507812 550 345.68359375 541.049804688 367.96484375 521.471679688 c 0
 417.044921875 478.345703125 450 393.502929688 450 300 c 0
 450 206.459960938 417.086914062 121.690429688 367.96484375 78.5283203125 c 0
 345.68359375 58.9501953125 322.770507812 50 300 50 c 0
 277.229492188 50 254.31640625 58.9501953125 232.03515625 78.5283203125 c 0
 182.955078125 121.654296875 150 206.497070312 150 300 c 0
50 300 m 0
 50 173.35546875 96.1005859375 64.8759765625 166.077148438 3.3896484375 c 0
 203.055664062 -29.1025390625 249.1328125 -50 300 -50 c 0
 350.8671875 -50 396.944335938 -29.1025390625 433.922851562 3.3896484375 c 0
 503.9296875 64.90234375 550 173.326171875 550 300 c 0
 550 426.64453125 503.899414062 535.124023438 433.922851562 596.610351562 c 0
 396.944335938 629.102539062 350.8671875 650 300 650 c 0
 249.1328125 650 203.055664062 629.102539062 166.077148438 596.610351562 c 0
 96.0703125 535.09765625 50 426.673828125 50 300 c 0
EndSplineSet
EndChar

StartChar: pu_g_m.3
Encoding: 129 -1 141
Width: 1000
Flags: H
AnchorPoint: "MarkBaseSet" 0 0 basechar 0
LayerCount: 2
Fore
SplineSet
250 500 m 0
 250 522.770507812 258.950195312 545.68359375 278.528320312 567.96484375 c 0
 321.654296875 617.044921875 406.497070312 650 500 650 c 0
 593.540039062 650 678.309570312 617.086914062 721.471679688 567.96484375 c 0
 741.049804688 545.68359375 750 522.770507812 750 500 c 0
 750 477.229492188 741.049804688 454.31640625 721.471679688 432.03515625 c 0
 678.345703125 382.955078125 593.502929688 350 500 350 c 0
 406.459960938 350 321.690429688 382.913085938 278.528320312 432.03515625 c 0
 258.950195312 454.31640625 250 477.229492188 250 500 c 0
150 500 m 0
 150 449.1328125 170.897460938 403.055664062 203.389648438 366.077148438 c 0
 264.90234375 296.0703125 373.326171875 250 500 250 c 0
 626.64453125 250 735.124023438 296.100585938 796.610351562 366.077148438 c 0
 829.102539062 403.055664062 850 449.1328125 850 500 c 0
 850 550.8671875 829.102539062 596.944335938 796.610351562 633.922851562 c 0
 735.09765625 703.9296875 626.673828125 750 500 750 c 0
 373.35546875 750 264.875976562 703.899414062 203.389648438 633.922851562 c 0
 170.897460938 596.944335938 150 550.8671875 150 500 c 0
EndSplineSet
EndChar

StartChar: pu_g_m.4
Encoding: 130 -1 142
Width: 1000
Flags: H
AnchorPoint: "MarkBaseSet" 0 0 basechar 0
LayerCount: 2
Fore
SplineSet
150 500 m 0
 150 582.874023438 217.125976562 650 300 650 c 0
 382.874023438 650 450 582.874023438 450 500 c 0
 450 417.125976562 382.874023438 350 300 350 c 0
 217.125976562 350 150 417.125976562 150 500 c 0
50 500 m 0
 50 361.959960938 161.959960938 250 300 250 c 0
 438.040039062 250 550 361.959960938 550 500 c 0
 550 638.040039062 438.040039062 750 300 750 c 0
 161.959960938 750 50 638.040039062 50 500 c 0
EndSplineSet
EndChar

StartChar: pu_g_m.5
Encoding: 131 -1 143
Width: 1000
Flags: H
AnchorPoint: "MarkBaseSet" 0 0 basechar 0
LayerCount: 2
Fore
SplineSet
500 550 m 0
 432.384765625 550 370.4140625 558.072265625 324.169921875 570.581054688 c 0
 303.666015625 576.126953125 286.349609375 582.541992188 273.482421875 588.872070312 c 0
 265.353515625 592.872070312 259.104492188 596.841796875 254.958984375 600.014648438 c 1
 266.46875 608.823242188 281.8515625 616.131835938 305.426757812 623.84375 c 0
 352.786132812 639.334960938 422.720703125 650 500 650 c 0
 567.615234375 650 629.5859375 641.927734375 675.830078125 629.418945312 c 0
 696.333984375 623.873046875 713.650390625 617.458007812 726.517578125 611.127929688 c 0
 734.646484375 607.127929688 740.895507812 603.158203125 745.041015625 599.985351562 c 1
 733.53125 591.176757812 718.1484375 583.868164062 694.573242188 576.15625 c 0
 647.213867188 560.665039062 577.279296875 550 500 550 c 0
150 600 m 0
 150 584.592773438 154.318359375 570.235351562 160.889648438 558.166015625 c 0
 173.989257812 534.110351562 194.435546875 518.471679688 216.283203125 506.0390625 c 0
 245.813476562 489.236328125 281.799804688 477.04296875 323.188476562 467.865234375 c 0
 374.893554688 456.399414062 435.2265625 450 500 450 c 0
 564.7734375 450 625.106445312 456.399414062 676.811523438 467.865234375 c 0
 718.200195312 477.04296875 754.186523438 489.236328125 783.716796875 506.0390625 c 0
 805.564453125 518.471679688 826.010742188 534.110351562 839.110351562 558.166015625 c 0
 845.681640625 570.235351562 850 584.592773438 850 600 c 0
 850 615.407226562 845.681640625 629.764648438 839.110351562 641.833984375 c 0
 826.010742188 665.889648438 805.564453125 681.528320312 783.716796875 693.9609375 c 0
 754.186523438 710.763671875 718.200195312 722.95703125 676.811523438 732.134765625 c 0
 625.106445312 743.600585938 564.7734375 750 500 750 c 0
 435.2265625 750 374.893554688 743.600585938 323.188476562 732.134765625 c 0
 281.799804688 722.95703125 245.813476562 710.763671875 216.283203125 693.9609375 c 0
 194.435546875 681.528320312 173.989257812 665.889648438 160.889648438 641.833984375 c 0
 154.318359375 629.764648438 150 615.407226562 150 600 c 0
EndSplineSet
EndChar

StartChar: pu_g_m.6
Encoding: 132 -1 144
Width: 1000
Flags: H
AnchorPoint: "MarkBaseSet" 0 0 basechar 0
LayerCount: 2
Fore
SplineSet
250 550 m 0
 250 558.466796875 254.381835938 571.439453125 273.391601562 587.665039062 c 0
 319.891601562 627.35546875 409.235351562 650 500 650 c 0
 556.278320312 650 608.405273438 641.416992188 650.181640625 627.521484375 c 0
 683.6328125 616.39453125 710.020507812 601.82421875 726.608398438 587.665039062 c 0
 745.618164062 571.439453125 750 558.466796875 750 550 c 0
 750 541.533203125 745.618164062 528.560546875 726.608398438 512.334960938 c 0
 680.108398438 472.64453125 590.764648438 450 500 450 c 0
 443.721679688 450 391.594726562 458.583007812 349.818359375 472.478515625 c 0
 316.3671875 483.60546875 289.979492188 498.17578125 273.391601562 512.334960938 c 0
 254.381835938 528.560546875 250 541.533203125 250 550 c 0
150 550 m 0
 150 503.23828125 175.465820312 464.467773438 208.525390625 436.25 c 0
 238.221679688 410.90234375 275.676757812 391.733398438 318.271484375 377.564453125 c 0
 371.551757812 359.841796875 433.547851562 350 500 350 c 0
 566.452148438 350 628.448242188 359.841796875 681.728515625 377.564453125 c 0
 724.323242188 391.733398438 761.778320312 410.90234375 791.474609375 436.25 c 0
 824.534179688 464.467773438 850 503.23828125 850 550 c 0
 850 596.76171875 824.534179688 635.532226562 791.474609375 663.75 c 0
 761.778320312 689.09765625 724.323242188 708.266601562 681.728515625 722.435546875 c 0
 628.448242188 740.158203125 566.452148438 750 500 750 c 0
 433.547851562 750 371.551757812 740.158203125 318.271484375 722.435546875 c 0
 275.676757812 708.266601562 238.221679688 689.09765625 208.525390625 663.75 c 0
 175.465820312 635.532226562 150 596.76171875 150 550 c 0
EndSplineSet
EndChar

StartChar: pu_g_m.7
Encoding: 133 -1 145
Width: 0
Flags: HW
AnchorPoint: "MarkBaseSet" 0 0 mark 0
LayerCount: 2
Fore
SplineSet
500 -50 m 0
 432.384765625 -50 370.4140625 -41.927734375 324.169921875 -29.4189453125 c 0
 303.666015625 -23.873046875 286.349609375 -17.4580078125 273.482421875 -11.1279296875 c 0
 265.353515625 -7.1279296875 259.104492188 -3.158203125 254.958984375 0.0146484375 c 1
 266.46875 8.8232421875 281.8515625 16.1318359375 305.426757812 23.84375 c 0
 352.786132812 39.3349609375 422.720703125 50 500 50 c 0
 567.615234375 50 629.5859375 41.927734375 675.830078125 29.4189453125 c 0
 696.333984375 23.873046875 713.650390625 17.4580078125 726.517578125 11.1279296875 c 0
 734.646484375 7.1279296875 740.895507812 3.158203125 745.041015625 -0.0146484375 c 1
 733.53125 -8.8232421875 718.1484375 -16.1318359375 694.573242188 -23.84375 c 0
 647.213867188 -39.3349609375 577.279296875 -50 500 -50 c 0
150 0 m 0
 150 -15.4072265625 154.318359375 -29.7646484375 160.889648438 -41.833984375 c 0
 173.989257812 -65.8896484375 194.435546875 -81.5283203125 216.283203125 -93.9609375 c 0
 245.813476562 -110.763671875 281.799804688 -122.95703125 323.188476562 -132.134765625 c 0
 374.893554688 -143.600585938 435.2265625 -150 500 -150 c 0
 564.7734375 -150 625.106445312 -143.600585938 676.811523438 -132.134765625 c 0
 718.200195312 -122.95703125 754.186523438 -110.763671875 783.716796875 -93.9609375 c 0
 805.564453125 -81.5283203125 826.010742188 -65.8896484375 839.110351562 -41.833984375 c 0
 845.681640625 -29.7646484375 850 -15.4072265625 850 0 c 0
 850 15.4072265625 845.681640625 29.7646484375 839.110351562 41.833984375 c 0
 826.010742188 65.8896484375 805.564453125 81.5283203125 783.716796875 93.9609375 c 0
 754.186523438 110.763671875 718.200195312 122.95703125 676.811523438 132.134765625 c 0
 625.106445312 143.600585938 564.7734375 150 500 150 c 0
 435.2265625 150 374.893554688 143.600585938 323.188476562 132.134765625 c 0
 281.799804688 122.95703125 245.813476562 110.763671875 216.283203125 93.9609375 c 0
 194.435546875 81.5283203125 173.989257812 65.8896484375 160.889648438 41.833984375 c 0
 154.318359375 29.7646484375 150 15.4072265625 150 0 c 0
EndSplineSet
EndChar

StartChar: pu_g_m.8
Encoding: 134 -1 146
Width: 0
Flags: HW
AnchorPoint: "MarkBaseSet" 0 0 mark 0
LayerCount: 2
Fore
SplineSet
250 50 m 0
 250 58.466796875 254.381835938 71.439453125 273.391601562 87.6650390625 c 0
 319.891601562 127.35546875 409.235351562 150 500 150 c 0
 556.278320312 150 608.405273438 141.416992188 650.181640625 127.521484375 c 0
 683.6328125 116.39453125 710.020507812 101.82421875 726.608398438 87.6650390625 c 0
 745.618164062 71.439453125 750 58.466796875 750 50 c 0
 750 41.533203125 745.618164062 28.560546875 726.608398438 12.3349609375 c 0
 680.108398438 -27.35546875 590.764648438 -50 500 -50 c 0
 443.721679688 -50 391.594726562 -41.4169921875 349.818359375 -27.521484375 c 0
 316.3671875 -16.39453125 289.979492188 -1.82421875 273.391601562 12.3349609375 c 0
 254.381835938 28.560546875 250 41.533203125 250 50 c 0
150 50 m 0
 150 3.23828125 175.465820312 -35.5322265625 208.525390625 -63.75 c 0
 238.221679688 -89.09765625 275.676757812 -108.266601562 318.271484375 -122.435546875 c 0
 371.551757812 -140.158203125 433.547851562 -150 500 -150 c 0
 566.452148438 -150 628.448242188 -140.158203125 681.728515625 -122.435546875 c 0
 724.323242188 -108.266601562 761.778320312 -89.09765625 791.474609375 -63.75 c 0
 824.534179688 -35.5322265625 850 3.23828125 850 50 c 0
 850 96.76171875 824.534179688 135.532226562 791.474609375 163.75 c 0
 761.778320312 189.09765625 724.323242188 208.266601562 681.728515625 222.435546875 c 0
 628.448242188 240.158203125 566.452148438 250 500 250 c 0
 433.547851562 250 371.551757812 240.158203125 318.271484375 222.435546875 c 0
 275.676757812 208.266601562 238.221679688 189.09765625 208.525390625 163.75 c 0
 175.465820312 135.532226562 150 96.76171875 150 50 c 0
EndSplineSet
EndChar

StartChar: nsfu_g
Encoding: 135 -1 147
Width: 1000
Flags: H
LayerCount: 2
Fore
SplineSet
650 650 m 0
 577.208984375 650 527.565429688 590.567382812 500 536.109375 c 1
 472.408203125 590.6171875 422.8203125 650 350 650 c 0
 303.229492188 650 264.473632812 624.502929688 236.266601562 591.440429688 c 0
 210.92578125 561.73828125 191.75390625 524.279296875 177.581054688 481.684570312 c 0
 159.8515625 428.405273438 150 366.418945312 150 300 c 0
 150 233.581054688 159.8515625 171.595703125 177.581054688 118.315429688 c 0
 191.75390625 75.720703125 210.92578125 38.26171875 236.266601562 8.5595703125 c 0
 264.473632812 -24.5029296875 303.229492188 -50 350 -50 c 0
 422.791015625 -50 472.434570312 9.43359375 500 63.890625 c 1
 527.591796875 9.3828125 577.1796875 -50 650 -50 c 0
 696.770507812 -50 735.526367188 -24.5029296875 763.733398438 8.5595703125 c 0
 789.07421875 38.26171875 808.24609375 75.720703125 822.418945312 118.315429688 c 0
 840.1484375 171.595703125 850 233.581054688 850 300 c 0
 850 366.418945312 840.1484375 428.405273438 822.418945312 481.684570312 c 0
 808.24609375 524.279296875 789.07421875 561.73828125 763.733398438 591.440429688 c 0
 735.526367188 624.502929688 696.770507812 650 650 650 c 0
100 750 m 2
 900 750 l 2
 927.594726562 749.997070312 949.997070312 727.594726562 950 700 c 2
 950 -100 l 2
 949.997070312 -127.59375 927.594726562 -149.997070312 900 -150 c 2
 100 -150 l 2
 72.4052734375 -149.997070312 50.0029296875 -127.59375 50 -100 c 2
 50 700 l 2
 50.0029296875 727.594726562 72.4052734375 750 100 750 c 2
750 300 m 0
 750 243.770507812 741.412109375 191.655273438 727.508789062 149.872070312 c 0
 716.375976562 116.416992188 701.798828125 90.01171875 687.6328125 73.4072265625 c 0
 671.395507812 54.375 658.420898438 50 650 50 c 0
 641.579101562 50 628.604492188 54.375 612.3671875 73.4072265625 c 0
 572.689453125 119.9140625 550 209.2734375 550 300 c 0
 550 356.229492188 558.587890625 408.345703125 572.491210938 450.127929688 c 0
 583.624023438 483.583007812 598.201171875 509.989257812 612.3671875 526.592773438 c 0
 628.604492188 545.625 641.579101562 550 650 550 c 0
 658.420898438 550 671.395507812 545.625 687.6328125 526.592773438 c 0
 727.310546875 480.0859375 750 390.7265625 750 300 c 0
450 300 m 0
 450 243.770507812 441.412109375 191.655273438 427.508789062 149.872070312 c 0
 416.375976562 116.416992188 401.798828125 90.01171875 387.6328125 73.4072265625 c 0
 371.395507812 54.375 358.420898438 50 350 50 c 0
 341.579101562 50 328.604492188 54.375 312.3671875 73.4072265625 c 0
 272.689453125 119.9140625 250 209.2734375 250 300 c 0
 250 356.229492188 258.587890625 408.345703125 272.491210938 450.127929688 c 0
 283.624023438 483.583007812 298.201171875 509.989257812 312.3671875 526.592773438 c 0
 328.604492188 545.625 341.579101562 550 350 550 c 0
 358.420898438 550 371.395507812 545.625 387.6328125 526.592773438 c 0
 427.310546875 480.0859375 450 390.7265625 450 300 c 0
EndSplineSet
Substitution2: "Single Substitution lookup 38 subtable" nsfu_g.3
Substitution2: "Single Substitution lookup 34 subtable" nsfu_g.1
Substitution2: "Single Substitution lookup 30 subtable" nsfu_g.3
Substitution2: "Single Substitution lookup 26 subtable" nsfu_g.2
Substitution2: "Single Substitution lookup 24 subtable" nsfu_g.7
Substitution2: "Single Substitution lookup 20 subtable" nsfu_g.5
Substitution2: "Single Substitution lookup 18 subtable" nsfu_g.8
Substitution2: "Single Substitution lookup 14 subtable" nsfu_g.6
Substitution2: "Single Substitution lookup 12 subtable" nsfu_g.7
Substitution2: "Single Substitution lookup 8 subtable" nsfu_g.4
Substitution2: "Single Substitution lookup 6 subtable" nsfu_g.7
Substitution2: "Single Substitution lookup 2 subtable" nsfu_g.5
EndChar

StartChar: nsfu_g.1
Encoding: 136 -1 148
Width: 1000
Flags: H
LayerCount: 2
Fore
SplineSet
550 300 m 0
 550 356.278320312 558.583007812 408.405273438 572.478515625 450.181640625 c 0
 583.60546875 483.6328125 598.17578125 510.020507812 612.334960938 526.608398438 c 0
 628.560546875 545.618164062 641.533203125 550 650 550 c 0
 658.466796875 550 671.439453125 545.618164062 687.665039062 526.608398438 c 0
 727.35546875 480.108398438 750 390.764648438 750 300 c 0
 750 243.721679688 741.416992188 191.594726562 727.521484375 149.818359375 c 0
 716.39453125 116.3671875 701.82421875 89.9794921875 687.665039062 73.3916015625 c 0
 671.439453125 54.3818359375 658.466796875 50 650 50 c 0
 641.533203125 50 628.560546875 54.3818359375 612.334960938 73.3916015625 c 0
 572.64453125 119.891601562 550 209.235351562 550 300 c 0
250 300 m 0
 250 356.278320312 258.583007812 408.405273438 272.478515625 450.181640625 c 0
 283.60546875 483.6328125 298.17578125 510.020507812 312.334960938 526.608398438 c 0
 328.560546875 545.618164062 341.533203125 550 350 550 c 0
 358.466796875 550 371.439453125 545.618164062 387.665039062 526.608398438 c 0
 427.35546875 480.108398438 450 390.764648438 450 300 c 0
 450 243.721679688 441.416992188 191.594726562 427.521484375 149.818359375 c 0
 416.39453125 116.3671875 401.82421875 89.9794921875 387.665039062 73.3916015625 c 0
 371.439453125 54.3818359375 358.466796875 50 350 50 c 0
 341.533203125 50 328.560546875 54.3818359375 312.334960938 73.3916015625 c 0
 272.64453125 119.891601562 250 209.235351562 250 300 c 0
150 300 m 0
 150 233.547851562 159.841796875 171.551757812 177.564453125 118.271484375 c 0
 191.733398438 75.6767578125 210.90234375 38.2216796875 236.25 8.525390625 c 0
 264.467773438 -24.5341796875 303.23828125 -50 350 -50 c 0
 396.76171875 -50 435.532226562 -24.5341796875 463.75 8.525390625 c 0
 477.618628563 24.7733150348 489.637608247 43.3438979478 500 63.8081505766 c 1
 510.362391753 43.3438979478 522.381371437 24.7733150348 536.25 8.525390625 c 0
 564.467773438 -24.5341796875 603.23828125 -50 650 -50 c 0
 696.76171875 -50 735.532226562 -24.5341796875 763.75 8.525390625 c 0
 789.09765625 38.2216796875 808.266601562 75.6767578125 822.435546875 118.271484375 c 0
 840.158203125 171.551757812 850 233.547851562 850 300 c 0
 850 366.452148438 840.158203125 428.448242188 822.435546875 481.728515625 c 0
 808.266601562 524.323242188 789.09765625 561.778320312 763.75 591.474609375 c 0
 735.532226562 624.534179688 696.76171875 650 650 650 c 0
 603.23828125 650 564.467773438 624.534179688 536.25 591.474609375 c 0
 522.381371437 575.226684965 510.362391753 556.656102052 500 536.191849423 c 1
 489.637608247 556.656102052 477.618628563 575.226684965 463.75 591.474609375 c 0
 435.532226562 624.534179688 396.76171875 650 350 650 c 0
 303.23828125 650 264.467773438 624.534179688 236.25 591.474609375 c 0
 210.90234375 561.778320312 191.733398438 524.323242188 177.564453125 481.728515625 c 0
 159.841796875 428.448242188 150 366.452148438 150 300 c 0
EndSplineSet
EndChar

StartChar: nsfu_g.2
Encoding: 137 -1 149
Width: 1000
Flags: H
AnchorPoint: "MarkBaseSet" 0 0 basechar 0
LayerCount: 2
Fore
SplineSet
350 300 m 0
 350 367.615234375 358.072265625 429.5859375 370.581054688 475.830078125 c 0
 376.126953125 496.333984375 382.541992188 513.650390625 388.872070312 526.517578125 c 0
 392.872070312 534.646484375 396.841796875 540.895507812 400.014648438 545.041015625 c 1
 408.823242188 533.53125 416.131835938 518.1484375 423.84375 494.573242188 c 0
 439.334960938 447.213867188 450 377.279296875 450 300 c 0
 450 232.384765625 441.927734375 170.4140625 429.418945312 124.169921875 c 0
 423.873046875 103.666015625 417.458007812 86.349609375 411.127929688 73.482421875 c 0
 407.127929688 65.353515625 403.158203125 59.1044921875 399.985351562 54.958984375 c 1
 391.176757812 66.46875 383.868164062 81.8515625 376.15625 105.426757812 c 0
 360.665039062 152.786132812 350 222.720703125 350 300 c 0
150 300 m 0
 150 367.615234375 158.072265625 429.5859375 170.581054688 475.830078125 c 0
 176.126953125 496.333984375 182.541992188 513.650390625 188.872070312 526.517578125 c 0
 192.872070312 534.646484375 196.841796875 540.895507812 200.014648438 545.041015625 c 1
 208.823242188 533.53125 216.131835938 518.1484375 223.84375 494.573242188 c 0
 239.334960938 447.213867188 250 377.279296875 250 300 c 0
 250 232.384765625 241.927734375 170.4140625 229.418945312 124.169921875 c 0
 223.873046875 103.666015625 217.458007812 86.349609375 211.127929688 73.482421875 c 0
 207.127929688 65.353515625 203.158203125 59.1044921875 199.985351562 54.958984375 c 1
 191.176757812 66.46875 183.868164062 81.8515625 176.15625 105.426757812 c 0
 160.665039062 152.786132812 150 222.720703125 150 300 c 0
50 300 m 0
 50 235.2265625 56.3994140625 174.893554688 67.865234375 123.188476562 c 0
 77.04296875 81.7998046875 89.236328125 45.8134765625 106.0390625 16.283203125 c 0
 118.471679688 -5.564453125 134.110351562 -26.0107421875 158.166015625 -39.1103515625 c 0
 170.235351562 -45.681640625 184.592773438 -50 200 -50 c 0
 215.407226562 -50 229.764648438 -45.681640625 241.833984375 -39.1103515625 c 0
 265.889648438 -26.0107421875 281.528320312 -5.564453125 293.9609375 16.283203125 c 0
 296.043772389 19.9437194684 298.055781426 23.7034370206 300.000000043 27.5603487014 c 1
 301.944218804 23.7034369948 303.956227812 19.9437194999 306.0390625 16.283203125 c 0
 318.471679688 -5.564453125 334.110351562 -26.0107421875 358.166015625 -39.1103515625 c 0
 370.235351562 -45.681640625 384.592773438 -50 400 -50 c 0
 415.407226562 -50 429.764648438 -45.681640625 441.833984375 -39.1103515625 c 0
 465.889648438 -26.0107421875 481.528320312 -5.564453125 493.9609375 16.283203125 c 0
 510.763671875 45.8134765625 522.95703125 81.7998046875 532.134765625 123.188476562 c 0
 543.600585938 174.893554688 550 235.2265625 550 300 c 0
 550 364.7734375 543.600585938 425.106445312 532.134765625 476.811523438 c 0
 522.95703125 518.200195312 510.763671875 554.186523438 493.9609375 583.716796875 c 0
 481.528320312 605.564453125 465.889648438 626.010742188 441.833984375 639.110351562 c 0
 429.764648438 645.681640625 415.407226562 650 400 650 c 0
 384.592773438 650 370.235351562 645.681640625 358.166015625 639.110351562 c 0
 334.110351562 626.010742188 318.471679688 605.564453125 306.0390625 583.716796875 c 0
 303.956227696 580.05628068 301.944218737 576.296563284 300.000000005 572.439651672 c 1
 298.055781287 576.296563281 296.043772326 580.056280683 293.9609375 583.716796875 c 0
 281.528320312 605.564453125 265.889648438 626.010742188 241.833984375 639.110351562 c 0
 229.764648438 645.681640625 215.407226562 650 200 650 c 0
 184.592773438 650 170.235351562 645.681640625 158.166015625 639.110351562 c 0
 134.110351562 626.010742188 118.471679688 605.564453125 106.0390625 583.716796875 c 0
 89.236328125 554.186523438 77.04296875 518.200195312 67.865234375 476.811523438 c 0
 56.3994140625 425.106445312 50 364.7734375 50 300 c 0
EndSplineSet
EndChar

StartChar: nsfu_g.3
Encoding: 138 -1 150
Width: 1000
Flags: H
AnchorPoint: "MarkBaseSet" 0 0 basechar 0
LayerCount: 2
Fore
SplineSet
550 500 m 0
 550 560.704101562 575.51171875 610.211914062 605.03125 633.268554688 c 0
 633.830078125 655.76171875 666.173828125 655.758789062 694.96875 633.268554688 c 0
 724.48828125 610.211914062 750 560.704101562 750 500 c 0
 750 439.295898438 724.48828125 389.788085938 694.96875 366.731445312 c 0
 666.169921875 344.23828125 633.826171875 344.241210938 605.03125 366.731445312 c 0
 575.51171875 389.788085938 550 439.295898438 550 500 c 0
250 500 m 0
 250 560.704101562 275.51171875 610.211914062 305.03125 633.268554688 c 0
 333.830078125 655.76171875 366.173828125 655.758789062 394.96875 633.268554688 c 0
 424.48828125 610.211914062 450 560.704101562 450 500 c 0
 450 439.295898438 424.48828125 389.788085938 394.96875 366.731445312 c 0
 366.169921875 344.23828125 333.826171875 344.241210938 305.03125 366.731445312 c 0
 275.51171875 389.788085938 250 439.295898438 250 500 c 0
150 500 m 0
 150 413.428710938 184.18359375 334.25 243.552734375 287.879882812 c 0
 273.34765625 264.609375 309.993164062 250 350 250 c 0
 390.006835938 250 426.65234375 264.609375 456.447265625 287.879882812 c 0
 472.983578555 300.795528219 487.565969476 316.256499869 500 333.713584233 c 1
 512.434030524 316.256499869 527.016421445 300.795528219 543.552734375 287.879882812 c 0
 573.34765625 264.609375 609.993164062 250 650 250 c 0
 690.006835938 250 726.65234375 264.609375 756.447265625 287.879882812 c 0
 815.81640625 334.25 850 413.428710938 850 500 c 0
 850 586.571289062 815.81640625 665.75 756.447265625 712.120117188 c 0
 726.65234375 735.390625 690.006835938 750 650 750 c 0
 609.993164062 750 573.34765625 735.390625 543.552734375 712.120117188 c 0
 527.016421445 699.204471781 512.434030524 683.743500131 500 666.286415767 c 1
 487.565969476 683.743500131 472.983578555 699.204471781 456.447265625 712.120117188 c 0
 426.65234375 735.390625 390.006835938 750 350 750 c 0
 309.993164062 750 273.34765625 735.390625 243.552734375 712.120117188 c 0
 184.18359375 665.75 150 586.571289062 150 500 c 0
EndSplineSet
EndChar

StartChar: nsfu_g.4
Encoding: 139 -1 151
Width: 1000
Flags: H
AnchorPoint: "MarkBaseSet" 0 0 basechar 0
LayerCount: 2
Fore
SplineSet
350 500 m 0
 350 555.775390625 363.7109375 612.30859375 387.5703125 640.260742188 c 0
 396.623046875 650.866210938 400 650 400 650 c 1
 400 650 403.376953125 650.866210938 412.4296875 640.260742188 c 0
 436.217773438 612.390625 450 555.685546875 450 500 c 0
 450 444.224609375 436.2890625 387.69140625 412.4296875 359.739257812 c 0
 403.376953125 349.133789062 400 350 400 350 c 1
 400 350 396.623046875 349.133789062 387.5703125 359.739257812 c 0
 363.782226562 387.609375 350 444.314453125 350 500 c 0
150 500 m 0
 150 555.775390625 163.7109375 612.30859375 187.5703125 640.260742188 c 0
 196.623046875 650.866210938 200 650 200 650 c 1
 200 650 203.376953125 650.866210938 212.4296875 640.260742188 c 0
 236.217773438 612.390625 250 555.685546875 250 500 c 0
 250 444.224609375 236.2890625 387.69140625 212.4296875 359.739257812 c 0
 203.376953125 349.133789062 200 350 200 350 c 1
 200 350 196.623046875 349.133789062 187.5703125 359.739257812 c 0
 163.782226562 387.609375 150 444.314453125 150 500 c 0
50 500 m 0
 50 454.002929688 56.771484375 411.02734375 69.224609375 373.58984375 c 0
 79.1767578125 343.669921875 92.72265625 316.85546875 111.485351562 294.873046875 c 0
 132.296875 270.491210938 162.442382812 250 200 250 c 0
 237.557617188 250 267.703125 270.491210938 288.514648438 294.873046875 c 0
 292.582838042 299.639348233 296.405773789 304.632814714 300 309.835846823 c 1
 303.594226211 304.632814714 307.417161958 299.639348233 311.485351562 294.873046875 c 0
 332.296875 270.491210938 362.442382812 250 400 250 c 0
 437.557617188 250 467.703125 270.491210938 488.514648438 294.873046875 c 0
 507.27734375 316.85546875 520.823242188 343.669921875 530.775390625 373.58984375 c 0
 543.228515625 411.02734375 550 454.002929688 550 500 c 0
 550 545.997070312 543.228515625 588.97265625 530.775390625 626.41015625 c 0
 520.823242188 656.330078125 507.27734375 683.14453125 488.514648438 705.126953125 c 0
 467.703125 729.508789062 437.557617188 750 400 750 c 0
 362.442382812 750 332.296875 729.508789062 311.485351562 705.126953125 c 0
 307.417161958 700.360651767 303.594226211 695.367185286 300 690.164153177 c 1
 296.405773789 695.367185286 292.582838042 700.360651767 288.514648438 705.126953125 c 0
 267.703125 729.508789062 237.557617188 750 200 750 c 0
 162.442382812 750 132.296875 729.508789062 111.485351562 705.126953125 c 0
 92.72265625 683.14453125 79.1767578125 656.330078125 69.224609375 626.41015625 c 0
 56.771484375 588.97265625 50 545.997070312 50 500 c 0
EndSplineSet
EndChar

StartChar: nsfu_g.5
Encoding: 140 -1 152
Width: 1000
Flags: H
AnchorPoint: "MarkBaseSet" 0 0 basechar 0
LayerCount: 2
Fore
SplineSet
550 600 m 0
 550 604.361328125 551.48828125 610.026367188 558.048828125 617.4921875 c 0
 575.033203125 636.822265625 611.639648438 650 650 650 c 0
 688.3984375 650 724.932617188 636.861328125 741.951171875 617.4921875 c 0
 748.51171875 610.026367188 750 604.361328125 750 600 c 0
 750 595.638671875 748.51171875 589.973632812 741.951171875 582.5078125 c 0
 724.966796875 563.177734375 688.360351562 550 650 550 c 0
 611.6015625 550 575.067382812 563.138671875 558.048828125 582.5078125 c 0
 551.48828125 589.973632812 550 595.638671875 550 600 c 0
250 600 m 0
 250 604.361328125 251.48828125 610.026367188 258.048828125 617.4921875 c 0
 275.033203125 636.822265625 311.639648438 650 350 650 c 0
 388.3984375 650 424.932617188 636.861328125 441.951171875 617.4921875 c 0
 448.51171875 610.026367188 450 604.361328125 450 600 c 0
 450 595.638671875 448.51171875 589.973632812 441.951171875 582.5078125 c 0
 424.966796875 563.177734375 388.360351562 550 350 550 c 0
 311.6015625 550 275.067382812 563.138671875 258.048828125 582.5078125 c 0
 251.48828125 589.973632812 250 595.638671875 250 600 c 0
150 600 m 0
 150 567.541992188 163.435546875 538.712890625 182.91015625 516.548828125 c 0
 218.282226562 476.29296875 278.419921875 450 350 450 c 0
 411.068163487 450 463.864412691 469.175930633 499.997828688 499.80353209 c 1
 536.137406204 469.157336055 588.90018233 450 650 450 c 0
 721.55078125 450 781.74609375 476.32421875 817.08984375 516.548828125 c 0
 836.564453125 538.712890625 850 567.541992188 850 600 c 0
 850 632.458007812 836.564453125 661.287109375 817.08984375 683.451171875 c 0
 781.717773438 723.70703125 721.580078125 750 650 750 c 0
 588.931836513 750 536.135587309 730.824069367 500.002171312 700.19646791 c 1
 463.862593796 730.842663945 411.09981767 750 350 750 c 0
 278.44921875 750 218.25390625 723.67578125 182.91015625 683.451171875 c 0
 163.435546875 661.287109375 150 632.458007812 150 600 c 0
EndSplineSet
EndChar

StartChar: nsfu_g.6
Encoding: 141 -1 153
Width: 1000
Flags: H
AnchorPoint: "MarkBaseSet" 0 0 basechar 0
LayerCount: 2
Fore
SplineSet
550 550 m 0
 550 605.259765625 594.740234375 650 650 650 c 0
 705.259765625 650 750 605.259765625 750 550 c 0
 750 494.740234375 705.259765625 450 650 450 c 0
 594.740234375 450 550 494.740234375 550 550 c 0
250 550 m 0
 250 605.259765625 294.740234375 650 350 650 c 0
 405.259765625 650 450 605.259765625 450 550 c 0
 450 494.740234375 405.259765625 450 350 450 c 0
 294.740234375 450 250 494.740234375 250 550 c 0
150 550 m 0
 150 439.57421875 239.57421875 350 350 350 c 0
 409.723561922 350 463.347696737 376.201941362 500 417.733419641 c 1
 536.652303263 376.201941362 590.276438078 350 650 350 c 0
 760.42578125 350 850 439.57421875 850 550 c 0
 850 660.42578125 760.42578125 750 650 750 c 0
 590.276438078 750 536.652303263 723.798058638 500 682.266580359 c 1
 463.347696737 723.798058638 409.723561922 750 350 750 c 0
 239.57421875 750 150 660.42578125 150 550 c 0
EndSplineSet
EndChar

StartChar: nsfu_g.7
Encoding: 142 -1 154
Width: 0
Flags: HW
AnchorPoint: "MarkBaseSet" 0 0 mark 0
LayerCount: 2
Fore
SplineSet
550 0 m 0
 550 4.361328125 551.48828125 10.0263671875 558.048828125 17.4921875 c 0
 575.033203125 36.822265625 611.639648438 50 650 50 c 0
 688.3984375 50 724.932617188 36.861328125 741.951171875 17.4921875 c 0
 748.51171875 10.0263671875 750 4.361328125 750 0 c 0
 750 -4.361328125 748.51171875 -10.0263671875 741.951171875 -17.4921875 c 0
 724.966796875 -36.822265625 688.360351562 -50 650 -50 c 0
 611.6015625 -50 575.067382812 -36.861328125 558.048828125 -17.4921875 c 0
 551.48828125 -10.0263671875 550 -4.361328125 550 0 c 0
250 0 m 0
 250 4.361328125 251.48828125 10.0263671875 258.048828125 17.4921875 c 0
 275.033203125 36.822265625 311.639648438 50 350 50 c 0
 388.3984375 50 424.932617188 36.861328125 441.951171875 17.4921875 c 0
 448.51171875 10.0263671875 450 4.361328125 450 0 c 0
 450 -4.361328125 448.51171875 -10.0263671875 441.951171875 -17.4921875 c 0
 424.966796875 -36.822265625 388.360351562 -50 350 -50 c 0
 311.6015625 -50 275.067382812 -36.861328125 258.048828125 -17.4921875 c 0
 251.48828125 -10.0263671875 250 -4.361328125 250 0 c 0
150 0 m 0
 150 -32.4580078125 163.435546875 -61.287109375 182.91015625 -83.451171875 c 0
 218.282226562 -123.70703125 278.419921875 -150 350 -150 c 0
 411.068163487 -150 463.864412691 -130.824069367 499.997828688 -100.19646791 c 1
 536.137406204 -130.842663945 588.90018233 -150 650 -150 c 0
 721.55078125 -150 781.74609375 -123.67578125 817.08984375 -83.451171875 c 0
 836.564453125 -61.287109375 850 -32.4580078125 850 0 c 0
 850 32.4580078125 836.564453125 61.287109375 817.08984375 83.451171875 c 0
 781.717773438 123.70703125 721.580078125 150 650 150 c 0
 588.931836513 150 536.135587309 130.824069367 500.002171312 100.19646791 c 1
 463.862593796 130.842663945 411.09981767 150 350 150 c 0
 278.44921875 150 218.25390625 123.67578125 182.91015625 83.451171875 c 0
 163.435546875 61.287109375 150 32.4580078125 150 0 c 0
EndSplineSet
EndChar

StartChar: nsfu_g.8
Encoding: 143 -1 155
Width: 0
Flags: HW
AnchorPoint: "MarkBaseSet" 0 0 mark 0
LayerCount: 2
Fore
SplineSet
550 50 m 0
 550 105.259765625 594.740234375 150 650 150 c 0
 705.259765625 150 750 105.259765625 750 50 c 0
 750 -5.259765625 705.259765625 -50 650 -50 c 0
 594.740234375 -50 550 -5.259765625 550 50 c 0
250 50 m 0
 250 105.259765625 294.740234375 150 350 150 c 0
 405.259765625 150 450 105.259765625 450 50 c 0
 450 -5.259765625 405.259765625 -50 350 -50 c 0
 294.740234375 -50 250 -5.259765625 250 50 c 0
150 50 m 0
 150 -60.42578125 239.57421875 -150 350 -150 c 0
 409.723561922 -150 463.347696737 -123.798058638 500 -82.2665803585 c 1
 536.652303263 -123.798058638 590.276438078 -150 650 -150 c 0
 760.42578125 -150 850 -60.42578125 850 50 c 0
 850 160.42578125 760.42578125 250 650 250 c 0
 590.276438078 250 536.652303263 223.798058638 500 182.266580359 c 1
 463.347696737 223.798058638 409.723561922 250 350 250 c 0
 239.57421875 250 150 160.42578125 150 50 c 0
EndSplineSet
EndChar

StartChar: nv_v
Encoding: 144 -1 156
Width: 1000
Flags: H
LayerCount: 2
Fore
SplineSet
500 650 m 0
 486.202148438 650 473.702148438 644.399414062 464.651367188 635.348632812 c 2
 164.651367188 335.348632812 l 2
 155.600585938 326.297851562 150 313.797851562 150 300 c 0
 150 286.202148438 155.600585938 273.702148438 164.651367188 264.651367188 c 2
 464.651367188 -35.3486328125 l 2
 473.702148438 -44.3994140625 486.202148438 -50 500 -50 c 0
 513.797851562 -50 526.297851562 -44.3994140625 535.348632812 -35.3486328125 c 2
 835.348632812 264.651367188 l 2
 844.399414062 273.702148438 850 286.202148438 850 300 c 0
 850 313.797851562 844.399414062 326.297851562 835.348632812 335.348632812 c 2
 535.348632812 635.348632812 l 2
 526.297851562 644.399414062 513.797851562 650 500 650 c 0
100 750 m 2
 900 750 l 2
 927.594726562 749.997070312 949.997070312 727.594726562 950 700 c 2
 950 -100 l 2
 949.997070312 -127.594726562 927.594726562 -149.997070312 900 -150 c 2
 100 -150 l 2
 72.4052734375 -149.997070312 50.0029296875 -127.594726562 50 -100 c 2
 50 700 l 2
 50.0029296875 727.594726562 72.4052734375 750 100 750 c 2
500 70.697265625 m 1
 270.697265625 300 l 1
 500 529.302734375 l 1
 729.302734375 300 l 1
 500 70.697265625 l 1
EndSplineSet
Substitution2: "Single Substitution lookup 38 subtable" nv_v.3
Substitution2: "Single Substitution lookup 34 subtable" nv_v.1
Substitution2: "Single Substitution lookup 30 subtable" nv_v.3
Substitution2: "Single Substitution lookup 26 subtable" nv_v.2
Substitution2: "Single Substitution lookup 24 subtable" nv_v.7
Substitution2: "Single Substitution lookup 20 subtable" nv_v.5
Substitution2: "Single Substitution lookup 18 subtable" nv_v.8
Substitution2: "Single Substitution lookup 14 subtable" nv_v.6
Substitution2: "Single Substitution lookup 12 subtable" nv_v.7
Substitution2: "Single Substitution lookup 8 subtable" nv_v.4
Substitution2: "Single Substitution lookup 6 subtable" nv_v.7
Substitution2: "Single Substitution lookup 2 subtable" nv_v.5
EndChar

StartChar: nv_v.1
Encoding: 145 -1 157
Width: 1000
Flags: H
LayerCount: 2
Fore
SplineSet
500 70.697265625 m 1
 270.697265625 300 l 1
 500 529.302734375 l 1
 729.302734375 300 l 1
 500 70.697265625 l 1
500 -50 m 0
 513.797851562 -50 526.297851562 -44.3994140625 535.348632812 -35.3486328125 c 2
 835.348632812 264.651367188 l 2
 844.399414062 273.702148438 850 286.202148438 850 300 c 0
 850 313.797851562 844.399414062 326.297851562 835.348632812 335.348632812 c 2
 535.348632812 635.348632812 l 2
 526.297851562 644.399414062 513.797851562 650 500 650 c 0
 486.202148438 650 473.702148438 644.399414062 464.651367188 635.348632812 c 2
 164.651367188 335.348632812 l 2
 155.600585938 326.297851562 150 313.797851562 150 300 c 0
 150 286.202148438 155.600585938 273.702148438 164.651367188 264.651367188 c 2
 464.651367188 -35.3486328125 l 2
 473.702148438 -44.3994140625 486.202148438 -50 500 -50 c 0
EndSplineSet
EndChar

StartChar: nv_v.2
Encoding: 146 -1 158
Width: 1000
Flags: H
AnchorPoint: "MarkBaseSet" 0 0 basechar 0
LayerCount: 2
Fore
SplineSet
300 90.1328125 m 1
 160.088867188 300 l 1
 300 509.8671875 l 1
 439.911132812 300 l 1
 300 90.1328125 l 1
300 -50 m 0
 317.360351562 -50 332.666992188 -41.1328125 341.631835938 -27.6845703125 c 2
 541.631835938 272.315429688 l 2
 552.4921875 288.60546875 552.494140625 311.390625 541.631835938 327.684570312 c 2
 341.631835938 627.684570312 l 2
 332.666992188 641.1328125 317.360351562 650 300 650 c 0
 282.639648438 650 267.333007812 641.1328125 258.368164062 627.684570312 c 2
 58.3681640625 327.684570312 l 2
 47.5078125 311.39453125 47.505859375 288.609375 58.3681640625 272.315429688 c 2
 258.368164062 -27.6845703125 l 2
 267.333007812 -41.1328125 282.639648438 -50 300 -50 c 0
EndSplineSet
EndChar

StartChar: nv_v.3
Encoding: 147 -1 159
Width: 1000
Flags: H
AnchorPoint: "MarkBaseSet" 0 0 basechar 0
LayerCount: 2
Fore
SplineSet
500 360.088867188 m 1
 290.1328125 500 l 1
 500 639.911132812 l 1
 709.8671875 500 l 1
 500 360.088867188 l 1
850 500 m 0
 850 517.360351562 841.1328125 532.666992188 827.684570312 541.631835938 c 2
 527.684570312 741.631835938 l 2
 511.39453125 752.4921875 488.609375 752.494140625 472.315429688 741.631835938 c 2
 172.315429688 541.631835938 l 2
 158.8671875 532.666992188 150 517.360351562 150 500 c 0
 150 482.639648438 158.8671875 467.333007812 172.315429688 458.368164062 c 2
 472.315429688 258.368164062 l 2
 488.60546875 247.5078125 511.390625 247.505859375 527.684570312 258.368164062 c 2
 827.684570312 458.368164062 l 2
 841.1328125 467.333007812 850 482.639648438 850 500 c 0
EndSplineSet
EndChar

StartChar: nv_v.4
Encoding: 148 -1 160
Width: 1000
Flags: H
AnchorPoint: "MarkBaseSet" 0 0 basechar 0
LayerCount: 2
Fore
SplineSet
300 370.697265625 m 1
 170.697265625 500 l 1
 300 629.302734375 l 1
 429.302734375 500 l 1
 300 370.697265625 l 1
300 250 m 0
 313.797851562 250 326.297851562 255.600585938 335.348632812 264.651367188 c 2
 535.348632812 464.651367188 l 2
 544.399414062 473.702148438 550 486.202148438 550 500 c 0
 550 513.797851562 544.399414062 526.297851562 535.348632812 535.348632812 c 2
 335.348632812 735.348632812 l 2
 326.297851562 744.399414062 313.797851562 750 300 750 c 0
 286.202148438 750 273.702148438 744.399414062 264.651367188 735.348632812 c 2
 64.6513671875 535.348632812 l 2
 55.6005859375 526.297851562 50 513.797851562 50 500 c 0
 50 486.202148438 55.6005859375 473.702148438 64.6513671875 464.651367188 c 2
 264.651367188 264.651367188 l 2
 273.702148438 255.600585938 286.202148438 250 300 250 c 0
EndSplineSet
EndChar

StartChar: nv_v.5
Encoding: 149 -1 161
Width: 1000
Flags: H
AnchorPoint: "MarkBaseSet" 0 0 basechar 0
LayerCount: 2
Fore
SplineSet
500 552.71484375 m 1
 358.14453125 600 l 1
 500 647.28515625 l 1
 641.85546875 600 l 1
 500 552.71484375 l 1
484.197265625 452.552734375 m 2
 494.158203125 449.232421875 505.841796875 449.232421875 515.802734375 452.552734375 c 2
 815.802734375 552.552734375 l 2
 835.6640625 559.172851562 850 577.92578125 850 600 c 0
 850 622.07421875 835.6640625 640.827148438 815.802734375 647.447265625 c 2
 515.802734375 747.447265625 l 2
 505.841796875 750.767578125 494.158203125 750.767578125 484.197265625 747.447265625 c 2
 184.197265625 647.447265625 l 2
 164.3359375 640.827148438 150 622.07421875 150 600 c 0
 150 577.92578125 164.3359375 559.172851562 184.197265625 552.552734375 c 2
 484.197265625 452.552734375 l 2
EndSplineSet
EndChar

StartChar: nv_v.6
Encoding: 150 -1 162
Width: 1000
Flags: H
AnchorPoint: "MarkBaseSet" 0 0 basechar 0
LayerCount: 2
Fore
SplineSet
500 455.90625 m 1
 311.8125 550 l 1
 500 644.09375 l 1
 688.1875 550 l 1
 500 455.90625 l 1
477.6875 355.25 m 2
 491.31640625 348.435546875 508.681640625 348.434570312 522.3125 355.25 c 2
 822.3125 505.25 l 2
 838.721679688 513.454101562 850 530.419921875 850 550 c 0
 850 569.580078125 838.721679688 586.545898438 822.3125 594.75 c 2
 522.3125 744.75 l 2
 508.68359375 751.564453125 491.318359375 751.565429688 477.6875 744.75 c 2
 177.6875 594.75 l 2
 161.278320312 586.545898438 150 569.580078125 150 550 c 0
 150 530.419921875 161.278320312 513.454101562 177.6875 505.25 c 2
 477.6875 355.25 l 2
EndSplineSet
EndChar

StartChar: nv_v.7
Encoding: 151 -1 163
Width: 0
Flags: HW
AnchorPoint: "MarkBaseSet" 0 0 mark 0
LayerCount: 2
Fore
SplineSet
500 -47.28515625 m 1
 358.14453125 0 l 1
 500 47.28515625 l 1
 641.85546875 0 l 1
 500 -47.28515625 l 1
484.197265625 -147.447265625 m 2
 494.158203125 -150.767578125 505.841796875 -150.767578125 515.802734375 -147.447265625 c 2
 815.802734375 -47.447265625 l 2
 835.6640625 -40.8271484375 850 -22.07421875 850 0 c 0
 850 22.07421875 835.6640625 40.8271484375 815.802734375 47.447265625 c 2
 515.802734375 147.447265625 l 2
 505.841796875 150.767578125 494.158203125 150.767578125 484.197265625 147.447265625 c 2
 184.197265625 47.447265625 l 2
 164.3359375 40.8271484375 150 22.07421875 150 0 c 0
 150 -22.07421875 164.3359375 -40.8271484375 184.197265625 -47.447265625 c 2
 484.197265625 -147.447265625 l 2
EndSplineSet
EndChar

StartChar: nv_v.8
Encoding: 152 -1 164
Width: 0
Flags: HW
AnchorPoint: "MarkBaseSet" 0 0 mark 0
LayerCount: 2
Fore
SplineSet
500 -44.09375 m 1
 311.8125 50 l 1
 500 144.09375 l 1
 688.1875 50 l 1
 500 -44.09375 l 1
477.6875 -144.75 m 2
 491.31640625 -151.564453125 508.681640625 -151.565429688 522.3125 -144.75 c 2
 822.3125 5.25 l 2
 838.721679688 13.4541015625 850 30.419921875 850 50 c 0
 850 69.580078125 838.721679688 86.5458984375 822.3125 94.75 c 2
 522.3125 244.75 l 2
 508.68359375 251.564453125 491.318359375 251.565429688 477.6875 244.75 c 2
 177.6875 94.75 l 2
 161.278320312 86.5458984375 150 69.580078125 150 50 c 0
 150 30.419921875 161.278320312 13.4541015625 177.6875 5.25 c 2
 477.6875 -144.75 l 2
EndSplineSet
EndChar

StartChar: pa_v
Encoding: 153 -1 165
Width: 1000
Flags: H
LayerCount: 2
Fore
SplineSet
650 650 m 0
 630.419921875 650 613.454101562 638.721679688 605.25 622.3125 c 2
 500 411.8125 l 1
 394.75 622.3125 l 2
 386.545898438 638.721679688 369.580078125 650 350 650 c 0
 330.419921875 650 313.454101562 638.721679688 305.25 622.3125 c 2
 155.25 322.3125 l 2
 148.435546875 308.68359375 148.434570312 291.318359375 155.25 277.6875 c 2
 305.25 -22.3125 l 2
 313.454101562 -38.7216796875 330.419921875 -50 350 -50 c 0
 369.580078125 -50 386.545898438 -38.7216796875 394.75 -22.3125 c 2
 500 188.1875 l 1
 605.25 -22.3125 l 2
 613.454101562 -38.7216796875 630.419921875 -50 650 -50 c 0
 669.580078125 -50 686.545898438 -38.7216796875 694.75 -22.3125 c 2
 844.75 277.6875 l 2
 851.564453125 291.31640625 851.565429688 308.681640625 844.75 322.3125 c 2
 694.75 622.3125 l 2
 686.545898438 638.721679688 669.580078125 650 650 650 c 0
100 750 m 2
 900 750 l 2
 927.594726562 749.997070312 949.997070312 727.594726562 950 700 c 2
 950 -100 l 2
 949.997070312 -127.59375 927.594726562 -149.997070312 900 -150 c 2
 100 -150 l 2
 72.4052734375 -149.997070312 50.0029296875 -127.59375 50 -100 c 2
 50 700 l 2
 50.0029296875 727.594726562 72.4052734375 750 100 750 c 2
350 111.8125 m 1
 255.90625 300 l 1
 350 488.1875 l 1
 444.09375 300 l 1
 350 111.8125 l 1
650 111.8125 m 1
 555.90625 300 l 1
 650 488.1875 l 1
 744.09375 300 l 1
 650 111.8125 l 1
EndSplineSet
Substitution2: "Single Substitution lookup 38 subtable" pa_v.3
Substitution2: "Single Substitution lookup 34 subtable" pa_v.1
Substitution2: "Single Substitution lookup 30 subtable" pa_v.3
Substitution2: "Single Substitution lookup 26 subtable" pa_v.2
Substitution2: "Single Substitution lookup 24 subtable" pa_v.7
Substitution2: "Single Substitution lookup 20 subtable" pa_v.5
Substitution2: "Single Substitution lookup 18 subtable" pa_v.8
Substitution2: "Single Substitution lookup 14 subtable" pa_v.6
Substitution2: "Single Substitution lookup 12 subtable" pa_v.7
Substitution2: "Single Substitution lookup 8 subtable" pa_v.4
Substitution2: "Single Substitution lookup 6 subtable" pa_v.7
Substitution2: "Single Substitution lookup 2 subtable" pa_v.5
EndChar

StartChar: pa_v.1
Encoding: 154 -1 166
Width: 1000
Flags: H
LayerCount: 2
Fore
SplineSet
350 111.8125 m 1
 255.90625 300 l 1
 350 488.1875 l 1
 444.09375 300 l 1
 350 111.8125 l 1
650 111.8125 m 1
 555.90625 300 l 1
 650 488.1875 l 1
 744.09375 300 l 1
 650 111.8125 l 1
650 -50 m 0
 669.580078125 -50 686.545898438 -38.7216796875 694.75 -22.3125 c 2
 844.75 277.6875 l 2
 851.564453125 291.31640625 851.565429688 308.681640625 844.75 322.3125 c 2
 694.75 622.3125 l 2
 686.545898438 638.721679688 669.580078125 650 650 650 c 0
 630.419921875 650 613.454101562 638.721679688 605.25 622.3125 c 2
 500 411.8125 l 1
 394.75 622.3125 l 2
 386.545898438 638.721679688 369.580078125 650 350 650 c 0
 330.419921875 650 313.454101562 638.721679688 305.25 622.3125 c 2
 155.25 322.3125 l 2
 148.435546875 308.68359375 148.434570312 291.318359375 155.25 277.6875 c 2
 305.25 -22.3125 l 2
 313.454101562 -38.7216796875 330.419921875 -50 350 -50 c 0
 369.580078125 -50 386.545898438 -38.7216796875 394.75 -22.3125 c 2
 500 188.1875 l 1
 605.25 -22.3125 l 2
 613.454101562 -38.7216796875 630.419921875 -50 650 -50 c 0
EndSplineSet
EndChar

StartChar: pa_v.2
Encoding: 155 -1 167
Width: 1000
Flags: H
AnchorPoint: "MarkBaseSet" 0 0 basechar 0
LayerCount: 2
Fore
SplineSet
200 158.143554688 m 1
 152.71484375 300 l 1
 200 441.856445312 l 1
 247.28515625 300 l 1
 200 158.143554688 l 1
400 158.143554688 m 1
 352.71484375 300 l 1
 400 441.856445312 l 1
 447.28515625 300 l 1
 400 158.143554688 l 1
400 -50 m 0
 422.07421875 -50 440.826171875 -35.6640625 447.447265625 -15.802734375 c 2
 547.447265625 284.197265625 l 2
 550.767578125 294.158203125 550.767578125 305.841796875 547.447265625 315.802734375 c 2
 447.447265625 615.802734375 l 2
 440.826171875 635.6640625 422.07421875 650 400 650 c 0
 377.92578125 650 359.173828125 635.6640625 352.552734375 615.802734375 c 2
 300 458.14453125 l 1
 247.447265625 615.802734375 l 2
 240.826171875 635.6640625 222.07421875 650 200 650 c 0
 177.92578125 650 159.173828125 635.6640625 152.552734375 615.802734375 c 2
 52.552734375 315.802734375 l 2
 49.232421875 305.841796875 49.232421875 294.158203125 52.552734375 284.197265625 c 2
 152.552734375 -15.802734375 l 2
 159.173828125 -35.6640625 177.92578125 -50 200 -50 c 0
 222.07421875 -50 240.826171875 -35.6640625 247.447265625 -15.802734375 c 2
 300 141.85546875 l 1
 352.552734375 -15.802734375 l 2
 359.173828125 -35.6640625 377.92578125 -50 400 -50 c 0
EndSplineSet
EndChar

StartChar: pa_v.3
Encoding: 156 -1 168
Width: 1000
Flags: H
AnchorPoint: "MarkBaseSet" 0 0 basechar 0
LayerCount: 2
Fore
SplineSet
350 383.322265625 m 1
 262.4921875 500 l 1
 350 616.677734375 l 1
 437.5078125 500 l 1
 350 383.322265625 l 1
650 383.322265625 m 1
 562.4921875 500 l 1
 650 616.677734375 l 1
 737.5078125 500 l 1
 650 383.322265625 l 1
850 500 m 0
 850 511.233398438 846.287109375 521.606445312 840.0234375 529.958007812 c 2
 690.0234375 729.958007812 l 2
 680.899414062 742.123046875 666.362304688 750 650 750 c 0
 633.637695312 750 619.100585938 742.123046875 609.9765625 729.958007812 c 2
 500 583.322591145 l 1
 390.0234375 729.958007812 l 2
 380.899414062 742.123046875 366.362304688 750 350 750 c 0
 333.637695312 750 319.100585938 742.123046875 309.9765625 729.958007812 c 2
 159.9765625 529.958007812 l 2
 153.712890625 521.606445312 150 511.233398438 150 500 c 0
 150 488.766601562 153.712890625 478.393554688 159.9765625 470.041992188 c 2
 309.9765625 270.041992188 l 2
 319.100585938 257.876953125 333.637695312 250 350 250 c 0
 366.362304688 250 380.899414062 257.876953125 390.0234375 270.041992188 c 2
 500 416.677408855 l 1
 609.9765625 270.041992188 l 2
 619.100585938 257.876953125 633.637695312 250 650 250 c 0
 666.362304688 250 680.899414062 257.876953125 690.0234375 270.041992188 c 2
 840.0234375 470.041992188 l 2
 846.287109375 478.393554688 850 488.766601562 850 500 c 0
EndSplineSet
EndChar

StartChar: pa_v.4
Encoding: 157 -1 169
Width: 1000
Flags: H
AnchorPoint: "MarkBaseSet" 0 0 basechar 0
LayerCount: 2
Fore
SplineSet
200 411.813476562 m 1
 155.90625 500 l 1
 200 588.186523438 l 1
 244.09375 500 l 1
 200 411.813476562 l 1
400 411.813476562 m 1
 355.90625 500 l 1
 400 588.186523438 l 1
 444.09375 500 l 1
 400 411.813476562 l 1
400 250 m 0
 419.580078125 250 436.545898438 261.278320312 444.750976562 277.6875 c 2
 544.750976562 477.6875 l 2
 551.564453125 491.31640625 551.565429688 508.681640625 544.750976562 522.3125 c 2
 444.750976562 722.3125 l 2
 436.545898438 738.721679688 419.580078125 750 400 750 c 0
 380.419921875 750 363.454101562 738.721679688 355.249023438 722.3125 c 2
 300 611.814453124 l 1
 244.750976562 722.3125 l 2
 236.545898438 738.721679688 219.580078125 750 200 750 c 0
 180.419921875 750 163.454101562 738.721679688 155.249023438 722.3125 c 2
 55.2490234375 522.3125 l 2
 48.435546875 508.68359375 48.4345703125 491.318359375 55.2490234375 477.6875 c 2
 155.249023438 277.6875 l 2
 163.454101562 261.278320312 180.419921875 250 200 250 c 0
 219.580078125 250 236.545898438 261.278320312 244.750976562 277.6875 c 2
 300 388.185546876 l 1
 355.249023438 277.6875 l 2
 363.454101562 261.278320312 380.419921875 250 400 250 c 0
EndSplineSet
EndChar

StartChar: pa_v.5
Encoding: 158 -1 170
Width: 1000
Flags: H
AnchorPoint: "MarkBaseSet" 0 0 basechar 0
LayerCount: 2
Fore
SplineSet
350 560.088867188 m 1
 290.1328125 600 l 1
 350 639.911132812 l 1
 409.8671875 600 l 1
 350 560.088867188 l 1
650 560.088867188 m 1
 590.1328125 600 l 1
 650 639.911132812 l 1
 709.8671875 600 l 1
 650 560.088867188 l 1
622.315429688 458.3671875 m 2
 638.60546875 447.5078125 661.390625 447.504882812 677.684570312 458.3671875 c 2
 827.684570312 558.3671875 l 2
 841.1328125 567.333007812 850 582.639648438 850 600 c 0
 850 617.360351562 841.1328125 632.666992188 827.684570312 641.6328125 c 2
 677.684570312 741.6328125 l 2
 661.39453125 752.4921875 638.609375 752.495117188 622.315429688 741.6328125 c 2
 500 660.089192708 l 1
 377.684570312 741.6328125 l 2
 361.39453125 752.4921875 338.609375 752.495117188 322.315429688 741.6328125 c 2
 172.315429688 641.6328125 l 2
 158.8671875 632.666992188 150 617.360351562 150 600 c 0
 150 582.639648438 158.8671875 567.333007812 172.315429688 558.3671875 c 2
 322.315429688 458.3671875 l 2
 338.60546875 447.5078125 361.390625 447.504882812 377.684570312 458.3671875 c 2
 500 539.910807292 l 1
 622.315429688 458.3671875 l 2
EndSplineSet
EndChar

StartChar: pa_v.6
Encoding: 159 -1 171
Width: 1000
Flags: H
AnchorPoint: "MarkBaseSet" 0 0 basechar 0
LayerCount: 2
Fore
SplineSet
350 470.696289062 m 1
 270.696289062 550 l 1
 350 629.303710938 l 1
 429.303710938 550 l 1
 350 470.696289062 l 1
650 470.696289062 m 1
 570.696289062 550 l 1
 650 629.303710938 l 1
 729.303710938 550 l 1
 650 470.696289062 l 1
650 350 m 0
 663.797851562 350 676.297851562 355.6015625 685.348632812 364.651367188 c 2
 835.348632812 514.651367188 l 2
 844.3984375 523.702148438 850 536.202148438 850 550 c 0
 850 563.797851562 844.3984375 576.297851562 835.348632812 585.348632812 c 2
 685.348632812 735.348632812 l 2
 676.297851562 744.3984375 663.797851562 750 650 750 c 0
 636.202148438 750 623.702148438 744.3984375 614.651367188 735.348632812 c 2
 500 620.697265624 l 1
 385.348632812 735.348632812 l 2
 376.297851562 744.3984375 363.797851562 750 350 750 c 0
 336.202148438 750 323.702148438 744.3984375 314.651367188 735.348632812 c 2
 164.651367188 585.348632812 l 2
 155.6015625 576.297851562 150 563.797851562 150 550 c 0
 150 536.202148438 155.6015625 523.702148438 164.651367188 514.651367188 c 2
 314.651367188 364.651367188 l 2
 323.702148438 355.6015625 336.202148438 350 350 350 c 0
 363.797851562 350 376.297851562 355.6015625 385.348632812 364.651367188 c 2
 500 479.302734376 l 1
 614.651367188 364.651367188 l 2
 623.702148438 355.6015625 636.202148438 350 650 350 c 0
EndSplineSet
EndChar

StartChar: pa_v.7
Encoding: 160 -1 172
Width: 0
Flags: HW
AnchorPoint: "MarkBaseSet" 0 0 mark 0
LayerCount: 2
Fore
SplineSet
350 -39.9111328125 m 1
 290.1328125 0 l 1
 350 39.9111328125 l 1
 409.8671875 0 l 1
 350 -39.9111328125 l 1
650 -39.9111328125 m 1
 590.1328125 0 l 1
 650 39.9111328125 l 1
 709.8671875 0 l 1
 650 -39.9111328125 l 1
622.315429688 -141.6328125 m 2
 638.60546875 -152.4921875 661.390625 -152.495117188 677.684570312 -141.6328125 c 2
 827.684570312 -41.6328125 l 2
 841.1328125 -32.6669921875 850 -17.3603515625 850 0 c 0
 850 17.3603515625 841.1328125 32.6669921875 827.684570312 41.6328125 c 2
 677.684570312 141.6328125 l 2
 661.39453125 152.4921875 638.609375 152.495117188 622.315429688 141.6328125 c 2
 500 60.089192708 l 1
 377.684570312 141.6328125 l 2
 361.39453125 152.4921875 338.609375 152.495117188 322.315429688 141.6328125 c 2
 172.315429688 41.6328125 l 2
 158.8671875 32.6669921875 150 17.3603515625 150 0 c 0
 150 -17.3603515625 158.8671875 -32.6669921875 172.315429688 -41.6328125 c 2
 322.315429688 -141.6328125 l 2
 338.60546875 -152.4921875 361.390625 -152.495117188 377.684570312 -141.6328125 c 2
 500 -60.089192708 l 1
 622.315429688 -141.6328125 l 2
EndSplineSet
EndChar

StartChar: pa_v.8
Encoding: 161 -1 173
Width: 0
Flags: HW
AnchorPoint: "MarkBaseSet" 0 0 mark 0
LayerCount: 2
Fore
SplineSet
350 -29.3037109375 m 1
 270.696289062 50 l 1
 350 129.303710938 l 1
 429.303710938 50 l 1
 350 -29.3037109375 l 1
650 -29.3037109375 m 1
 570.696289062 50 l 1
 650 129.303710938 l 1
 729.303710938 50 l 1
 650 -29.3037109375 l 1
650 -150 m 0
 663.797851562 -150 676.297851562 -144.3984375 685.348632812 -135.348632812 c 2
 835.348632812 14.6513671875 l 2
 844.3984375 23.7021484375 850 36.2021484375 850 50 c 0
 850 63.7978515625 844.3984375 76.2978515625 835.348632812 85.3486328125 c 2
 685.348632812 235.348632812 l 2
 676.297851562 244.3984375 663.797851562 250 650 250 c 0
 636.202148438 250 623.702148438 244.3984375 614.651367188 235.348632812 c 2
 500 120.697265624 l 1
 385.348632812 235.348632812 l 2
 376.297851562 244.3984375 363.797851562 250 350 250 c 0
 336.202148438 250 323.702148438 244.3984375 314.651367188 235.348632812 c 2
 164.651367188 85.3486328125 l 2
 155.6015625 76.2978515625 150 63.7978515625 150 50 c 0
 150 36.2021484375 155.6015625 23.7021484375 164.651367188 14.6513671875 c 2
 314.651367188 -135.348632812 l 2
 323.702148438 -144.3984375 336.202148438 -150 350 -150 c 0
 363.797851562 -150 376.297851562 -144.3984375 385.348632812 -135.348632812 c 2
 500 -20.6972656244 l 1
 614.651367188 -135.348632812 l 2
 623.702148438 -144.3984375 636.202148438 -150 650 -150 c 0
EndSplineSet
EndChar

StartChar: nv_p
Encoding: 162 -1 174
Width: 1000
Flags: H
LayerCount: 2
Fore
SplineSet
100 750 m 2
 900 750 l 2
 927.594726562 749.997070312 949.997070312 727.594726562 950 700 c 2
 950 -100 l 2
 949.997070312 -127.594726562 927.594726562 -149.997070312 900 -150 c 2
 100 -150 l 2
 72.4052734375 -149.997070312 50.0029296875 -127.594726562 50 -100 c 2
 50 700 l 2
 50.0029296875 727.594726562 72.4052734375 750 100 750 c 2
750 50 m 1
 250 50 l 1
 250 600 l 2
 250 627.595703125 227.595703125 650 200 650 c 0
 172.404296875 650 150 627.595703125 150 600 c 2
 150 -1.11022302463e-14 l 2
 150 -27.595703125 172.404296875 -50 200 -50 c 2
 800 -50 l 2
 827.595703125 -50 850 -27.595703125 850 0 c 2
 850 600 l 2
 850 627.595703125 827.595703125 650 800 650 c 0
 772.404296875 650 750 627.595703125 750 600 c 2
 750 50 l 1
EndSplineSet
Substitution2: "Single Substitution lookup 38 subtable" nv_p.3
Substitution2: "Single Substitution lookup 34 subtable" nv_p.1
Substitution2: "Single Substitution lookup 30 subtable" nv_p.3
Substitution2: "Single Substitution lookup 26 subtable" nv_p.2
Substitution2: "Single Substitution lookup 24 subtable" nv_p.7
Substitution2: "Single Substitution lookup 20 subtable" nv_p.5
Substitution2: "Single Substitution lookup 18 subtable" nv_p.8
Substitution2: "Single Substitution lookup 14 subtable" nv_p.6
Substitution2: "Single Substitution lookup 12 subtable" nv_p.7
Substitution2: "Single Substitution lookup 8 subtable" nv_p.4
Substitution2: "Single Substitution lookup 6 subtable" nv_p.7
Substitution2: "Single Substitution lookup 2 subtable" nv_p.5
EndChar

StartChar: nv_p.1
Encoding: 163 -1 175
Width: 1000
Flags: H
LayerCount: 2
Fore
SplineSet
750 50 m 1
 250 50 l 1
 250 600 l 2
 250 627.595703125 227.595703125 650 200 650 c 0
 172.404296875 650 150 627.595703125 150 600 c 2
 150 0 l 2
 150 -27.595703125 172.404296875 -50 200 -50 c 2
 800 -50 l 2
 827.595703125 -50 850 -27.595703125 850 0 c 2
 850 600 l 2
 850 627.595703125 827.595703125 650 800 650 c 0
 772.404296875 650 750 627.595703125 750 600 c 2
 750 50 l 1
EndSplineSet
EndChar

StartChar: nv_p.2
Encoding: 164 -1 176
Width: 1000
Flags: H
AnchorPoint: "MarkBaseSet" 0 0 basechar 0
LayerCount: 2
Fore
SplineSet
450 50 m 1
 150 50 l 1
 150 600 l 2
 150 627.595703125 127.595703125 650 100 650 c 0
 72.404296875 650 50 627.595703125 50 600 c 2
 50 0 l 2
 50 -27.595703125 72.404296875 -50 100 -50 c 2
 500 -50 l 2
 527.595703125 -50 550 -27.595703125 550 0 c 2
 550 600 l 2
 550 627.595703125 527.595703125 650 500 650 c 0
 472.404296875 650 450 627.595703125 450 600 c 2
 450 50 l 1
EndSplineSet
EndChar

StartChar: nv_p.3
Encoding: 165 -1 177
Width: 1000
Flags: H
AnchorPoint: "MarkBaseSet" 0 0 basechar 0
LayerCount: 2
Fore
SplineSet
750 350 m 1
 250 350 l 1
 250 700 l 2
 250 727.595703125 227.595703125 750 200 750 c 0
 172.404296875 750 150 727.595703125 150 700 c 2
 150 300 l 2
 150 272.404296875 172.404296875 250 200 250 c 2
 800 250 l 2
 827.595703125 250 850 272.404296875 850 300 c 2
 850 700 l 2
 850 727.595703125 827.595703125 750 800 750 c 0
 772.404296875 750 750 727.595703125 750 700 c 2
 750 350 l 1
EndSplineSet
EndChar

StartChar: nv_p.4
Encoding: 166 -1 178
Width: 1000
Flags: H
AnchorPoint: "MarkBaseSet" 0 0 basechar 0
LayerCount: 2
Fore
SplineSet
450 350 m 1
 150 350 l 1
 150 700 l 2
 150 727.595703125 127.595703125 750 100 750 c 0
 72.404296875 750 50 727.595703125 50 700 c 2
 50 300 l 2
 50 272.404296875 72.404296875 250 100 250 c 2
 500 250 l 2
 527.595703125 250 550 272.404296875 550 300 c 2
 550 700 l 2
 550 727.595703125 527.595703125 750 500 750 c 0
 472.404296875 750 450 727.595703125 450 700 c 2
 450 350 l 1
EndSplineSet
EndChar

StartChar: nv_p.5
Encoding: 167 -1 179
Width: 1000
Flags: H
AnchorPoint: "MarkBaseSet" 0 0 basechar 0
LayerCount: 2
Fore
SplineSet
750 550 m 1
 250 550 l 1
 250 700 l 2
 250 727.595703125 227.595703125 750 200 750 c 0
 172.404296875 750 150 727.595703125 150 700 c 2
 150 500 l 2
 150 472.404296875 172.404296875 450 200 450 c 2
 800 450 l 2
 827.595703125 450 850 472.404296875 850 500 c 2
 850 700 l 2
 850 727.595703125 827.595703125 750 800 750 c 0
 772.404296875 750 750 727.595703125 750 700 c 2
 750 550 l 1
EndSplineSet
EndChar

StartChar: nv_r
Encoding: 180 -1 180
Width: 1000
Flags: H
LayerCount: 2
Fore
SplineSet
100 750 m 2
 900 750 l 2
 927.594726562 749.997070312 949.997070312 727.594726562 950 700 c 2
 950 -100 l 2
 949.997070312 -127.594726562 927.594726562 -149.997070312 900 -150 c 2
 100 -150 l 2
 72.4052734375 -149.997070312 50.0029296875 -127.594726562 50 -100 c 2
 50 700 l 2
 50.0029296875 727.594726562 72.4052734375 750 100 750 c 2
250 550 m 1
 750 550 l 1
 750 0 l 2
 750 -27.595703125 772.404296875 -50 800 -50 c 0
 827.595703125 -50 850 -27.595703125 850 0 c 2
 850 600 l 2
 850 627.595703125 827.595703125 650 800 650 c 2
 200 650 l 2
 172.404296875 650 150 627.595703125 150 600 c 2
 150 -1.11022302463e-14 l 2
 150 -27.595703125 172.404296875 -50 200 -50 c 0
 227.595703125 -50 250 -27.595703125 250 0 c 2
 250 550 l 1
EndSplineSet
Substitution2: "Single Substitution lookup 38 subtable" nv_r.3
Substitution2: "Single Substitution lookup 34 subtable" nv_r.1
Substitution2: "Single Substitution lookup 30 subtable" nv_r.3
Substitution2: "Single Substitution lookup 26 subtable" nv_r.2
Substitution2: "Single Substitution lookup 24 subtable" nv_r.7
Substitution2: "Single Substitution lookup 20 subtable" nv_r.5
Substitution2: "Single Substitution lookup 18 subtable" nv_r.8
Substitution2: "Single Substitution lookup 14 subtable" nv_r.6
Substitution2: "Single Substitution lookup 12 subtable" nv_r.7
Substitution2: "Single Substitution lookup 8 subtable" nv_r.4
Substitution2: "Single Substitution lookup 6 subtable" nv_r.7
Substitution2: "Single Substitution lookup 2 subtable" nv_r.5
EndChar

StartChar: nv_r.1
Encoding: 181 -1 181
Width: 1000
Flags: H
LayerCount: 2
Fore
SplineSet
250 550 m 1
 750 550 l 1
 750 0 l 2
 750 -27.595703125 772.404296875 -50 800 -50 c 0
 827.595703125 -50 850 -27.595703125 850 0 c 2
 850 600 l 2
 850 627.595703125 827.595703125 650 800 650 c 2
 200 650 l 2
 172.404296875 650 150 627.595703125 150 600 c 2
 150 0 l 2
 150 -27.595703125 172.404296875 -50 200 -50 c 0
 227.595703125 -50 250 -27.595703125 250 0 c 2
 250 550 l 1
EndSplineSet
EndChar

StartChar: nv_r.2
Encoding: 182 -1 182
Width: 1000
Flags: H
AnchorPoint: "MarkBaseSet" 0 0 basechar 0
LayerCount: 2
Fore
SplineSet
150 550 m 1
 450 550 l 1
 450 0 l 2
 450 -27.595703125 472.404296875 -50 500 -50 c 0
 527.595703125 -50 550 -27.595703125 550 0 c 2
 550 600 l 2
 550 627.595703125 527.595703125 650 500 650 c 2
 100 650 l 2
 72.404296875 650 50 627.595703125 50 600 c 2
 50 0 l 2
 50 -27.595703125 72.404296875 -50 100 -50 c 0
 127.595703125 -50 150 -27.595703125 150 0 c 2
 150 550 l 1
EndSplineSet
EndChar

StartChar: nv_r.3
Encoding: 183 -1 183
Width: 1000
Flags: H
AnchorPoint: "MarkBaseSet" 0 0 basechar 0
LayerCount: 2
Fore
SplineSet
250 650 m 1
 750 650 l 1
 750 300 l 2
 750 272.404296875 772.404296875 250 800 250 c 0
 827.595703125 250 850 272.404296875 850 300 c 2
 850 700 l 2
 850 727.595703125 827.595703125 750 800 750 c 2
 200 750 l 2
 172.404296875 750 150 727.595703125 150 700 c 2
 150 300 l 2
 150 272.404296875 172.404296875 250 200 250 c 0
 227.595703125 250 250 272.404296875 250 300 c 2
 250 650 l 1
EndSplineSet
EndChar

StartChar: nv_r.4
Encoding: 184 -1 184
Width: 1000
Flags: H
AnchorPoint: "MarkBaseSet" 0 0 basechar 0
LayerCount: 2
Fore
SplineSet
150 650 m 1
 450 650 l 1
 450 300 l 2
 450 272.404296875 472.404296875 250 500 250 c 0
 527.595703125 250 550 272.404296875 550 300 c 2
 550 700 l 2
 550 727.595703125 527.595703125 750 500 750 c 2
 100 750 l 2
 72.404296875 750 50 727.595703125 50 700 c 2
 50 300 l 2
 50 272.404296875 72.404296875 250 100 250 c 0
 127.595703125 250 150 272.404296875 150 300 c 2
 150 650 l 1
EndSplineSet
EndChar

StartChar: nv_r.5
Encoding: 185 -1 185
Width: 1000
Flags: H
AnchorPoint: "MarkBaseSet" 0 0 basechar 0
LayerCount: 2
Fore
SplineSet
250 650 m 1
 750 650 l 1
 750 500 l 2
 750 472.404296875 772.404296875 450 800 450 c 0
 827.595703125 450 850 472.404296875 850 500 c 2
 850 700 l 2
 850 727.595703125 827.595703125 750 800 750 c 2
 200 750 l 2
 172.404296875 750 150 727.595703125 150 700 c 2
 150 500 l 2
 150 472.404296875 172.404296875 450 200 450 c 0
 227.595703125 450 250 472.404296875 250 500 c 2
 250 650 l 1
EndSplineSet
EndChar

StartChar: nv_r.6
Encoding: 186 -1 186
Width: 1000
Flags: H
AnchorPoint: "MarkBaseSet" 0 0 basechar 0
LayerCount: 2
Fore
SplineSet
250 650 m 1
 750 650 l 1
 750 400 l 2
 750 372.404296875 772.404296875 350 800 350 c 0
 827.595703125 350 850 372.404296875 850 400 c 2
 850 700 l 2
 850 727.595703125 827.595703125 750 800 750 c 2
 200 750 l 2
 172.404296875 750 150 727.595703125 150 700 c 2
 150 400 l 2
 150 372.404296875 172.404296875 350 200 350 c 0
 227.595703125 350 250 372.404296875 250 400 c 2
 250 650 l 1
EndSplineSet
EndChar

StartChar: nv_r.7
Encoding: 187 -1 187
Width: 0
Flags: HW
AnchorPoint: "MarkBaseSet" 0 0 mark 0
LayerCount: 2
Fore
SplineSet
250 50 m 1
 750 50 l 1
 750 -100 l 2
 750 -127.595703125 772.404296875 -150 800 -150 c 0
 827.595703125 -150 850 -127.595703125 850 -100 c 2
 850 100 l 2
 850 127.595703125 827.595703125 150 800 150 c 2
 200 150 l 2
 172.404296875 150 150 127.595703125 150 100 c 2
 150 -100 l 2
 150 -127.595703125 172.404296875 -150 200 -150 c 0
 227.595703125 -150 250 -127.595703125 250 -100 c 2
 250 50 l 1
EndSplineSet
EndChar

StartChar: nv_r.8
Encoding: 188 -1 188
Width: 0
Flags: HW
AnchorPoint: "MarkBaseSet" 0 0 mark 0
LayerCount: 2
Fore
SplineSet
250 150 m 1
 750 150 l 1
 750 -100 l 2
 750 -127.595703125 772.404296875 -150 800 -150 c 0
 827.595703125 -150 850 -127.595703125 850 -100 c 2
 850 200 l 2
 850 227.595703125 827.595703125 250 800 250 c 2
 200 250 l 2
 172.404296875 250 150 227.595703125 150 200 c 2
 150 -100 l 2
 150 -127.595703125 172.404296875 -150 200 -150 c 0
 227.595703125 -150 250 -127.595703125 250 -100 c 2
 250 150 l 1
EndSplineSet
EndChar

StartChar: pa_r
Encoding: 189 -1 189
Width: 1000
Flags: H
LayerCount: 2
Fore
SplineSet
500 0 m 1
 500 600 l 1025
800 0 m 1
 800 600 l 1
 200 600 l 1
 200 0 l 1025
800 650 m 2
 200 650 l 2
 172.404296875 650 150 627.595703125 150 600 c 2
 150 -1.11022302463e-14 l 2
 150 -27.595703125 172.404296875 -50 200 -50 c 0
 227.595703125 -50 250 -27.595703125 250 0 c 2
 250 550 l 1
 450 550 l 1
 450 0 l 2
 450 -27.595703125 472.404296875 -50 500 -50 c 0
 527.595703125 -50 550 -27.595703125 550 0 c 2
 550 550 l 1
 750 550 l 1
 750 0 l 2
 750 -27.595703125 772.404296875 -50 800 -50 c 0
 827.595703125 -50 850 -27.595703125 850 0 c 2
 850 600 l 2
 850 627.595703125 827.595703125 650 800 650 c 2
100 750 m 2
 900 750 l 2
 927.594726562 749.997070312 949.997070312 727.594726562 950 700 c 2
 950 -100 l 2
 949.997070312 -127.594726562 927.594726562 -149.997070312 900 -150 c 2
 100 -150 l 2
 72.4052734375 -149.997070312 50.0029296875 -127.594726562 50 -100 c 2
 50 700 l 2
 50.0029296875 727.594726562 72.4052734375 750 100 750 c 2
EndSplineSet
Substitution2: "Single Substitution lookup 38 subtable" pa_r.3
Substitution2: "Single Substitution lookup 34 subtable" pa_r.1
Substitution2: "Single Substitution lookup 30 subtable" pa_r.3
Substitution2: "Single Substitution lookup 26 subtable" pa_r.2
Substitution2: "Single Substitution lookup 24 subtable" pa_r.7
Substitution2: "Single Substitution lookup 20 subtable" pa_r.5
Substitution2: "Single Substitution lookup 18 subtable" pa_r.8
Substitution2: "Single Substitution lookup 14 subtable" pa_r.6
Substitution2: "Single Substitution lookup 12 subtable" pa_r.7
Substitution2: "Single Substitution lookup 8 subtable" pa_r.4
Substitution2: "Single Substitution lookup 6 subtable" pa_r.7
Substitution2: "Single Substitution lookup 2 subtable" pa_r.5
EndChar

StartChar: pa_r.1
Encoding: 190 -1 190
Width: 1000
Flags: H
LayerCount: 2
Fore
SplineSet
450 0 m 2
 450 -27.595703125 472.404296875 -50 500 -50 c 0
 527.595703125 -50 550 -27.595703125 550 0 c 2
 550 550 l 1
 750 550 l 1
 750 0 l 2
 750 -27.595703125 772.404296875 -50 800 -50 c 0
 827.595703125 -50 850 -27.595703125 850 0 c 2
 850 600 l 2
 850 627.595703125 827.595703125 650 800 650 c 2
 500 650 l 1
 200 650 l 2
 172.404296875 650 150 627.595703125 150 600 c 2
 150 0 l 2
 150 -27.595703125 172.404296875 -50 200 -50 c 0
 227.595703125 -50 250 -27.595703125 250 0 c 2
 250 550 l 1
 450 550 l 1
 450 0 l 2
EndSplineSet
EndChar

StartChar: pa_r.2
Encoding: 191 -1 191
Width: 1000
Flags: H
AnchorPoint: "MarkBaseSet" 0 0 basechar 0
LayerCount: 2
Fore
SplineSet
250 0 m 2
 250 -27.595703125 272.404296875 -50 300 -50 c 0
 327.595703125 -50 350 -27.595703125 350 0 c 2
 350 550 l 1
 450 550 l 1
 450 0 l 2
 450 -27.595703125 472.404296875 -50 500 -50 c 0
 527.595703125 -50 550 -27.595703125 550 0 c 2
 550 600 l 2
 550 627.595703125 527.595703125 650 500 650 c 2
 300 650 l 1
 100 650 l 2
 72.404296875 650 50 627.595703125 50 600 c 2
 50 0 l 2
 50 -27.595703125 72.404296875 -50 100 -50 c 0
 127.595703125 -50 150 -27.595703125 150 0 c 2
 150 550 l 1
 250 550 l 1
 250 0 l 2
EndSplineSet
EndChar

StartChar: pa_r.3
Encoding: 192 -1 192
Width: 1000
Flags: H
AnchorPoint: "MarkBaseSet" 0 0 basechar 0
LayerCount: 2
Fore
SplineSet
450 300 m 2
 450 272.404296875 472.404296875 250 500 250 c 0
 527.595703125 250 550 272.404296875 550 300 c 2
 550 650 l 1
 750 650 l 1
 750 300 l 2
 750 272.404296875 772.404296875 250 800 250 c 0
 827.595703125 250 850 272.404296875 850 300 c 2
 850 700 l 2
 850 727.595703125 827.595703125 750 800 750 c 2
 500 750 l 1
 200 750 l 2
 172.404296875 750 150 727.595703125 150 700 c 2
 150 300 l 2
 150 272.404296875 172.404296875 250 200 250 c 0
 227.595703125 250 250 272.404296875 250 300 c 2
 250 650 l 1
 450 650 l 1
 450 300 l 2
EndSplineSet
EndChar

StartChar: pa_r.4
Encoding: 193 -1 193
Width: 1000
Flags: H
AnchorPoint: "MarkBaseSet" 0 0 basechar 0
LayerCount: 2
Fore
SplineSet
250 300 m 2
 250 272.404296875 272.404296875 250 300 250 c 0
 327.595703125 250 350 272.404296875 350 300 c 2
 350 650 l 1
 450 650 l 1
 450 300 l 2
 450 272.404296875 472.404296875 250 500 250 c 0
 527.595703125 250 550 272.404296875 550 300 c 2
 550 700 l 2
 550 727.595703125 527.595703125 750 500 750 c 2
 300 750 l 1
 100 750 l 2
 72.404296875 750 50 727.595703125 50 700 c 2
 50 300 l 2
 50 272.404296875 72.404296875 250 100 250 c 0
 127.595703125 250 150 272.404296875 150 300 c 2
 150 650 l 1
 250 650 l 1
 250 300 l 2
EndSplineSet
EndChar

